<svg width="92" height="92" viewBox="0 0 92 92" fill="none" xmlns="http://www.w3.org/2000/svg">
<path d="M45.9958 92C71.405 92 92 71.405 92 46C92 20.595 71.405 0 46 0C20.595 0 0 20.595 0 46C0 71.405 20.5908 92 45.9958 92Z" fill="url(#paint0_linear_179_753)"/>
<path d="M45.9958 92C71.405 92 92 71.405 92 46C92 20.595 71.405 0 46 0C20.595 0 0 20.595 0 46C0 71.405 20.5908 92 45.9958 92Z" fill="url(#paint1_radial_179_753)"/>
<g filter="url(#filter0_f_179_753)">
<path d="M46.1046 90.5233C70.7525 90.5233 90.7327 70.5431 90.7327 45.8952C90.7327 21.2473 70.7525 1.26709 46.1046 1.26709C21.4566 1.26709 1.47644 21.2431 1.47644 45.8952C1.47644 70.5431 21.4566 90.5233 46.1046 90.5233Z" fill="#DDCEF5"/>
<path d="M46.1046 90.5233C70.7525 90.5233 90.7327 70.5431 90.7327 45.8952C90.7327 21.2473 70.7525 1.26709 46.1046 1.26709C21.4566 1.26709 1.47644 21.2431 1.47644 45.8952C1.47644 70.5431 21.4566 90.5233 46.1046 90.5233Z" fill="url(#paint2_radial_179_753)"/>
</g>
<g filter="url(#filter1_f_179_753)">
<path d="M42.0432 1.38941C55.4358 -0.438382 72.4547 5.34613 80.7906 19.4833C70.0121 9.12718 58.556 2.74456 42.0432 1.38941Z" fill="url(#paint3_radial_179_753)"/>
</g>
<path d="M45.9959 77.6497C50.1521 77.65 54.2678 76.8316 58.1078 75.2414C61.9478 73.6511 65.437 71.32 68.3761 68.3813C71.3152 65.4425 73.6468 61.9537 75.2375 58.1139C76.8283 54.2741 77.6472 50.1585 77.6475 46.0023C77.6478 41.846 76.8294 37.7303 75.2391 33.8903C73.6489 30.0503 71.3178 26.5611 68.3791 23.622C65.4403 20.6829 61.9514 18.3514 58.1116 16.7606C54.2719 15.1698 50.1563 14.3509 46 14.3506C37.6061 14.3506 29.5559 17.6851 23.6204 23.6205C17.685 29.556 14.3505 37.6062 14.3505 46.0002C14.3505 54.3942 17.685 62.4443 23.6204 68.3798C29.5559 74.3152 37.6019 77.6497 45.9959 77.6497Z" fill="#D8CBF0"/>
<path d="M45.9959 77.6497C50.1521 77.65 54.2678 76.8316 58.1078 75.2414C61.9478 73.6511 65.437 71.32 68.3761 68.3813C71.3152 65.4425 73.6468 61.9537 75.2375 58.1139C76.8283 54.2741 77.6472 50.1585 77.6475 46.0023C77.6478 41.846 76.8294 37.7303 75.2391 33.8903C73.6489 30.0503 71.3178 26.5611 68.3791 23.622C65.4403 20.6829 61.9514 18.3514 58.1116 16.7606C54.2719 15.1698 50.1563 14.3509 46 14.3506C37.6061 14.3506 29.5559 17.6851 23.6204 23.6205C17.685 29.556 14.3505 37.6062 14.3505 46.0002C14.3505 54.3942 17.685 62.4443 23.6204 68.3798C29.5559 74.3152 37.6019 77.6497 45.9959 77.6497Z" fill="url(#paint4_radial_179_753)"/>
<path d="M45.9959 77.6497C50.1521 77.65 54.2678 76.8316 58.1078 75.2414C61.9478 73.6511 65.437 71.32 68.3761 68.3813C71.3152 65.4425 73.6468 61.9537 75.2375 58.1139C76.8283 54.2741 77.6472 50.1585 77.6475 46.0023C77.6478 41.846 76.8294 37.7303 75.2391 33.8903C73.6489 30.0503 71.3178 26.5611 68.3791 23.622C65.4403 20.6829 61.9514 18.3514 58.1116 16.7606C54.2719 15.1698 50.1563 14.3509 46 14.3506C37.6061 14.3506 29.5559 17.6851 23.6204 23.6205C17.685 29.556 14.3505 37.6062 14.3505 46.0002C14.3505 54.3942 17.685 62.4443 23.6204 68.3798C29.5559 74.3152 37.6019 77.6497 45.9959 77.6497Z" fill="url(#paint5_radial_179_753)"/>
<path d="M45.9959 77.6497C50.1521 77.65 54.2678 76.8316 58.1078 75.2414C61.9478 73.6511 65.437 71.32 68.3761 68.3813C71.3152 65.4425 73.6467 61.9537 75.2375 58.1139C76.8283 54.2741 77.6472 50.1585 77.6475 46.0023C77.6478 41.846 76.8294 37.7303 75.2391 33.8903C73.6489 30.0503 71.3178 26.5611 68.3791 23.622C65.4403 20.6829 61.9514 18.3514 58.1116 16.7606C54.2718 15.1698 50.1563 14.3509 46 14.3506C37.6061 14.3506 29.5559 17.6851 23.6204 23.6205C17.685 29.556 14.3505 37.6062 14.3505 46.0002C14.3505 54.3942 17.685 62.4443 23.6204 68.3798C29.5559 74.3152 37.6019 77.6497 45.9959 77.6497Z" fill="url(#paint6_radial_179_753)"/>
<g filter="url(#filter2_d_179_753)">
<path d="M23.1953 65.6059L26.5397 70.7965L29.6967 74.2713L31.5997 75.7998L34.2669 76.3767L37.1648 75.8868L39.5293 75.2815L41.0142 76.1611L42.9172 77.6895L45.4689 78.7999L48.2515 78.8434L52.4471 77.5174L56.8734 75.1245L61.5306 71.6648L66.9519 67.2536L71.3064 62.6116L73.7144 59.2237L75.7044 55.187L77.9251 50.0835L78.4302 45.1672L78.4018 40.1356L77.4939 36.5888L75.4037 33.3447L73.1981 30.634L70.8771 28.4568L67.2584 27.1156L62.991 26.1925L59.1416 25.9182L55.7102 26.2927L52.1634 27.2007L53.043 25.7158L53.9226 24.2309L55.3357 22.8614L57.8155 21.7226L60.7135 21.2327L63.496 21.2762L64.073 18.6091L62.4727 18.2629L60.2236 18.3348L57.8591 18.9401L54.8457 19.9634L52.8993 21.2176L50.722 23.5386L51.299 20.8714L52.4094 18.3196L52.3375 16.0705L50.5499 14.0087L48.647 12.4802L46.5132 12.0187L44.0333 13.1574L41.9715 14.945L41.2792 18.1456L42.4179 20.6255L44.2055 22.6873L41.1203 21.4616L37.5016 20.1204L34.1856 19.9615L29.0386 20.5233L24.7276 22.3827L21.3681 25.0064L18.7293 29.4611L16.624 34.0312L15.7008 38.2987L15.8446 42.7969L16.1037 46.7617L16.8963 50.8419L18.6404 55.6863L20.3844 60.5307L23.1953 65.6059Z" fill="#D9D9D9"/>
</g>
<g clip-path="url(#clip0_179_753)">
<path d="M52.1385 16.4743C52.7351 19.3953 49.0896 27.9877 49.0896 27.9877C49.0896 27.9877 42.1035 21.5626 41.5069 18.6416C40.9103 15.7206 42.7531 12.8806 45.6742 12.284C48.5952 11.6874 51.5419 13.5532 52.1385 16.4743Z" fill="#83BF4F"/>
<path d="M51.5347 29.0748L48.7608 28.4747C49.7532 23.8872 53.9983 16.653 64.2402 18.8685L63.6402 21.6423C54.3585 19.6345 51.7193 28.2213 51.5347 29.0748Z" fill="#947151"/>
<path d="M50.2631 28.2415C44.1827 18.662 21.101 13.3341 16.2085 35.9516C13.1161 50.2476 25.5185 74.4843 32.8799 76.0767C36.1872 76.7921 37.8223 74.9122 39.8493 75.3507C41.7697 75.7661 41.9482 78.0383 46.2157 78.9614C53.5771 80.5538 74.9712 63.7394 78.0867 49.3367C82.9791 26.7192 59.759 22.0314 50.2631 28.2415Z" fill="#EF4D3C"/>
</g>
<defs>
<filter id="filter0_f_179_753" x="0.97644" y="0.76709" width="90.2562" height="90.2563" filterUnits="userSpaceOnUse" color-interpolation-filters="sRGB">
<feFlood flood-opacity="0" result="BackgroundImageFix"/>
<feBlend mode="normal" in="SourceGraphic" in2="BackgroundImageFix" result="shape"/>
<feGaussianBlur stdDeviation="0.25" result="effect1_foregroundBlur_179_753"/>
</filter>
<filter id="filter1_f_179_753" x="41.7432" y="0.761523" width="39.3474" height="19.0219" filterUnits="userSpaceOnUse" color-interpolation-filters="sRGB">
<feFlood flood-opacity="0" result="BackgroundImageFix"/>
<feBlend mode="normal" in="SourceGraphic" in2="BackgroundImageFix" result="shape"/>
<feGaussianBlur stdDeviation="0.15" result="effect1_foregroundBlur_179_753"/>
</filter>
<filter id="filter2_d_179_753" x="11.7008" y="12.0186" width="70.7294" height="74.8247" filterUnits="userSpaceOnUse" color-interpolation-filters="sRGB">
<feFlood flood-opacity="0" result="BackgroundImageFix"/>
<feColorMatrix in="SourceAlpha" type="matrix" values="0 0 0 0 0 0 0 0 0 0 0 0 0 0 0 0 0 0 127 0" result="hardAlpha"/>
<feOffset dy="4"/>
<feGaussianBlur stdDeviation="2"/>
<feComposite in2="hardAlpha" operator="out"/>
<feColorMatrix type="matrix" values="0 0 0 0 0 0 0 0 0 0 0 0 0 0 0 0 0 0 0.25 0"/>
<feBlend mode="normal" in2="BackgroundImageFix" result="effect1_dropShadow_179_753"/>
<feBlend mode="normal" in="SourceGraphic" in2="effect1_dropShadow_179_753" result="shape"/>
</filter>
<linearGradient id="paint0_linear_179_753" x1="40.755" y1="1.4245e-07" x2="46" y2="92" gradientUnits="userSpaceOnUse">
<stop offset="0.115" stop-color="#BCBBC4"/>
<stop offset="0.228" stop-color="#8F8D9B"/>
<stop offset="0.689" stop-color="#A8A0BC"/>
<stop offset="0.766" stop-color="#BFA1E2"/>
</linearGradient>
<radialGradient id="paint1_radial_179_753" cx="0" cy="0" r="1" gradientUnits="userSpaceOnUse" gradientTransform="translate(68.2961 7.83347) rotate(115.805) scale(25.5358 40.6193)">
<stop stop-color="#DADAE0"/>
<stop offset="1" stop-color="#D7D6DE" stop-opacity="0"/>
</radialGradient>
<radialGradient id="paint2_radial_179_753" cx="0" cy="0" r="1" gradientUnits="userSpaceOnUse" gradientTransform="translate(13.004 70.2686) rotate(-42.333) scale(67.542 67.5415)">
<stop stop-color="#EAE0FD"/>
<stop offset="1" stop-color="#E7DDF9" stop-opacity="0"/>
</radialGradient>
<radialGradient id="paint3_radial_179_753" cx="0" cy="0" r="1" gradientUnits="userSpaceOnUse" gradientTransform="translate(64.4409 6.89368) rotate(114.444) scale(15.1004 28.2672)">
<stop stop-color="#E5E3EF"/>
<stop offset="1" stop-color="#E5E3EF" stop-opacity="0"/>
</radialGradient>
<radialGradient id="paint4_radial_179_753" cx="0" cy="0" r="1" gradientUnits="userSpaceOnUse" gradientTransform="translate(40.7551 52.044) rotate(82.997) scale(43.0158 49.2608)">
<stop offset="0.596" stop-color="#DACEF3"/>
<stop offset="0.754" stop-color="#CCB9EB"/>
<stop offset="0.962" stop-color="#BCA7DC"/>
</radialGradient>
<radialGradient id="paint5_radial_179_753" cx="0" cy="0" r="1" gradientUnits="userSpaceOnUse" gradientTransform="translate(61.9734 23.7498) rotate(142.239) scale(77.9716 74.4202)">
<stop offset="0.477" stop-color="#DACEF3" stop-opacity="0"/>
<stop offset="0.694" stop-color="#E9E2FD"/>
<stop offset="0.816" stop-color="#EBE8FB"/>
<stop offset="0.962" stop-color="#EAE7F9"/>
</radialGradient>
<radialGradient id="paint6_radial_179_753" cx="0" cy="0" r="1" gradientUnits="userSpaceOnUse" gradientTransform="translate(27.6176 27.0322) rotate(56.149) scale(74.8322 85.6969)">
<stop offset="0.537" stop-color="#DACEF3" stop-opacity="0"/>
<stop offset="0.754" stop-color="#B9B5CA"/>
<stop offset="0.962" stop-color="#B2AEC4"/>
</radialGradient>
<clipPath id="clip0_179_753">
<rect width="69.8585" height="69.8585" fill="white" transform="translate(19.7698 4) rotate(12.2058)"/>
</clipPath>
</defs>
</svg>
