<svg width="92" height="92" viewBox="0 0 92 92" fill="none" xmlns="http://www.w3.org/2000/svg">
<path d="M45.9958 92C71.405 92 92 71.405 92 46C92 20.595 71.405 0 46 0C20.595 0 0 20.595 0 46C0 71.405 20.5908 92 45.9958 92Z" fill="url(#paint0_linear_178_618)"/>
<path d="M45.9958 92C71.405 92 92 71.405 92 46C92 20.595 71.405 0 46 0C20.595 0 0 20.595 0 46C0 71.405 20.5908 92 45.9958 92Z" fill="url(#paint1_radial_178_618)"/>
<g filter="url(#filter0_f_178_618)">
<path d="M46.1046 90.5233C70.7525 90.5233 90.7327 70.5431 90.7327 45.8952C90.7327 21.2473 70.7525 1.26709 46.1046 1.26709C21.4566 1.26709 1.47644 21.2431 1.47644 45.8952C1.47644 70.5431 21.4566 90.5233 46.1046 90.5233Z" fill="#DDCEF5"/>
<path d="M46.1046 90.5233C70.7525 90.5233 90.7327 70.5431 90.7327 45.8952C90.7327 21.2473 70.7525 1.26709 46.1046 1.26709C21.4566 1.26709 1.47644 21.2431 1.47644 45.8952C1.47644 70.5431 21.4566 90.5233 46.1046 90.5233Z" fill="url(#paint2_radial_178_618)"/>
</g>
<g filter="url(#filter1_f_178_618)">
<path d="M42.0432 1.38941C55.4358 -0.438382 72.4547 5.34613 80.7906 19.4833C70.0121 9.12718 58.556 2.74456 42.0432 1.38941Z" fill="url(#paint3_radial_178_618)"/>
</g>
<path d="M45.9959 77.6497C50.1521 77.65 54.2678 76.8316 58.1078 75.2414C61.9478 73.6511 65.437 71.32 68.3761 68.3813C71.3152 65.4425 73.6468 61.9537 75.2375 58.1139C76.8283 54.2741 77.6472 50.1585 77.6475 46.0023C77.6478 41.846 76.8294 37.7303 75.2391 33.8903C73.6489 30.0503 71.3178 26.5611 68.3791 23.622C65.4403 20.6829 61.9514 18.3514 58.1116 16.7606C54.2719 15.1698 50.1563 14.3509 46 14.3506C37.6061 14.3506 29.5559 17.6851 23.6204 23.6205C17.685 29.556 14.3505 37.6062 14.3505 46.0002C14.3505 54.3942 17.685 62.4443 23.6204 68.3798C29.5559 74.3152 37.6019 77.6497 45.9959 77.6497Z" fill="#D8CBF0"/>
<path d="M45.9959 77.6497C50.1521 77.65 54.2678 76.8316 58.1078 75.2414C61.9478 73.6511 65.437 71.32 68.3761 68.3813C71.3152 65.4425 73.6468 61.9537 75.2375 58.1139C76.8283 54.2741 77.6472 50.1585 77.6475 46.0023C77.6478 41.846 76.8294 37.7303 75.2391 33.8903C73.6489 30.0503 71.3178 26.5611 68.3791 23.622C65.4403 20.6829 61.9514 18.3514 58.1116 16.7606C54.2719 15.1698 50.1563 14.3509 46 14.3506C37.6061 14.3506 29.5559 17.6851 23.6204 23.6205C17.685 29.556 14.3505 37.6062 14.3505 46.0002C14.3505 54.3942 17.685 62.4443 23.6204 68.3798C29.5559 74.3152 37.6019 77.6497 45.9959 77.6497Z" fill="url(#paint4_radial_178_618)"/>
<path d="M45.9959 77.6497C50.1521 77.65 54.2678 76.8316 58.1078 75.2414C61.9478 73.6511 65.437 71.32 68.3761 68.3813C71.3152 65.4425 73.6468 61.9537 75.2375 58.1139C76.8283 54.2741 77.6472 50.1585 77.6475 46.0023C77.6478 41.846 76.8294 37.7303 75.2391 33.8903C73.6489 30.0503 71.3178 26.5611 68.3791 23.622C65.4403 20.6829 61.9514 18.3514 58.1116 16.7606C54.2719 15.1698 50.1563 14.3509 46 14.3506C37.6061 14.3506 29.5559 17.6851 23.6204 23.6205C17.685 29.556 14.3505 37.6062 14.3505 46.0002C14.3505 54.3942 17.685 62.4443 23.6204 68.3798C29.5559 74.3152 37.6019 77.6497 45.9959 77.6497Z" fill="url(#paint5_radial_178_618)"/>
<path d="M45.9959 77.6497C50.1521 77.65 54.2678 76.8316 58.1078 75.2414C61.9478 73.6511 65.437 71.32 68.3761 68.3813C71.3152 65.4425 73.6467 61.9537 75.2375 58.1139C76.8283 54.2741 77.6472 50.1585 77.6475 46.0023C77.6478 41.846 76.8294 37.7303 75.2391 33.8903C73.6489 30.0503 71.3178 26.5611 68.3791 23.622C65.4403 20.6829 61.9514 18.3514 58.1116 16.7606C54.2718 15.1698 50.1563 14.3509 46 14.3506C37.6061 14.3506 29.5559 17.6851 23.6204 23.6205C17.685 29.556 14.3505 37.6062 14.3505 46.0002C14.3505 54.3942 17.685 62.4443 23.6204 68.3798C29.5559 74.3152 37.6019 77.6497 45.9959 77.6497Z" fill="url(#paint6_radial_178_618)"/>
<g clip-path="url(#clip0_178_618)">
<g filter="url(#filter2_d_178_618)">
<path d="M40.5205 14.3151L28.4657 17.6028L25.1781 18.6987L23.5342 21.4384V24.1781L24.6301 26.9178L18.0548 29.1096H15.863L14.2192 30.2055L13.1233 32.3973L12.5753 34.5891L13.1233 37.8768L14.7671 40.6165L10.3835 45L12.5753 46.0959L13.1233 47.1918L13.6712 48.8357L14.2192 50.4795L13.6712 52.1233L11.4794 53.7672L26.274 61.4384L31.2055 69.6576L36.137 78.4247L38.3288 80.6165H41.6164L45.452 78.9726L62.9863 70.2055L78.8767 62.5343L76.6849 60.3425L77.2329 56.5069L77.7808 54.8631L79.9726 53.2192L75.0411 48.2877L79.4246 46.0959L77.7808 44.4521V43.9041L77.2329 42.8083L77.7808 41.7124V41.1644L78.8767 39.5206L80.5205 38.4247L75.589 33.4932L76.6849 31.3014L77.2329 30.2055L77.7808 28.0137V25.822L77.2329 23.6302L76.137 21.9863L74.4931 20.8905L72.3014 20.3425L59.6986 17.0548L53.6712 10.4795L45.452 12.6713L42.7123 11.5754L40.5205 14.3151Z" fill="#D9D9D9"/>
</g>
<path d="M70.5479 53.9863L78.5479 62.3151L43.3698 79.9589C43.3698 79.9589 38.7671 82.2603 36.5753 78.6439C27.8082 64.3973 70.5479 53.9863 70.5479 53.9863Z" fill="#256382"/>
<path d="M42.3835 69.5479C42.3835 69.5479 35.6986 72.0684 36.9041 76.7807C38.2192 81.7122 43.589 78.7533 43.589 78.7533L77.0137 62.315C77.0137 62.315 75.1507 57.0547 78.5479 53.5479L42.3835 69.5479Z" fill="#D9E3E8"/>
<path d="M48.0822 20.2329L80.0822 53.2192L42.274 68.8904L18.0548 28.7809L48.0822 20.2329Z" fill="#42ADE2"/>
<path d="M76.9041 57.1645L54.5479 66.8084L76.4657 56.1782L76.9041 57.1645ZM76.5753 60.0138L52.7945 70.4248L76.137 59.0275L76.5753 60.0138ZM76.7945 61.6577L46.4384 75.5755L76.3562 60.6714L76.7945 61.6577Z" fill="#94989B"/>
<path d="M36.4657 78.5343C32.7397 70.3151 42.2739 68.8905 42.2739 68.8905L18.0548 28.7809C18.0548 28.7809 12.5753 28.6713 12.5753 34.6987C12.5753 37.2193 13.6712 39.0823 13.6712 39.0823L36.4657 78.5343Z" fill="#428BC1"/>
<path d="M19.9178 45.7671L11.9178 54.0959L47.0959 71.7397C47.0959 71.7397 51.6987 74.0411 53.8904 70.4246C62.6576 56.178 19.9178 45.7671 19.9178 45.7671Z" fill="#547725"/>
<path d="M47.9726 61.3286C47.9726 61.3286 54.6576 63.8492 53.4521 68.5615C52.137 73.493 46.8768 70.5341 46.8768 70.5341L13.4521 54.0957C13.4521 54.0957 15.3151 48.8355 11.9178 45.3286L47.9726 61.3286Z" fill="#D9E3E8"/>
<path d="M42.3835 12.0137L10.3835 45L48.1918 60.6712L72.4109 20.5616L42.3835 12.0137Z" fill="#83BF4F"/>
<path d="M13.8904 47.959L35.8082 58.5891L13.452 48.9453L13.8904 47.959ZM14.3287 50.8083L37.5616 62.2056L13.7808 51.7946L14.3287 50.8083ZM14.1096 52.4521L43.9178 67.3562L13.5616 53.4384L14.1096 52.4521Z" fill="#94989B"/>
<path d="M54 70.3151C57.726 62.0959 48.1918 60.6712 48.1918 60.6712L72.4109 20.5617C72.4109 20.5617 77.8904 20.4521 77.8904 26.4795C77.8904 29 76.7945 30.863 76.7945 30.863L54 70.3151Z" fill="#699635"/>
<path d="M72.5205 38.9727L79.2054 45.9864L49.5068 60.7809C49.5068 60.7809 45.5616 62.6439 43.6986 59.685C36.4657 47.7398 72.5205 38.9727 72.5205 38.9727Z" fill="#962C2C"/>
<path d="M48.7398 52.123C48.7398 52.123 43.0412 54.2052 44.1371 58.26C45.2329 62.4244 49.7261 59.9038 49.7261 59.9038L77.8905 45.986C77.8905 45.986 76.3562 41.6025 79.2055 38.6436L48.7398 52.123Z" fill="#D9E3E8"/>
<path d="M53.5616 10.4795L80.5205 38.3151L48.6301 51.5754L28.137 17.7124L53.5616 10.4795Z" fill="#ED4C5C"/>
<path d="M54.3287 16.8354L59.589 22.6437L40.1917 29.9861L35.589 22.5341L54.3287 16.8354Z" fill="white"/>
<path d="M77.8904 41.7124L59.0411 49.7124L77.4521 40.7261L77.8904 41.7124ZM77.6712 44.1233L57.5069 52.7809L77.2329 43.137L77.6712 44.1233ZM77.8904 45.4384L52.2466 57.1644L77.3425 44.4521L77.8904 45.4384Z" fill="#94989B"/>
<path d="M43.8082 59.6852C40.7398 52.7811 48.7398 51.5756 48.7398 51.5756L28.137 17.7126C28.137 17.7126 23.4247 17.603 23.4247 22.6441C23.4247 24.7263 24.3014 26.3701 24.3014 26.3701L43.8082 59.6852Z" fill="#C94747"/>
</g>
<defs>
<filter id="filter0_f_178_618" x="0.97644" y="0.76709" width="90.2562" height="90.2563" filterUnits="userSpaceOnUse" color-interpolation-filters="sRGB">
<feFlood flood-opacity="0" result="BackgroundImageFix"/>
<feBlend mode="normal" in="SourceGraphic" in2="BackgroundImageFix" result="shape"/>
<feGaussianBlur stdDeviation="0.25" result="effect1_foregroundBlur_178_618"/>
</filter>
<filter id="filter1_f_178_618" x="41.7432" y="0.761523" width="39.3474" height="19.0219" filterUnits="userSpaceOnUse" color-interpolation-filters="sRGB">
<feFlood flood-opacity="0" result="BackgroundImageFix"/>
<feBlend mode="normal" in="SourceGraphic" in2="BackgroundImageFix" result="shape"/>
<feGaussianBlur stdDeviation="0.15" result="effect1_foregroundBlur_178_618"/>
</filter>
<filter id="filter2_d_178_618" x="6.38354" y="10.4795" width="78.137" height="78.1372" filterUnits="userSpaceOnUse" color-interpolation-filters="sRGB">
<feFlood flood-opacity="0" result="BackgroundImageFix"/>
<feColorMatrix in="SourceAlpha" type="matrix" values="0 0 0 0 0 0 0 0 0 0 0 0 0 0 0 0 0 0 127 0" result="hardAlpha"/>
<feOffset dy="4"/>
<feGaussianBlur stdDeviation="2"/>
<feComposite in2="hardAlpha" operator="out"/>
<feColorMatrix type="matrix" values="0 0 0 0 0 0 0 0 0 0 0 0 0 0 0 0 0 0 0.25 0"/>
<feBlend mode="normal" in2="BackgroundImageFix" result="effect1_dropShadow_178_618"/>
<feBlend mode="normal" in="SourceGraphic" in2="effect1_dropShadow_178_618" result="shape"/>
</filter>
<linearGradient id="paint0_linear_178_618" x1="40.755" y1="1.4245e-07" x2="46" y2="92" gradientUnits="userSpaceOnUse">
<stop offset="0.115" stop-color="#BCBBC4"/>
<stop offset="0.228" stop-color="#8F8D9B"/>
<stop offset="0.689" stop-color="#A8A0BC"/>
<stop offset="0.766" stop-color="#BFA1E2"/>
</linearGradient>
<radialGradient id="paint1_radial_178_618" cx="0" cy="0" r="1" gradientUnits="userSpaceOnUse" gradientTransform="translate(68.2961 7.83347) rotate(115.805) scale(25.5358 40.6193)">
<stop stop-color="#DADAE0"/>
<stop offset="1" stop-color="#D7D6DE" stop-opacity="0"/>
</radialGradient>
<radialGradient id="paint2_radial_178_618" cx="0" cy="0" r="1" gradientUnits="userSpaceOnUse" gradientTransform="translate(13.004 70.2686) rotate(-42.333) scale(67.542 67.5415)">
<stop stop-color="#EAE0FD"/>
<stop offset="1" stop-color="#E7DDF9" stop-opacity="0"/>
</radialGradient>
<radialGradient id="paint3_radial_178_618" cx="0" cy="0" r="1" gradientUnits="userSpaceOnUse" gradientTransform="translate(64.4409 6.89368) rotate(114.444) scale(15.1004 28.2672)">
<stop stop-color="#E5E3EF"/>
<stop offset="1" stop-color="#E5E3EF" stop-opacity="0"/>
</radialGradient>
<radialGradient id="paint4_radial_178_618" cx="0" cy="0" r="1" gradientUnits="userSpaceOnUse" gradientTransform="translate(40.7551 52.044) rotate(82.997) scale(43.0158 49.2608)">
<stop offset="0.596" stop-color="#DACEF3"/>
<stop offset="0.754" stop-color="#CCB9EB"/>
<stop offset="0.962" stop-color="#BCA7DC"/>
</radialGradient>
<radialGradient id="paint5_radial_178_618" cx="0" cy="0" r="1" gradientUnits="userSpaceOnUse" gradientTransform="translate(61.9734 23.7498) rotate(142.239) scale(77.9716 74.4202)">
<stop offset="0.477" stop-color="#DACEF3" stop-opacity="0"/>
<stop offset="0.694" stop-color="#E9E2FD"/>
<stop offset="0.816" stop-color="#EBE8FB"/>
<stop offset="0.962" stop-color="#EAE7F9"/>
</radialGradient>
<radialGradient id="paint6_radial_178_618" cx="0" cy="0" r="1" gradientUnits="userSpaceOnUse" gradientTransform="translate(27.6176 27.0322) rotate(56.149) scale(74.8322 85.6969)">
<stop offset="0.537" stop-color="#DACEF3" stop-opacity="0"/>
<stop offset="0.754" stop-color="#B9B5CA"/>
<stop offset="0.962" stop-color="#B2AEC4"/>
</radialGradient>
<clipPath id="clip0_178_618">
<rect width="80" height="82.1918" fill="white" transform="translate(6 5)"/>
</clipPath>
</defs>
</svg>
