<svg xmlns="http://www.w3.org/2000/svg" width="20" height="20" viewBox="0 0 20 20" fill="none">
  <path d="M6.50002 0H13.5C16.1667 0 18.3334 2.16667 18.3334 4.83333V11.8333C18.3334 13.1152 17.8241 14.3446 16.9177 15.251C16.0113 16.1574 14.7819 16.6667 13.5 16.6667H6.50002C3.83335 16.6667 1.66669 14.5 1.66669 11.8333V4.83333C1.66669 3.55145 2.17591 2.32208 3.08234 1.41565C3.98876 0.509225 5.21814 0 6.50002 0ZM6.33335 1.66667C5.5377 1.66667 4.77464 1.98274 4.21203 2.54535C3.64942 3.10796 3.33335 3.87102 3.33335 4.66667V12C3.33335 13.6583 4.67502 15 6.33335 15H13.6667C14.4623 15 15.2254 14.6839 15.788 14.1213C16.3506 13.5587 16.6667 12.7956 16.6667 12V4.66667C16.6667 3.00833 15.325 1.66667 13.6667 1.66667H6.33335ZM14.375 2.91667C14.6513 2.91667 14.9162 3.02641 15.1116 3.22176C15.3069 3.41711 15.4167 3.68207 15.4167 3.95833C15.4167 4.2346 15.3069 4.49955 15.1116 4.6949C14.9162 4.89025 14.6513 5 14.375 5C14.0988 5 13.8338 4.89025 13.6384 4.6949C13.4431 4.49955 13.3334 4.2346 13.3334 3.95833C13.3334 3.68207 13.4431 3.41711 13.6384 3.22176C13.8338 3.02641 14.0988 2.91667 14.375 2.91667ZM10 4.16667C11.1051 4.16667 12.1649 4.60565 12.9463 5.38705C13.7277 6.16846 14.1667 7.22826 14.1667 8.33333C14.1667 9.4384 13.7277 10.4982 12.9463 11.2796C12.1649 12.061 11.1051 12.5 10 12.5C8.89495 12.5 7.83514 12.061 7.05374 11.2796C6.27234 10.4982 5.83335 9.4384 5.83335 8.33333C5.83335 7.22826 6.27234 6.16846 7.05374 5.38705C7.83514 4.60565 8.89495 4.16667 10 4.16667ZM10 5.83333C9.33698 5.83333 8.70109 6.09672 8.23225 6.56556C7.76341 7.03441 7.50002 7.67029 7.50002 8.33333C7.50002 8.99637 7.76341 9.63226 8.23225 10.1011C8.70109 10.5699 9.33698 10.8333 10 10.8333C10.6631 10.8333 11.2989 10.5699 11.7678 10.1011C12.2366 9.63226 12.5 8.99637 12.5 8.33333C12.5 7.67029 12.2366 7.03441 11.7678 6.56556C11.2989 6.09672 10.6631 5.83333 10 5.83333Z" fill="white"/>
</svg>