<svg xmlns="http://www.w3.org/2000/svg" xmlns:xlink="http://www.w3.org/1999/xlink" width="500" zoomAndPan="magnify" viewBox="0 0 375 374.999991" height="500" preserveAspectRatio="xMidYMid meet" version="1.0"><defs><g/><clipPath id="773a9db339"><path d="M 118 290.285156 L 326.214844 290.285156 L 326.214844 337.082031 L 118 337.082031 Z M 118 290.285156 " clip-rule="nonzero"/></clipPath><clipPath id="c731e23df0"><path d="M 48.824219 296.101562 L 271.234375 296.101562 L 271.234375 345.203125 L 48.824219 345.203125 Z M 48.824219 296.101562 " clip-rule="nonzero"/></clipPath><clipPath id="eb5a915364"><path d="M 227 90.953125 L 241 90.953125 L 241 104 L 227 104 Z M 227 90.953125 " clip-rule="nonzero"/></clipPath></defs><path fill="#6bc30d" d="M 80.878906 329.066406 C 80.878906 329.066406 81.546875 328.652344 82.820312 327.867188 C 84.101562 327.09375 85.972656 325.910156 88.433594 324.46875 C 93.421875 321.734375 100.675781 317.703125 110.1875 313.882812 C 114.65625 312.046875 119.605469 310.210938 124.984375 308.484375 C 134.679688 305.878906 145.054688 303.734375 155.867188 302.175781 C 169.246094 300.246094 182.230469 299.386719 194.308594 299.386719 C 196.535156 299.386719 198.726562 299.414062 200.886719 299.472656 C 208.167969 299.640625 215.0625 300.097656 221.480469 300.738281 C 221.765625 300.78125 222.050781 300.828125 222.335938 300.871094 C 224.09375 301.148438 225.835938 301.417969 227.558594 301.691406 C 229.269531 302.011719 230.957031 302.363281 232.625 302.695312 C 245.96875 305.390625 257.664062 309.128906 267.179688 312.910156 C 268.371094 313.378906 269.535156 313.835938 270.667969 314.285156 C 271.789062 314.761719 272.867188 315.257812 273.921875 315.722656 C 274.972656 316.191406 275.992188 316.648438 276.984375 317.09375 C 277.976562 317.53125 278.9375 317.957031 279.835938 318.425781 C 283.464844 320.253906 286.609375 321.769531 289.066406 323.222656 C 290.308594 323.921875 291.410156 324.542969 292.367188 325.082031 C 292.84375 325.351562 293.28125 325.601562 293.683594 325.828125 C 294.078125 326.070312 294.433594 326.292969 294.753906 326.492188 C 296.019531 327.289062 296.6875 327.710938 296.6875 327.710938 C 296.6875 327.710938 295.976562 327.375 294.625 326.734375 C 294.285156 326.574219 293.910156 326.394531 293.492188 326.199219 C 293.066406 326.015625 292.601562 325.820312 292.097656 325.605469 C 291.09375 325.171875 289.933594 324.675781 288.628906 324.117188 C 286.050781 322.9375 282.78125 321.75 279.042969 320.277344 C 278.117188 319.898438 277.128906 319.566406 276.113281 319.21875 C 275.097656 318.867188 274.050781 318.507812 272.976562 318.136719 C 271.898438 317.765625 270.800781 317.371094 269.660156 316.992188 C 268.511719 316.640625 267.332031 316.28125 266.121094 315.914062 C 256.480469 312.933594 244.808594 310.035156 231.671875 307.984375 C 230.03125 307.730469 228.367188 307.46875 226.6875 307.210938 C 224.996094 307.007812 223.289062 306.804688 221.5625 306.601562 C 221.195312 306.554688 220.828125 306.511719 220.460938 306.464844 C 219.585938 306.292969 218.691406 306.117188 217.777344 305.941406 C 216.128906 305.691406 214.421875 305.433594 212.667969 305.167969 C 211.789062 305.039062 210.894531 304.910156 209.992188 304.78125 C 209.539062 304.71875 209.082031 304.644531 208.625 304.589844 C 208.164062 304.546875 207.699219 304.5 207.234375 304.453125 C 203.496094 304.105469 199.570312 303.65625 195.480469 303.558594 C 194.460938 303.519531 193.429688 303.480469 192.390625 303.4375 C 191.871094 303.421875 191.347656 303.402344 190.824219 303.386719 L 190.035156 303.359375 L 189.246094 303.367188 C 187.132812 303.390625 184.992188 303.421875 182.820312 303.464844 C 181.738281 303.496094 180.65625 303.5 179.589844 303.558594 C 178.519531 303.632812 177.460938 303.707031 176.40625 303.785156 C 174.296875 303.941406 172.222656 304.105469 170.1875 304.277344 C 168.15625 304.515625 166.167969 304.792969 164.21875 305.054688 C 162.273438 305.335938 160.363281 305.542969 158.523438 305.929688 C 154.816406 306.589844 151.324219 307.328125 148.078125 308.105469 C 147.253906 308.234375 146.441406 308.371094 145.632812 308.507812 C 132.523438 310.71875 120.898438 313.78125 111.289062 316.871094 C 101.644531 319.890625 94.121094 323.164062 88.882812 325.355469 C 83.730469 327.742188 80.878906 329.066406 80.878906 329.066406 " fill-opacity="1" fill-rule="nonzero"/><path fill="#009bdb" d="M 122.015625 316.738281 C 122.015625 316.738281 122.414062 316.558594 123.167969 316.214844 C 123.542969 316.035156 124.019531 315.851562 124.582031 315.628906 C 125.148438 315.410156 125.800781 315.15625 126.53125 314.871094 C 128 314.304688 129.804688 313.617188 131.90625 312.832031 C 134.023438 312.101562 136.464844 311.355469 139.164062 310.503906 C 141.863281 309.691406 144.847656 308.878906 148.078125 308.105469 C 160.539062 306.113281 174.253906 304.890625 188.628906 304.785156 C 189.109375 304.777344 189.585938 304.765625 190.0625 304.757812 C 190.539062 304.765625 191.015625 304.773438 191.492188 304.78125 C 192.445312 304.796875 193.394531 304.816406 194.339844 304.832031 C 196.230469 304.871094 198.109375 304.867188 199.972656 304.9375 C 201.835938 305.03125 203.683594 305.125 205.519531 305.21875 C 206.4375 305.265625 207.351562 305.308594 208.261719 305.351562 C 209.171875 305.394531 210.074219 305.5 210.972656 305.570312 C 212.773438 305.722656 214.558594 305.875 216.324219 306.023438 C 216.765625 306.0625 217.207031 306.097656 217.648438 306.132812 C 218.089844 306.167969 218.523438 306.234375 218.960938 306.285156 C 219.460938 306.34375 219.960938 306.40625 220.460938 306.464844 C 222.726562 306.917969 224.859375 307.359375 226.855469 307.78125 C 229.601562 308.472656 232.074219 309.117188 234.238281 309.695312 C 234.78125 309.84375 235.308594 309.964844 235.804688 310.125 C 236.300781 310.28125 236.78125 310.429688 237.238281 310.574219 C 238.152344 310.863281 238.988281 311.128906 239.742188 311.371094 C 241.234375 311.859375 242.398438 312.238281 243.1875 312.496094 C 243.976562 312.75 244.378906 312.917969 244.378906 312.917969 C 244.378906 312.917969 243.953125 312.847656 243.125 312.761719 C 242.300781 312.667969 241.085938 312.523438 239.527344 312.34375 C 238.75 312.246094 237.882812 312.136719 236.9375 312.019531 C 236.464844 311.957031 235.972656 311.894531 235.460938 311.832031 C 234.949219 311.761719 234.410156 311.726562 233.855469 311.671875 C 231.640625 311.464844 229.125 311.21875 226.355469 310.925781 C 223.566406 310.746094 220.523438 310.519531 217.265625 310.265625 C 215.632812 310.191406 213.941406 310.117188 212.203125 310.039062 C 211.335938 309.996094 210.453125 309.949219 209.5625 309.902344 C 209.113281 309.882812 208.667969 309.847656 208.214844 309.835938 C 207.761719 309.828125 207.304688 309.820312 206.847656 309.8125 C 203.785156 309.777344 200.605469 309.632812 197.324219 309.632812 C 196.667969 309.632812 196.007812 309.636719 195.34375 309.652344 C 194.347656 309.652344 193.34375 309.652344 192.328125 309.652344 C 191.824219 309.648438 191.3125 309.648438 190.804688 309.644531 L 190.035156 309.636719 L 189.265625 309.664062 C 187.210938 309.734375 185.125 309.789062 183.011719 309.832031 C 181.957031 309.859375 180.90625 309.859375 179.863281 309.902344 C 178.824219 309.957031 177.789062 310.015625 176.761719 310.070312 C 174.710938 310.179688 172.6875 310.269531 170.695312 310.351562 C 168.710938 310.503906 166.757812 310.652344 164.847656 310.800781 C 162.9375 310.957031 161.054688 311.023438 159.238281 311.257812 C 151.941406 311.957031 145.371094 312.773438 139.859375 313.609375 C 137.113281 314.0625 134.609375 314.417969 132.414062 314.78125 C 130.238281 315.203125 128.355469 315.550781 126.808594 315.828125 C 126.035156 315.964844 125.347656 316.089844 124.753906 316.195312 C 124.15625 316.296875 123.648438 316.382812 123.246094 316.476562 C 122.441406 316.648438 122.015625 316.738281 122.015625 316.738281 " fill-opacity="1" fill-rule="nonzero"/><path fill="#00770b" d="M 148.078125 308.105469 C 151.324219 307.328125 154.816406 306.589844 158.523438 305.929688 C 160.363281 305.542969 162.273438 305.335938 164.21875 305.054688 C 166.167969 304.792969 168.15625 304.515625 170.1875 304.277344 C 172.222656 304.105469 174.296875 303.941406 176.40625 303.785156 C 177.460938 303.707031 178.519531 303.632812 179.589844 303.558594 C 180.65625 303.5 181.738281 303.496094 182.820312 303.464844 C 184.992188 303.421875 187.132812 303.390625 189.246094 303.367188 L 190.035156 303.359375 L 190.824219 303.386719 C 191.347656 303.402344 191.871094 303.421875 192.390625 303.4375 C 193.429688 303.480469 194.460938 303.519531 195.480469 303.558594 C 199.570312 303.65625 203.496094 304.105469 207.234375 304.453125 C 207.699219 304.5 208.164062 304.546875 208.625 304.589844 C 209.082031 304.644531 209.539062 304.71875 209.992188 304.78125 C 210.894531 304.910156 211.789062 305.039062 212.667969 305.167969 C 214.421875 305.433594 216.128906 305.691406 217.777344 305.941406 C 218.691406 306.117188 219.585938 306.292969 220.460938 306.464844 C 219.960938 306.40625 219.460938 306.34375 218.960938 306.285156 C 218.523438 306.234375 218.089844 306.167969 217.648438 306.132812 C 217.207031 306.097656 216.765625 306.0625 216.324219 306.023438 C 214.558594 305.875 212.773438 305.722656 210.972656 305.570312 C 210.074219 305.5 209.171875 305.394531 208.261719 305.351562 C 207.351562 305.308594 206.4375 305.265625 205.519531 305.21875 C 203.683594 305.125 201.835938 305.03125 199.972656 304.9375 C 198.109375 304.867188 196.230469 304.871094 194.339844 304.832031 C 193.394531 304.816406 192.445312 304.796875 191.492188 304.78125 C 191.015625 304.773438 190.539062 304.765625 190.0625 304.757812 C 189.585938 304.765625 189.109375 304.777344 188.628906 304.785156 C 174.253906 304.890625 160.539062 306.113281 148.078125 308.105469 " fill-opacity="1" fill-rule="nonzero"/><g clip-path="url(#773a9db339)"><path fill="#df1b7d" d="M 326.214844 337.023438 C 326.214844 337.023438 323.625 335.347656 318.953125 332.324219 C 314.171875 329.492188 307.328125 325.292969 298.414062 321.082031 C 289.535156 316.808594 278.714844 312.324219 266.378906 308.441406 C 265.613281 308.191406 264.839844 307.941406 264.0625 307.6875 C 263.945312 307.652344 263.832031 307.621094 263.71875 307.585938 C 263.347656 307.441406 262.957031 307.300781 262.558594 307.164062 C 261.152344 306.660156 259.589844 306.097656 257.878906 305.484375 C 257.023438 305.183594 256.128906 304.855469 255.195312 304.535156 C 254.253906 304.242188 253.277344 303.941406 252.261719 303.625 C 251.246094 303.3125 250.195312 302.988281 249.113281 302.65625 C 248.570312 302.488281 248.019531 302.320312 247.460938 302.148438 C 247.179688 302.0625 246.894531 301.976562 246.613281 301.890625 C 246.324219 301.8125 246.035156 301.738281 245.746094 301.660156 C 243.410156 301.050781 240.945312 300.40625 238.355469 299.730469 C 227.941406 297.238281 215.308594 295.039062 201.125 294.101562 C 196.417969 293.777344 191.539062 293.601562 186.523438 293.601562 C 176.449219 293.601562 165.832031 294.300781 154.960938 295.867188 C 143.371094 297.539062 132.304688 300.070312 122.085938 303.222656 C 121.375 303.378906 120.753906 303.515625 120.222656 303.632812 C 119.511719 303.792969 118.980469 303.949219 118.617188 304.039062 C 118.253906 304.132812 118.070312 304.179688 118.070312 304.179688 C 118.070312 304.179688 118.246094 304.109375 118.59375 303.972656 C 118.945312 303.839844 119.457031 303.613281 120.144531 303.371094 C 121.527344 302.898438 123.5625 302.199219 126.183594 301.300781 C 127.5 300.867188 128.953125 300.324219 130.578125 299.882812 C 132.203125 299.414062 133.96875 298.90625 135.863281 298.359375 C 136.8125 298.089844 137.792969 297.8125 138.808594 297.523438 C 139.835938 297.28125 140.890625 297.027344 141.980469 296.769531 C 144.160156 296.257812 146.460938 295.695312 148.890625 295.160156 C 158.632812 293.164062 170.402344 291.417969 183.578125 290.785156 C 187.097656 290.609375 190.710938 290.515625 194.414062 290.515625 C 204.566406 290.515625 215.355469 291.214844 226.429688 292.828125 C 227.375 292.960938 228.316406 293.09375 229.257812 293.226562 C 230.191406 293.398438 231.121094 293.5625 232.050781 293.730469 C 233.902344 294.074219 235.746094 294.410156 237.574219 294.746094 C 238.492188 294.902344 239.390625 295.121094 240.292969 295.324219 C 241.191406 295.527344 242.089844 295.734375 242.980469 295.9375 C 244.765625 296.355469 246.542969 296.734375 248.285156 297.183594 C 250.023438 297.664062 251.742188 298.140625 253.449219 298.609375 C 255.152344 299.085938 256.84375 299.527344 258.484375 300.089844 C 260.132812 300.625 261.765625 301.15625 263.378906 301.683594 C 264.179688 301.949219 264.984375 302.199219 265.773438 302.480469 C 266.5625 302.773438 267.339844 303.066406 268.117188 303.351562 C 280.558594 307.902344 291.28125 313.226562 299.914062 318.269531 C 302.058594 319.566406 304.105469 320.78125 306.011719 321.972656 C 307.882812 323.226562 309.648438 324.40625 311.300781 325.511719 C 312.964844 326.589844 314.425781 327.730469 315.796875 328.734375 C 317.160156 329.75 318.402344 330.675781 319.523438 331.507812 C 321.699219 333.261719 323.363281 334.65625 324.492188 335.589844 C 325.621094 336.527344 326.214844 337.023438 326.214844 337.023438 " fill-opacity="1" fill-rule="nonzero"/></g><g clip-path="url(#c731e23df0)"><path fill="#fdc800" d="M 48.824219 345.207031 C 48.824219 345.207031 49.433594 344.652344 50.597656 343.589844 C 51.179688 343.0625 51.902344 342.40625 52.757812 341.632812 C 53.1875 341.25 53.648438 340.832031 54.140625 340.386719 C 54.390625 340.164062 54.644531 339.9375 54.910156 339.699219 C 55.039062 339.582031 55.171875 339.460938 55.308594 339.339844 C 55.449219 339.226562 55.59375 339.109375 55.738281 338.992188 C 56.902344 338.046875 58.195312 336.996094 59.613281 335.847656 C 60.324219 335.277344 61.0625 334.675781 61.835938 334.054688 C 62.609375 333.4375 63.457031 332.859375 64.3125 332.222656 C 66.042969 330.976562 67.871094 329.609375 69.859375 328.230469 C 71.886719 326.90625 74.03125 325.511719 76.28125 324.046875 C 85.40625 318.375 96.820312 312.40625 110.144531 307.335938 C 113.972656 305.871094 117.960938 304.496094 122.085938 303.222656 C 123.289062 302.957031 124.75 302.636719 126.445312 302.261719 C 127.796875 301.972656 129.28125 301.585938 130.941406 301.3125 C 132.589844 301.011719 134.382812 300.679688 136.308594 300.324219 C 137.269531 300.148438 138.265625 299.964844 139.289062 299.773438 C 140.324219 299.625 141.390625 299.46875 142.484375 299.308594 C 144.679688 298.996094 146.992188 298.636719 149.421875 298.300781 C 159.167969 297.109375 170.808594 296.1875 183.714844 296.15625 C 184.066406 296.15625 184.425781 296.15625 184.777344 296.15625 C 197.394531 296.15625 211.191406 297.046875 225.503906 299.132812 C 226.421875 299.257812 227.339844 299.386719 228.253906 299.511719 C 229.164062 299.671875 230.074219 299.832031 230.976562 299.992188 C 232.785156 300.304688 234.582031 300.617188 236.367188 300.925781 C 237.261719 301.066406 238.140625 301.269531 239.019531 301.453125 C 239.902344 301.636719 240.777344 301.820312 241.648438 302.003906 C 243.394531 302.378906 245.132812 302.710938 246.839844 303.109375 C 248.546875 303.527344 250.234375 303.945312 251.90625 304.359375 C 253.578125 304.773438 255.246094 305.148438 256.863281 305.640625 C 258.488281 306.101562 260.097656 306.558594 261.6875 307.011719 C 262.367188 307.207031 263.046875 307.386719 263.71875 307.585938 C 264.648438 307.945312 265.488281 308.304688 266.25 308.609375 C 267.3125 309.046875 268.210938 309.417969 268.9375 309.714844 C 270.386719 310.316406 271.148438 310.632812 271.148438 310.632812 C 271.148438 310.632812 270.355469 310.40625 268.84375 309.972656 C 268.09375 309.757812 267.160156 309.488281 266.0625 309.167969 C 264.957031 308.855469 263.703125 308.449219 262.253906 308.109375 C 260.8125 307.746094 259.210938 307.34375 257.457031 306.902344 C 256.582031 306.679688 255.671875 306.449219 254.722656 306.210938 C 253.765625 306.007812 252.769531 305.792969 251.738281 305.574219 C 250.710938 305.351562 249.648438 305.121094 248.546875 304.882812 C 248 304.765625 247.441406 304.644531 246.875 304.523438 C 246.59375 304.460938 246.308594 304.398438 246.019531 304.335938 C 245.730469 304.285156 245.441406 304.234375 245.148438 304.179688 C 242.800781 303.761719 240.324219 303.316406 237.71875 302.851562 C 232.75 302.050781 227.316406 301.320312 221.480469 300.738281 C 220.882812 300.644531 220.28125 300.554688 219.679688 300.457031 C 219.234375 300.394531 218.789062 300.3125 218.339844 300.261719 C 217.886719 300.210938 217.4375 300.160156 216.988281 300.109375 C 215.179688 299.90625 213.351562 299.703125 211.511719 299.5 C 210.589844 299.40625 209.667969 299.277344 208.734375 299.214844 C 207.800781 299.148438 206.863281 299.085938 205.921875 299.019531 C 204.042969 298.894531 202.144531 298.769531 200.234375 298.644531 C 198.324219 298.550781 196.394531 298.535156 194.453125 298.480469 C 193.480469 298.460938 192.507812 298.4375 191.53125 298.417969 C 191.042969 298.40625 190.554688 298.398438 190.0625 298.386719 C 189.574219 298.398438 189.082031 298.40625 188.589844 298.417969 C 172.859375 298.527344 157.90625 300.355469 144.613281 303.230469 C 137.578125 304.742188 131.011719 306.542969 124.984375 308.484375 C 120.484375 309.691406 116.128906 311 111.949219 312.398438 C 98.753906 316.789062 87.246094 321.910156 77.871094 326.808594 C 75.546875 328.074219 73.332031 329.28125 71.238281 330.425781 C 69.171875 331.621094 67.257812 332.8125 65.445312 333.890625 C 64.546875 334.441406 63.65625 334.941406 62.835938 335.480469 C 62.019531 336.023438 61.234375 336.546875 60.480469 337.046875 C 58.96875 338.046875 57.589844 338.960938 56.34375 339.78125 C 51.503906 343.273438 48.824219 345.207031 48.824219 345.207031 " fill-opacity="1" fill-rule="nonzero"/></g><path fill="#6a9900" d="M 124.984375 308.484375 C 131.011719 306.542969 137.578125 304.742188 144.613281 303.230469 C 157.90625 300.355469 172.859375 298.527344 188.589844 298.417969 C 189.082031 298.40625 189.574219 298.398438 190.0625 298.386719 C 190.554688 298.398438 191.042969 298.40625 191.53125 298.417969 C 192.507812 298.4375 193.480469 298.460938 194.453125 298.480469 C 196.394531 298.535156 198.324219 298.550781 200.234375 298.644531 C 202.144531 298.769531 204.042969 298.894531 205.921875 299.019531 C 206.863281 299.085938 207.800781 299.148438 208.734375 299.214844 C 209.667969 299.277344 210.589844 299.40625 211.511719 299.5 C 213.351562 299.703125 215.179688 299.90625 216.988281 300.109375 C 217.4375 300.160156 217.886719 300.210938 218.339844 300.261719 C 218.789062 300.3125 219.234375 300.394531 219.679688 300.457031 C 220.28125 300.554688 220.882812 300.644531 221.480469 300.738281 C 215.0625 300.097656 208.167969 299.640625 200.886719 299.472656 C 198.726562 299.414062 196.535156 299.386719 194.308594 299.386719 C 182.230469 299.386719 169.246094 300.246094 155.867188 302.175781 C 145.054688 303.734375 134.679688 305.878906 124.984375 308.484375 " fill-opacity="1" fill-rule="nonzero"/><path fill="#dd1500" d="M 263.71875 307.585938 C 263.046875 307.386719 262.367188 307.207031 261.6875 307.011719 C 260.097656 306.558594 258.488281 306.101562 256.863281 305.640625 C 255.246094 305.148438 253.578125 304.773438 251.90625 304.359375 C 250.234375 303.945312 248.546875 303.527344 246.839844 303.109375 C 245.132812 302.710938 243.394531 302.378906 241.648438 302.003906 C 240.777344 301.820312 239.902344 301.636719 239.019531 301.453125 C 238.140625 301.269531 237.261719 301.066406 236.367188 300.925781 C 234.582031 300.617188 232.785156 300.304688 230.976562 299.992188 C 230.074219 299.832031 229.164062 299.671875 228.253906 299.511719 C 227.339844 299.386719 226.421875 299.257812 225.503906 299.132812 C 211.191406 297.046875 197.394531 296.15625 184.777344 296.15625 C 184.425781 296.15625 184.066406 296.15625 183.714844 296.15625 C 170.808594 296.1875 159.167969 297.109375 149.421875 298.300781 C 146.992188 298.636719 144.679688 298.996094 142.484375 299.308594 C 141.390625 299.46875 140.324219 299.625 139.289062 299.773438 C 138.265625 299.964844 137.269531 300.148438 136.308594 300.324219 C 134.382812 300.679688 132.589844 301.011719 130.941406 301.3125 C 129.28125 301.585938 127.796875 301.972656 126.445312 302.261719 C 124.75 302.636719 123.289062 302.957031 122.085938 303.222656 C 132.304688 300.070312 143.371094 297.539062 154.960938 295.867188 C 165.832031 294.300781 176.449219 293.601562 186.523438 293.601562 C 191.539062 293.601562 196.417969 293.777344 201.125 294.101562 C 215.308594 295.039062 227.941406 297.238281 238.355469 299.730469 C 240.945312 300.40625 243.410156 301.050781 245.746094 301.660156 C 246.035156 301.738281 246.324219 301.8125 246.613281 301.890625 C 246.894531 301.976562 247.179688 302.0625 247.460938 302.148438 C 248.019531 302.320312 248.570312 302.488281 249.113281 302.65625 C 250.195312 302.988281 251.246094 303.3125 252.261719 303.625 C 253.277344 303.941406 254.253906 304.242188 255.195312 304.535156 C 256.128906 304.855469 257.023438 305.183594 257.878906 305.484375 C 259.589844 306.097656 261.152344 306.660156 262.558594 307.164062 C 262.957031 307.300781 263.347656 307.441406 263.71875 307.585938 " fill-opacity="1" fill-rule="nonzero"/><path fill="#009bdb" d="M 195.894531 126.007812 C 194.460938 124.527344 191.636719 128.792969 191.191406 128.332031 C 190.210938 127.3125 194.964844 120.582031 193.050781 119.722656 C 191.152344 118.871094 189.558594 126.539062 188.699219 126.109375 C 187.503906 125.515625 190.046875 116.417969 188.710938 115.957031 C 186.496094 115.1875 186.050781 125.347656 185.347656 125.59375 C 183.550781 126.234375 185.402344 118.804688 183.34375 118.542969 C 181.847656 118.347656 182.414062 125.09375 181.699219 128.464844 C 181.367188 130.042969 177.988281 123.3125 176.949219 126.519531 C 176.605469 127.582031 178.859375 131.257812 179.226562 134.007812 C 179.449219 135.660156 179.519531 137.179688 179.347656 138.742188 C 179.039062 140.925781 177.945312 145.777344 174.113281 150.742188 C 173.019531 152.160156 172.273438 153.496094 171.792969 154.765625 L 171.789062 154.765625 C 170.949219 155.980469 170.191406 157.097656 169.472656 158.152344 L 168.03125 157.621094 C 168.03125 157.621094 163.984375 165.480469 161.972656 167.511719 C 161.523438 167.972656 160.816406 168.617188 160 169.34375 C 161.027344 163.222656 160.6875 158.160156 155.605469 154.828125 C 153.148438 153.214844 150.09375 147.328125 148.230469 146.042969 C 147.628906 145.625 147.125 145.316406 146.65625 145.070312 C 146.90625 144.269531 147.054688 143.503906 147.082031 142.792969 C 147.492188 133.195312 136.59375 134.058594 136.59375 134.058594 C 139.875 135.691406 140.363281 137.808594 137.769531 138.867188 C 132.453125 141.042969 125.773438 143.59375 120.265625 153.679688 C 118.046875 157.75 116.898438 162.230469 117.472656 165.511719 C 116.03125 165.113281 114.460938 164.308594 114.046875 162.683594 C 114.046875 162.683594 112.359375 168.808594 120.472656 169.765625 C 120.472656 169.765625 117.289062 171.417969 120.578125 176.523438 C 120.578125 176.523438 120.785156 174.570312 121.753906 172.773438 C 123.125 175.375 125.964844 177.683594 128.660156 179.441406 C 133.777344 182.773438 139.171875 183.351562 139.171875 183.351562 C 140.726562 183.753906 142.320312 184.011719 143.910156 184.082031 C 143.78125 184.199219 143.65625 184.320312 143.53125 184.441406 C 141.757812 185.351562 137.066406 188.207031 133.089844 194.488281 C 133.089844 194.488281 129.3125 202.515625 127.664062 207.296875 C 127.664062 207.296875 127.980469 207.660156 128.515625 208.242188 C 128.371094 208.640625 128.234375 209.023438 128.109375 209.386719 C 127.054688 210.925781 126.285156 212.957031 125.964844 215.6875 C 125.230469 221.917969 122.617188 226.148438 121.3125 227.925781 C 120.34375 229.164062 119.226562 230.203125 117.914062 231.230469 C 115.726562 232.941406 111.539062 233.996094 111.042969 234.996094 C 109.542969 238.015625 116.667969 235.558594 115.804688 236.921875 C 113.957031 239.828125 108.832031 244.257812 110.035156 245.167969 C 111.695312 246.414062 115.566406 239.808594 116.40625 241.519531 C 116.734375 242.183594 109.945312 249.761719 112.066406 250.757812 C 113.347656 251.359375 117.890625 243.078125 119.164062 243.488281 C 120.078125 243.78125 115.851562 250.378906 117.808594 251.09375 C 119.78125 251.816406 121.085938 243.679688 122.5 243.636719 C 123.144531 243.617188 122.175781 248.640625 124.238281 248.582031 C 124.835938 248.566406 124.992188 247.046875 125.328125 242.796875 C 125.628906 239.039062 127.015625 238.523438 127.519531 233.976562 C 127.5625 233.605469 128.203125 232.585938 129.0625 231.335938 C 129.234375 231.128906 129.40625 230.914062 129.585938 230.691406 C 133.0625 226.332031 135.378906 222.3125 136.898438 218.878906 C 137.0625 218.664062 137.230469 218.433594 137.410156 218.171875 C 137.679688 217.78125 137.941406 217.402344 138.199219 217.027344 C 138.851562 217.421875 139.453125 217.703125 139.96875 217.820312 C 139.96875 217.820312 143.425781 210.277344 146.742188 213.527344 C 147.234375 214.238281 147.675781 215.109375 148.1875 216 C 150.585938 220.199219 150.691406 224.5 150.132812 230.03125 C 149.632812 232.066406 148.722656 234.601562 147.109375 237.65625 C 143.867188 243.792969 144.550781 247.554688 146.585938 251.550781 C 145.550781 258.171875 144.066406 265.625 142.351562 268.277344 C 139.011719 273.4375 138.917969 280.332031 138.917969 280.332031 C 138.917969 280.332031 139.222656 280.605469 139.765625 281.019531 C 138.980469 284.222656 138.503906 287.570312 136.785156 290.589844 C 135.96875 292.019531 134.761719 293.300781 132.421875 296.199219 C 129.363281 299.992188 131.019531 302.648438 133.863281 303.082031 C 134.800781 303.222656 136.355469 303.84375 137.355469 304.496094 C 142.066406 307.570312 149.039062 309.179688 149.871094 307.203125 C 150.945312 304.664062 147.300781 302.480469 144.277344 299.605469 C 139.917969 295.464844 144.890625 290.46875 148.097656 285.027344 C 149.183594 285.21875 150.296875 285.261719 151.398438 285.082031 C 154.046875 284.640625 157.246094 271.683594 157.246094 271.683594 L 156.386719 278.882812 C 156.386719 278.882812 157.113281 279.253906 158.253906 279.78125 C 158.8125 283.28125 159.914062 286.769531 159.542969 290.5 C 159.378906 292.132812 158.792969 293.792969 157.832031 297.390625 C 156.574219 302.097656 159.167969 303.851562 161.941406 303.097656 C 162.859375 302.847656 164.519531 302.914062 165.710938 302.976562 C 172 303.316406 178.292969 302.53125 178.253906 300.386719 C 178.203125 297.628906 173.980469 297.105469 170.054688 295.703125 C 165.035156 293.914062 166.433594 288.554688 167.324219 282.996094 C 168.945312 283.296875 170.328125 283.28125 171.097656 282.683594 C 171.097656 282.683594 173.855469 267.570312 176.175781 258.492188 C 177.074219 254.984375 177.6875 252.304688 178.054688 250.3125 C 179.652344 247.074219 181.183594 243.851562 182.210938 240.414062 L 182.210938 240.410156 C 186.050781 229.519531 181.777344 217.6875 176.046875 205.519531 C 174.207031 201.613281 173.371094 197.449219 173.085938 193.601562 C 173.085938 193.601562 172.949219 180.683594 178.8125 172.753906 C 183.175781 166.859375 183.773438 162.441406 183.773438 162.441406 L 182.109375 160.695312 C 184.160156 156.855469 186.351562 150.890625 187.199219 142.535156 C 187.230469 142.25 187.253906 141.980469 187.277344 141.710938 C 187.539062 140.214844 187.792969 139.039062 188.019531 138.746094 C 190.84375 135.140625 190.210938 133.804688 192.628906 130.90625 C 195.359375 127.632812 196.3125 126.433594 195.894531 126.007812 " fill-opacity="1" fill-rule="nonzero"/><path fill="#df1b7d" d="M 277.582031 206.550781 C 266.578125 205.929688 269.261719 192.421875 261.234375 189 C 261.128906 188.507812 260.925781 188.027344 260.609375 187.589844 C 260.140625 186.941406 259.496094 186.488281 258.789062 186.246094 C 258.722656 185.835938 258.566406 185.4375 258.308594 185.078125 C 257.738281 184.289062 256.828125 183.898438 255.921875 183.953125 C 255.835938 183.761719 255.742188 183.582031 255.640625 183.417969 C 250.132812 174.464844 240.949219 172.5625 235.578125 174.910156 C 233.222656 175.9375 230.820312 177.746094 228.46875 180.816406 C 228.367188 180.941406 227.804688 181.824219 229.707031 184.460938 C 228.808594 185.796875 227.910156 187.023438 226.925781 187.84375 C 224.144531 190.148438 223.160156 193.15625 223.59375 196.515625 C 222.792969 195.796875 222.089844 195.148438 221.667969 194.710938 C 220.058594 193.058594 216.851562 186.691406 216.851562 186.691406 L 215.683594 187.109375 C 215.113281 186.253906 214.507812 185.347656 213.839844 184.359375 C 213.460938 183.332031 212.867188 182.25 211.996094 181.097656 C 208.9375 177.066406 208.089844 173.144531 207.859375 171.382812 C 207.730469 170.121094 207.796875 168.894531 207.988281 167.5625 C 208.304688 165.347656 210.148438 162.398438 209.878906 161.539062 C 209.066406 158.945312 206.289062 164.351562 206.03125 163.074219 C 205.480469 160.351562 205.984375 154.914062 204.777344 155.058594 C 203.113281 155.257812 204.558594 161.261719 203.109375 160.734375 C 202.546875 160.53125 202.257812 152.332031 200.46875 152.9375 C 199.386719 153.300781 201.371094 160.65625 200.40625 161.128906 C 199.707031 161.46875 198.476562 155.269531 196.9375 155.945312 C 195.386719 156.625 199.175781 162.085938 198.378906 162.902344 C 198.015625 163.273438 195.769531 159.808594 194.601562 160.992188 C 194.261719 161.335938 195.023438 162.308594 197.199219 164.96875 C 199.128906 167.324219 198.609375 168.394531 200.859375 171.324219 C 201.042969 171.5625 201.238281 172.511719 201.4375 173.722656 C 201.457031 173.9375 201.476562 174.15625 201.496094 174.386719 C 202.121094 181.132812 203.84375 185.957031 205.472656 189.070312 L 204.121094 190.464844 C 204.121094 190.464844 204.570312 194.035156 208.046875 198.820312 C 212.722656 205.257812 212.519531 215.675781 212.519531 215.675781 C 212.261719 218.78125 211.558594 222.128906 210.046875 225.269531 C 205.339844 235.042969 201.933594 243.527344 204.019531 249.414062 C 204.214844 251.078125 204.589844 252.667969 205.082031 254.207031 C 205.949219 257.695312 207.386719 262.742188 209.535156 268.191406 C 212.277344 275.160156 213.421875 287.5625 213.421875 287.5625 C 214.011719 288.03125 215.195312 288.371094 216.660156 288.621094 C 217.324219 292.820312 218.0625 296.730469 214.242188 298.058594 C 211.0625 299.160156 207.65625 299.550781 207.597656 301.773438 C 207.550781 303.503906 212.621094 304.179688 217.695312 303.953125 C 218.65625 303.910156 219.996094 303.867188 220.734375 304.074219 C 222.964844 304.703125 225.070312 303.308594 224.089844 299.5 C 223.339844 296.59375 222.878906 295.25 222.757812 293.929688 C 222.613281 292.320312 222.804688 290.773438 223.089844 289.246094 C 225.820312 289.398438 228.269531 289.464844 229.144531 289.617188 C 230.097656 289.785156 231.0625 289.738281 232.003906 289.558594 C 234.550781 293.984375 238.5625 298.066406 235.007812 301.386719 C 232.546875 303.679688 229.59375 305.417969 230.4375 307.476562 C 231.097656 309.074219 236.734375 307.824219 240.554688 305.378906 C 241.367188 304.859375 242.625 304.367188 243.382812 304.261719 C 245.679688 303.933594 247.035156 301.800781 244.59375 298.71875 C 242.726562 296.367188 241.761719 295.324219 241.113281 294.167969 C 239.71875 291.660156 239.375 288.886719 238.734375 286.246094 C 239 286.039062 239.148438 285.910156 239.148438 285.910156 C 239.148438 285.910156 239.117188 280.398438 236.488281 276.25 C 233.855469 272.105469 234.929688 258.808594 234.929688 258.808594 C 235.285156 256.828125 235.019531 254.582031 233.71875 251.589844 C 230.78125 244.851562 230.6875 239.625 230.6875 239.484375 C 230.886719 237.515625 231.40625 235.703125 232.445312 233.921875 C 232.863281 233.203125 233.226562 232.503906 233.628906 231.9375 C 236.328125 229.335938 239.0625 235.445312 239.0625 235.445312 C 239.476562 235.355469 239.964844 235.132812 240.496094 234.820312 C 240.699219 235.121094 240.90625 235.429688 241.121094 235.75 C 241.265625 235.957031 241.398438 236.148438 241.527344 236.320312 C 242.730469 239.101562 244.570312 242.359375 247.347656 245.902344 C 247.488281 246.082031 247.625 246.253906 247.761719 246.425781 C 248.445312 247.441406 248.957031 248.265625 248.988281 248.5625 C 249.363281 252.238281 250.476562 252.660156 250.691406 255.695312 C 250.933594 259.125 251.050781 260.351562 251.53125 260.371094 C 253.191406 260.429688 252.449219 256.375 252.96875 256.394531 C 254.109375 256.4375 255.105469 263.007812 256.699219 262.441406 C 258.285156 261.878906 254.921875 256.527344 255.660156 256.296875 C 256.6875 255.976562 260.296875 262.6875 261.332031 262.210938 C 263.050781 261.421875 257.628906 255.261719 257.898438 254.726562 C 258.589844 253.351562 261.664062 258.710938 263.011719 257.714844 C 263.988281 256.992188 259.886719 253.382812 258.417969 251.023438 C 257.730469 249.917969 263.460938 251.949219 262.269531 249.503906 C 261.878906 248.695312 258.507812 247.8125 256.757812 246.417969 C 255.703125 245.578125 254.8125 244.734375 254.039062 243.730469 C 252.996094 242.285156 250.917969 238.855469 250.371094 233.824219 C 250.132812 231.617188 249.523438 229.976562 248.6875 228.726562 C 248.589844 228.433594 248.480469 228.125 248.367188 227.800781 C 248.800781 227.332031 249.058594 227.046875 249.058594 227.046875 C 247.765625 223.175781 244.773438 216.675781 244.773438 216.675781 C 241.613281 211.578125 237.847656 209.246094 236.425781 208.496094 C 235.863281 207.953125 235.289062 207.414062 234.699219 206.875 C 236.398438 207.097656 238.097656 207.082031 239.746094 206.855469 C 241.734375 208.300781 243.433594 208.707031 243.433594 208.707031 C 244.03125 205.910156 247.527344 204.4375 248.597656 203.746094 C 252.167969 201.4375 254.253906 198.511719 255.660156 195.203125 C 255.804688 194.859375 255.9375 194.480469 256.054688 194.078125 C 256.6875 194.851562 257.820312 195.011719 258.640625 194.417969 C 259.117188 194.078125 259.386719 193.554688 259.425781 193.011719 C 259.542969 192.949219 259.65625 192.875 259.765625 192.796875 C 259.929688 192.675781 260.078125 192.542969 260.21875 192.40625 C 265.542969 197.503906 263.324219 209.707031 272.605469 211.078125 C 266.65625 206.90625 267.519531 201.496094 267.519531 201.496094 C 272.582031 209.398438 277.582031 206.550781 277.582031 206.550781 " fill-opacity="1" fill-rule="nonzero"/><path fill="#008c96" d="M 280.472656 166.996094 L 278.476562 166.707031 L 277.582031 164.898438 L 276.691406 166.707031 L 274.691406 166.996094 L 276.136719 168.402344 L 275.796875 170.386719 L 277.582031 169.449219 L 279.367188 170.386719 L 279.027344 168.402344 L 280.472656 166.996094 " fill-opacity="1" fill-rule="nonzero"/><path fill="#bd2675" d="M 195.414062 220.4375 L 194.523438 218.632812 L 193.628906 220.4375 L 191.632812 220.726562 L 193.078125 222.136719 L 192.738281 224.121094 L 194.523438 223.183594 L 196.308594 224.121094 L 195.96875 222.136719 L 197.414062 220.726562 L 195.414062 220.4375 " fill-opacity="1" fill-rule="nonzero"/><path fill="#bd2675" d="M 220.546875 136.589844 L 222.140625 135.753906 L 223.738281 136.589844 L 223.433594 134.816406 L 224.722656 133.558594 L 222.941406 133.300781 L 222.140625 131.6875 L 221.34375 133.300781 L 219.558594 133.558594 L 220.851562 134.816406 L 220.546875 136.589844 " fill-opacity="1" fill-rule="nonzero"/><path fill="#008c96" d="M 241.441406 153.03125 L 240.359375 150.839844 L 239.277344 153.03125 L 236.859375 153.382812 L 238.609375 155.085938 L 238.195312 157.488281 L 240.359375 156.355469 L 242.523438 157.488281 L 242.109375 155.085938 L 243.859375 153.382812 L 241.441406 153.03125 " fill-opacity="1" fill-rule="nonzero"/><path fill="#799e3a" d="M 191.839844 182.320312 L 190.046875 185.941406 L 186.046875 186.519531 L 188.941406 189.339844 L 188.257812 193.320312 L 191.839844 191.441406 L 195.417969 193.320312 L 194.734375 189.339844 L 197.628906 186.519531 L 193.628906 185.941406 L 191.839844 182.320312 " fill-opacity="1" fill-rule="nonzero"/><path fill="#5f2777" d="M 275.253906 248.113281 L 273.464844 244.492188 L 271.675781 248.113281 L 267.675781 248.691406 L 270.570312 251.511719 L 269.886719 255.492188 L 273.464844 253.613281 L 277.042969 255.492188 L 276.359375 251.511719 L 279.257812 248.691406 L 275.253906 248.113281 " fill-opacity="1" fill-rule="nonzero"/><path fill="#fdc800" d="M 211.398438 117.78125 L 206.054688 114.976562 L 200.714844 117.78125 L 201.734375 111.839844 L 197.414062 107.632812 L 203.382812 106.769531 L 206.054688 101.363281 L 208.726562 106.769531 L 214.699219 107.632812 L 210.378906 111.839844 L 211.398438 117.78125 " fill-opacity="1" fill-rule="nonzero"/><g clip-path="url(#eb5a915364)"><path fill="#799e3a" d="M 237.023438 99.042969 L 240.359375 95.792969 L 235.746094 95.125 L 233.6875 90.953125 L 231.621094 95.125 L 227.007812 95.792969 L 230.347656 99.042969 L 229.558594 103.632812 L 233.6875 101.464844 L 237.8125 103.632812 L 237.023438 99.042969 " fill-opacity="1" fill-rule="nonzero"/></g><path fill="#ae3a91" d="M 149.277344 127.421875 L 147.648438 124.125 L 146.019531 127.421875 L 142.375 127.949219 L 145.011719 130.515625 L 144.390625 134.140625 L 147.648438 132.425781 L 150.90625 134.140625 L 150.285156 130.515625 L 152.921875 127.949219 L 149.277344 127.421875 " fill-opacity="1" fill-rule="nonzero"/><g fill="#000000" fill-opacity="1"><g transform="translate(39.230541, 192.530355)"><g><path d="M -19.011719 -12.945312 C -20.773438 -12.785156 -21.734375 -11.519531 -22.046875 -10.074219 C -22.417969 -8.355469 -21.835938 -6.390625 -20.472656 -5.878906 C -18.269531 -5.078125 -15.617188 -4.359375 -12.832031 -3.753906 C -4.476562 -1.941406 5.191406 -1.035156 8.109375 -1.195312 C 10.378906 -1.207031 11.53125 -3.367188 12.277344 -6.808594 C 12.730469 -8.90625 13.027344 -11.433594 13.355469 -14.277344 C 13.402344 -14.808594 13.25 -15.273438 12.707031 -15.425781 C 10.882812 -15.820312 9.59375 -9.871094 8.117188 -7.207031 C 7.800781 -6.589844 7.433594 -6.382812 6.847656 -6.507812 C 6.746094 -6.53125 6.648438 -6.585938 6.546875 -6.609375 C 3.628906 -7.601562 -6.824219 -10.695312 -13.632812 -12.171875 C -16.074219 -12.703125 -18.058594 -13.023438 -19.011719 -12.945312 Z M -19.011719 -12.945312 "/></g></g></g><g fill="#000000" fill-opacity="1"><g transform="translate(43.328911, 173.891347)"><g><path d="M -10.472656 -11.550781 C -12.023438 -7.023438 -8.195312 -3.441406 -3.535156 -1.84375 C 1.457031 -0.132812 7.449219 -0.679688 8.855469 -4.777344 L 8.980469 -5.140625 C 10.234375 -9.882812 6.019531 -14.191406 1.160156 -15.859375 C -3.464844 -17.445312 -8.726562 -16.644531 -10.472656 -11.550781 Z M 6.265625 -5.367188 L 6.230469 -5.265625 C 5.683594 -3.667969 1.792969 -4.144531 -1.734375 -5.355469 C -5.097656 -6.507812 -8.117188 -8.328125 -7.695312 -9.78125 L -7.660156 -9.878906 C -6.976562 -11.878906 -3.882812 -11.671875 -0.789062 -10.609375 C 2.972656 -9.320312 6.746094 -6.761719 6.265625 -5.367188 Z M 6.265625 -5.367188 "/></g></g></g><g fill="#000000" fill-opacity="1"><g transform="translate(48.317537, 158.70989)"><g><path d="M -9.789062 -6.179688 C -9.089844 -5.601562 -6.386719 -4.167969 -3.285156 -2.65625 C 0.511719 -0.808594 4.953125 1.160156 6.910156 1.800781 C 8.238281 2.210938 9.472656 1.285156 10.070312 0.0546875 C 10.640625 -1.117188 10.628906 -2.535156 9.613281 -3.261719 C 6.140625 -5.777344 2.039062 -8.363281 -1.757812 -10.367188 C -2.042969 -10.507812 -2.375 -10.628906 -2.691406 -10.785156 C -3.136719 -11 -3.546875 -11.277344 -3.851562 -11.699219 C -4.664062 -12.917969 -4.859375 -14.773438 -4.257812 -16.007812 C -3.933594 -16.671875 -3.355469 -17.132812 -2.570312 -17.222656 C -0.761719 -17.476562 1.242188 -16.851562 3.265625 -15.863281 C 6.714844 -14.183594 10.203125 -11.46875 12.515625 -10.34375 C 13.496094 -9.863281 14.253906 -9.652344 14.769531 -9.910156 C 15.144531 -10.117188 15.441406 -10.402344 15.625 -10.785156 C 15.808594 -11.164062 15.867188 -11.605469 15.863281 -12.078125 C 16.035156 -13.792969 12.078125 -17.324219 7.492188 -19.558594 C 3.347656 -21.578125 -1.320312 -22.519531 -3.761719 -19.992188 C -4.574219 -19.292969 -5.132812 -18.46875 -5.546875 -17.613281 C -6.582031 -15.496094 -6.558594 -13.292969 -6.675781 -12.644531 C -6.789062 -12.738281 -6.914062 -12.800781 -7.042969 -12.863281 C -8.402344 -13.527344 -10.214844 -12.453125 -11 -10.839844 C -11.695312 -9.414062 -11.597656 -7.605469 -9.789062 -6.179688 Z M -9.789062 -6.179688 "/></g></g></g><g fill="#000000" fill-opacity="1"><g transform="translate(57.425146, 139.88709)"><g><path d="M 0.675781 -0.183594 C 4.808594 2.558594 9.339844 2.128906 11.953125 -1.753906 C 12.109375 -1.984375 12.246094 -2.191406 12.375 -2.445312 C 13.65625 -4.847656 12.371094 -7.917969 12.390625 -7.949219 C 13.472656 -7.347656 15.203125 -6.394531 16.167969 -6.378906 C 16.65625 -6.347656 17.195312 -6.707031 17.570312 -7.261719 C 17.882812 -7.726562 18.089844 -8.351562 18.085938 -9.035156 C 18.140625 -10.820312 4.371094 -21.742188 -4.152344 -27.480469 C -6.867188 -29.308594 -9.078125 -30.625 -10.070312 -30.914062 C -11.203125 -31.25 -12.347656 -30.621094 -12.976562 -29.6875 C -13.585938 -28.78125 -13.734375 -27.609375 -13.019531 -26.660156 C -11.105469 -24.144531 -4.433594 -18.804688 0.585938 -15.425781 L 1.257812 -14.976562 C -0.207031 -14.5625 -1.570312 -13.863281 -2.875 -11.988281 L -3.050781 -11.722656 C -5.78125 -7.667969 -4.609375 -3.738281 0.558594 -0.261719 Z M 3.671875 -13.394531 C 4.839844 -12.859375 6.988281 -11.582031 8.566406 -10.519531 C 8.917969 -10.285156 9.1875 -10.058594 9.480469 -9.863281 C 10.988281 -8.636719 11.40625 -5.980469 10.363281 -4.433594 L 10.304688 -4.347656 C 8.871094 -2.34375 5.742188 -3.046875 3.203125 -4.757812 C 0.632812 -6.488281 -1.265625 -9.207031 -0.253906 -11.15625 C -0.183594 -11.320312 -0.0664062 -11.496094 0.03125 -11.640625 C 1.132812 -13.277344 2.832031 -13.785156 3.671875 -13.394531 Z M 3.671875 -13.394531 "/></g></g></g><g fill="#000000" fill-opacity="1"><g transform="translate(69.237277, 122.544384)"><g><path d="M -5.367188 -14.640625 C -8.503906 -11.027344 -6.300781 -6.269531 -2.582031 -3.035156 C 1.402344 0.425781 7.160156 2.167969 10 -1.101562 L 10.253906 -1.390625 C 13.195312 -5.316406 10.910156 -10.890625 7.03125 -14.261719 C 3.339844 -17.46875 -1.835938 -18.703125 -5.367188 -14.640625 Z M 7.824219 -2.617188 L 7.753906 -2.539062 C 6.644531 -1.265625 3.21875 -3.167969 0.40625 -5.617188 C -2.277344 -7.945312 -4.394531 -10.765625 -3.457031 -11.953125 L -3.386719 -12.035156 C -2.003906 -13.628906 0.785156 -12.277344 3.253906 -10.128906 C 6.257812 -7.523438 8.792969 -3.734375 7.824219 -2.617188 Z M 7.824219 -2.617188 "/></g></g></g><g fill="#000000" fill-opacity="1"><g transform="translate(79.562723, 110.351357)"><g><path d="M -6.75 -9.402344 C -6.320312 -8.605469 -4.351562 -6.261719 -2.046875 -3.695312 C 0.777344 -0.558594 4.15625 2.9375 5.730469 4.265625 C 6.804688 5.144531 8.292969 4.75 9.316406 3.832031 C 10.28125 2.960938 10.800781 1.644531 10.132812 0.585938 C 7.859375 -3.046875 5.03125 -6.984375 2.265625 -10.269531 C 2.050781 -10.503906 1.789062 -10.742188 1.554688 -11.003906 C 1.226562 -11.371094 0.949219 -11.785156 0.828125 -12.289062 C 0.527344 -13.726562 1.046875 -15.515625 2.066406 -16.433594 C 2.617188 -16.929688 3.324219 -17.140625 4.085938 -16.925781 C 5.859375 -16.484375 7.480469 -15.152344 8.988281 -13.476562 C 11.550781 -10.625 13.765625 -6.792969 15.484375 -4.882812 C 16.210938 -4.074219 16.835938 -3.589844 17.410156 -3.636719 C 17.835938 -3.6875 18.21875 -3.84375 18.53125 -4.125 C 18.847656 -4.40625 19.066406 -4.792969 19.238281 -5.234375 C 20.042969 -6.761719 17.703125 -11.519531 14.292969 -15.3125 C 11.210938 -18.738281 7.238281 -21.367188 4.023438 -19.945312 C 3.007812 -19.597656 2.179688 -19.042969 1.476562 -18.410156 C -0.277344 -16.832031 -1.085938 -14.78125 -1.4375 -14.226562 C -1.503906 -14.355469 -1.601562 -14.460938 -1.695312 -14.566406 C -2.707031 -15.691406 -4.789062 -15.378906 -6.125 -14.179688 C -7.300781 -13.121094 -7.890625 -11.40625 -6.75 -9.402344 Z M -6.75 -9.402344 "/></g></g></g><g fill="#000000" fill-opacity="1"><g transform="translate(95.138435, 96.359451)"><g><path d="M 17.882812 -7.570312 C 14.6875 -12.246094 4.382812 -5.25 0.191406 -9.886719 C -0.0546875 -10.1875 -0.363281 -10.574219 -0.679688 -11.039062 C -2.070312 -13.074219 -3.484375 -16.328125 -1.140625 -18.140625 L -0.996094 -18.238281 C 0.949219 -19.570312 3.019531 -17.785156 4.589844 -15.492188 C 5.164062 -14.648438 5.671875 -13.71875 6.089844 -12.855469 C 6.152344 -12.765625 6.183594 -12.660156 6.242188 -12.574219 C 6.875 -11.644531 8.152344 -11.707031 9.140625 -12.378906 C 10.128906 -13.054688 10.847656 -14.3125 10.5 -15.820312 C 10.289062 -17.125 9.847656 -18.273438 9.191406 -19.230469 C 7.046875 -22.371094 2.789062 -23.425781 -1.230469 -20.765625 L -1.492188 -20.585938 C -6.167969 -17.390625 -6.992188 -12.480469 -4.597656 -8.789062 L -4.460938 -8.585938 C 0.503906 -1.324219 11.65625 -7.578125 13.839844 -4.382812 C 13.976562 -4.179688 14.085938 -3.957031 14.160156 -3.664062 C 14.386719 -2.582031 13.757812 -1.257812 12.390625 -0.324219 L 12.304688 -0.265625 C 10.386719 1.042969 7.683594 1.269531 5.371094 0.125 C 4.605469 -0.246094 3.960938 -0.191406 3.496094 0.125 C 2.566406 0.761719 2.359375 2.394531 3.152344 3.554688 C 3.351562 3.847656 3.628906 4.125 3.992188 4.347656 C 6.199219 5.394531 10.035156 5.460938 14.210938 2.652344 L 14.296875 2.589844 C 18.074219 0.0117188 20.125 -4.285156 17.882812 -7.570312 Z M 17.882812 -7.570312 "/></g></g></g><g fill="#000000" fill-opacity="1"><g transform="translate(111.198126, 85.670248)"><g/></g></g><g fill="#000000" fill-opacity="1"><g transform="translate(118.129436, 81.281819)"><g><path d="M -0.363281 -26.890625 L -0.40625 -26.988281 C -0.789062 -27.898438 -2.96875 -27.816406 -4.945312 -26.980469 C -6.921875 -26.144531 -8.675781 -24.601562 -8.160156 -22.566406 C -6.429688 -17.566406 -4.613281 -12.71875 -2.707031 -8.214844 C 0.550781 -0.5 4.09375 6.253906 7.964844 11.074219 C 8.980469 12.476562 10.546875 12.390625 11.875 11.828125 C 13.136719 11.292969 14.160156 10.367188 14.230469 9.992188 C 14.300781 9.617188 14.457031 9.4375 14.617188 9.371094 C 14.78125 9.300781 14.96875 9.296875 15.191406 9.28125 C 16.460938 9.125 17.601562 8.835938 18.636719 8.398438 C 23.464844 6.355469 25.636719 1.542969 23.921875 -2.507812 C 23.675781 -3.089844 23.363281 -3.648438 22.957031 -4.164062 C 20.453125 -7.460938 16.308594 -7.234375 12.234375 -6.394531 C 17.347656 -10.386719 18.015625 -17.390625 15.742188 -22.773438 C 14 -26.890625 10.5625 -30.058594 6.074219 -30.1875 C 4.753906 -30.238281 3.679688 -29.976562 2.804688 -29.605469 C 0.796875 -28.757812 -0.199219 -27.226562 -0.363281 -26.890625 Z M 19.34375 -0.417969 C 20.875 3.210938 19.910156 5.527344 17.347656 6.613281 L 16.894531 6.804688 C 15.476562 7.25 13.6875 7.625 13.082031 6.277344 C 12.132812 4.308594 11.042969 2.359375 10.222656 0.417969 C 10.070312 0.0585938 9.96875 -0.277344 9.816406 -0.632812 L 9.804688 -0.667969 C 9.199219 -2.09375 10.660156 -2.976562 11.632812 -3.386719 C 11.859375 -3.484375 12.101562 -3.546875 12.230469 -3.601562 C 15.917969 -4.816406 18.492188 -2.429688 19.34375 -0.417969 Z M 9.28125 -6.785156 C 9.105469 -6.5625 8.675781 -6.226562 8.320312 -6.074219 C 8.027344 -5.953125 7.804688 -5.933594 7.738281 -6.097656 L 7.710938 -6.160156 C 7.246094 -7.074219 6.699219 -8.371094 6.070312 -9.863281 C 3.878906 -15.046875 1.027344 -22.515625 0.652344 -24.035156 C 0.441406 -24.902344 1.851562 -26.261719 3.246094 -26.851562 L 3.535156 -26.972656 C 6.125 -27.722656 8.527344 -25.378906 9.992188 -21.910156 C 11.9375 -17.308594 12.273438 -10.726562 9.28125 -6.785156 Z M 9.28125 -6.785156 "/></g></g></g><g fill="#000000" fill-opacity="1"><g transform="translate(140.272654, 72.071983)"><g><path d="M 14.390625 -9.992188 L 14.457031 -10.011719 C 14.898438 -10.128906 16.230469 -10.882812 16.054688 -12.363281 C 16.046875 -12.542969 16.015625 -12.789062 15.933594 -13.097656 C 15.476562 -14.832031 13.695312 -17.855469 10.503906 -17.664062 C 10.179688 -17.652344 9.867188 -17.605469 9.59375 -17.53125 C 7.347656 -16.9375 6.386719 -14.792969 5.671875 -14.601562 C 5.433594 -14.539062 5.203125 -14.734375 4.996094 -15.371094 C 4.125 -17.289062 2.523438 -17.847656 1.027344 -17.449219 C -0.949219 -16.929688 -2.632812 -14.773438 -1.957031 -12.222656 L -1.796875 -11.609375 C -1.167969 -9.226562 2.242188 2.828125 4.390625 6.410156 C 4.859375 7.230469 6.238281 7.484375 7.292969 7.207031 C 7.972656 7.027344 8.523438 6.625 8.683594 6 C 9.1875 4.59375 8.3125 -2.417969 6.921875 -9.328125 C 6.566406 -10.945312 7.917969 -13.816406 9.585938 -14.253906 C 9.996094 -14.363281 10.40625 -14.328125 10.828125 -14.109375 C 12.605469 -13.160156 12.785156 -11.933594 13.445312 -10.542969 C 13.621094 -10.152344 14.015625 -9.894531 14.390625 -9.992188 Z M 14.390625 -9.992188 "/></g></g></g><g fill="#000000" fill-opacity="1"><g transform="translate(158.429981, 67.47731)"><g><path d="M -0.242188 -10.984375 C -0.230469 -10.914062 -0.246094 -10.804688 -0.230469 -10.703125 C 0.0429688 -8.855469 0.332031 -6.941406 0.640625 -5.101562 C 1.65625 0.933594 2.820312 6.375 3.597656 7.601562 C 4.234375 8.207031 5.167969 8.445312 5.964844 8.308594 C 6.761719 8.175781 7.421875 7.636719 7.441406 6.707031 C 7.835938 3.320312 7.171875 -4.667969 6.417969 -9.144531 C 6.238281 -10.21875 6.050781 -11.117188 5.890625 -11.660156 C 5.488281 -12.984375 3.855469 -13.351562 2.328125 -13.09375 C 0.90625 -12.855469 -0.382812 -12.03125 -0.242188 -10.984375 Z M 1.175781 -21.429688 C 1.039062 -21.40625 0.929688 -21.421875 0.789062 -21.398438 C -0.804688 -21.128906 -2.296875 -19.808594 -2.339844 -18.160156 C -2.359375 -18.050781 -2.335938 -17.910156 -2.316406 -17.808594 C -2.09375 -16.488281 -0.382812 -15.636719 1.566406 -15.925781 L 1.878906 -15.980469 C 4.34375 -16.394531 5.632812 -17.429688 5.375 -19.386719 L 5.367188 -19.421875 C 5.070312 -21.191406 2.871094 -21.535156 1.175781 -21.429688 Z M 1.175781 -21.429688 "/></g></g></g><g fill="#000000" fill-opacity="1"><g transform="translate(167.224133, 65.83035)"><g><path d="M 8.289062 -13.160156 C 8.265625 -13.015625 8.277344 -12.84375 8.289062 -12.703125 C 8.316406 -12.421875 8.375 -12.144531 8.386719 -11.96875 C 8.398438 -11.863281 8.363281 -11.824219 8.363281 -11.824219 L 8.328125 -11.820312 C 7.175781 -12.925781 5.648438 -13.46875 4.175781 -13.34375 C 1.722656 -13.140625 -0.542969 -11.078125 -0.523438 -6.664062 C -0.535156 -5.957031 -0.507812 -5.21875 -0.449219 -4.515625 C -0.316406 -2.9375 0.0234375 -1.414062 0.710938 0.046875 C 1.738281 2.183594 3.414062 2.820312 4.992188 2.6875 C 6.042969 2.601562 7.035156 2.199219 7.734375 1.679688 C 8.167969 1.398438 8.5625 1.046875 9.09375 0.648438 C 9.136719 2.410156 9.824219 11.429688 7.15625 12.039062 C 6.949219 12.09375 6.773438 12.109375 6.597656 12.121094 C 2.84375 12.4375 4.660156 6.28125 2.554688 6.460938 L 2.34375 6.476562 C 1.894531 6.585938 1.636719 6.890625 1.601562 7.316406 L 1.648438 7.84375 C 2.03125 12.433594 4.765625 14.289062 6.871094 14.113281 L 6.976562 14.105469 C 14.757812 13.414062 15.433594 2.976562 14.765625 -4.984375 C 14.363281 -9.75 13.476562 -13.597656 13.34375 -13.902344 C 13.003906 -14.617188 11.992188 -14.882812 10.941406 -14.796875 C 9.710938 -14.691406 8.457031 -14.09375 8.289062 -13.160156 Z M 6.226562 0.148438 L 6.121094 0.15625 C 4.472656 0.296875 3.300781 -2.324219 3.066406 -5.128906 C 2.816406 -8.074219 3.617188 -11.179688 5.886719 -11.476562 L 6.027344 -11.488281 C 6.972656 -11.566406 8.121094 -10.957031 8.191406 -10.082031 L 8.195312 -10.046875 C 8.378906 -7.871094 8.632812 -5.667969 8.820312 -3.460938 C 8.933594 -2.09375 8.183594 -0.121094 6.226562 0.148438 Z M 6.226562 0.148438 "/></g></g></g><g fill="#000000" fill-opacity="1"><g transform="translate(182.919567, 64.376998)"><g><path d="M 7.707031 -24.007812 C 7.402344 -25.425781 6.050781 -26.175781 4.679688 -26.21875 C 3.167969 -26.265625 1.59375 -25.4375 1.359375 -23.648438 C 1.222656 -22.703125 1.125 -20.804688 1.050781 -18.414062 C 0.777344 -9.902344 0.855469 5.097656 1.566406 8.21875 C 1.847656 9.386719 2.851562 9.914062 3.800781 9.945312 C 4.855469 9.976562 5.859375 9.410156 5.925781 8.464844 C 5.941406 7.972656 6.71875 -4.253906 7.199219 -4.910156 C 8.046875 -6.148438 9.195312 -6.78125 10.601562 -6.734375 C 10.742188 -6.730469 10.882812 -6.691406 11.023438 -6.6875 C 13.054688 -6.410156 13.554688 -3.332031 13.441406 0.1875 C 13.359375 2.824219 12.949219 5.695312 12.492188 7.863281 C 12.488281 7.96875 12.449219 8.039062 12.445312 8.144531 C 12.410156 9.269531 13.585938 9.90625 14.855469 9.949219 C 16.15625 9.988281 17.546875 9.398438 17.871094 8.074219 C 18.375 5.589844 18.734375 3.171875 18.804688 0.921875 C 18.980469 -4.53125 17.355469 -8.699219 11.308594 -8.964844 C 9.4375 -8.851562 7.609375 -7.851562 7.128906 -7.058594 L 7.152344 -7.867188 C 7.390625 -15.21875 7.820312 -18.828125 7.898438 -21.1875 C 7.933594 -22.3125 7.890625 -23.15625 7.707031 -24.007812 Z M 7.707031 -24.007812 "/></g></g></g><g fill="#000000" fill-opacity="1"><g transform="translate(201.90423, 64.906462)"><g><path d="M 9.003906 12.558594 C 16.433594 13.769531 18.898438 6.542969 19.324219 3.9375 C 19.355469 3.730469 19.351562 3.550781 19.371094 3.410156 C 19.417969 2.492188 18.46875 1.730469 17.394531 1.554688 C 16.28125 1.375 15.027344 1.847656 14.769531 3.445312 L 14.71875 3.757812 C 14.292969 6.359375 12.375 10.683594 9.765625 10.292969 L 9.730469 10.285156 C 8.0625 10.015625 8.308594 5.457031 9.105469 0.558594 C 10.046875 -5.207031 11.769531 -11.378906 11.976562 -11.34375 C 13.40625 -11.144531 16.84375 -11.011719 17.535156 -11.328125 C 17.808594 -11.460938 17.945312 -11.652344 17.980469 -11.863281 C 18.058594 -12.347656 17.578125 -12.890625 17.21875 -13.089844 C 16.753906 -13.308594 13.5625 -14.078125 12.921875 -14.292969 C 12.574219 -14.347656 12.445312 -14.441406 12.496094 -14.753906 L 12.519531 -14.890625 C 12.976562 -16.386719 13.8125 -18.671875 14.132812 -20.617188 C 14.257812 -21.382812 14.300781 -22.089844 14.21875 -22.671875 C 14.105469 -23.296875 13.015625 -23.832031 11.9375 -24.007812 C 10.863281 -24.183594 9.804688 -24.035156 9.585938 -23.355469 C 9.269531 -22.945312 7.605469 -16.230469 7.285156 -15.140625 C 5.304688 -15.464844 3.378906 -14.8125 3.277344 -14.1875 L 3.273438 -14.15625 C 3.3125 -13.078125 4.902344 -12.570312 6.472656 -12.136719 C 5.550781 -7.578125 4.691406 -3.621094 4.152344 -0.320312 C 2.898438 7.355469 3.378906 11.640625 8.828125 12.527344 Z M 9.003906 12.558594 "/></g></g></g><g fill="#000000" fill-opacity="1"><g transform="translate(221.753872, 68.402531)"><g/></g></g><g fill="#000000" fill-opacity="1"><g transform="translate(229.793649, 70.03114)"><g><path d="M 18.339844 -19.671875 L 18.375 -19.769531 C 18.726562 -20.691406 17.097656 -22.140625 15.089844 -22.90625 C 13.085938 -23.667969 10.75 -23.769531 9.714844 -21.941406 C 7.507812 -17.132812 5.46875 -12.375 3.726562 -7.804688 C 0.746094 0.0195312 -1.367188 7.347656 -1.90625 13.507812 C -2.148438 15.222656 -0.953125 16.242188 0.394531 16.753906 C 1.675781 17.242188 3.054688 17.28125 3.367188 17.058594 C 3.675781 16.839844 3.910156 16.816406 4.074219 16.878906 C 4.238281 16.941406 4.378906 17.070312 4.550781 17.210938 C 5.578125 17.976562 6.597656 18.554688 7.652344 18.957031 C 12.550781 20.820312 17.445312 18.847656 19.011719 14.734375 C 19.238281 14.144531 19.398438 13.527344 19.457031 12.871094 C 19.933594 8.761719 16.785156 6.054688 13.257812 3.847656 C 19.710938 4.496094 25.039062 -0.101562 27.121094 -5.558594 C 28.710938 -9.734375 28.417969 -14.402344 25.265625 -17.597656 C 24.351562 -18.550781 23.394531 -19.101562 22.503906 -19.441406 C 20.464844 -20.21875 18.691406 -19.800781 18.339844 -19.671875 Z M 14.257812 13.074219 C 12.855469 16.757812 10.554688 17.765625 7.957031 16.773438 L 7.496094 16.597656 C 6.164062 15.941406 4.613281 14.972656 5.105469 13.582031 C 5.785156 11.503906 6.34375 9.34375 7.09375 7.371094 C 7.230469 7.011719 7.390625 6.695312 7.527344 6.332031 L 7.539062 6.300781 C 8.09375 4.851562 9.757812 5.222656 10.746094 5.597656 C 10.972656 5.6875 11.191406 5.808594 11.324219 5.859375 C 14.828125 7.53125 15.035156 11.039062 14.257812 13.074219 Z M 11.394531 1.515625 C 11.117188 1.5625 10.570312 1.503906 10.210938 1.367188 C 9.914062 1.253906 9.742188 1.113281 9.804688 0.949219 L 9.828125 0.882812 C 10.128906 -0.09375 10.628906 -1.410156 11.203125 -2.921875 C 13.210938 -8.183594 16.316406 -15.546875 17.097656 -16.90625 C 17.542969 -17.679688 19.503906 -17.683594 20.917969 -17.144531 L 21.210938 -17.035156 C 23.597656 -15.785156 23.710938 -12.429688 22.371094 -8.910156 C 20.59375 -4.242188 16.285156 0.742188 11.394531 1.515625 Z M 11.394531 1.515625 "/></g></g></g><g fill="#000000" fill-opacity="1"><g transform="translate(252.167816, 78.812937)"><g><path d="M 16.195312 0.210938 C 16.550781 -0.15625 16.960938 -0.695312 17.328125 -1.378906 C 18.496094 -3.546875 19.199219 -7.003906 16.570312 -9.539062 C 15.941406 -10.15625 15.28125 -10.632812 14.660156 -10.96875 C 9.703125 -13.636719 5.230469 -7.933594 2.019531 -2.269531 L 1.703125 -1.679688 C -0.582031 2.5625 -2.425781 10.363281 1.984375 12.9375 L 2.136719 13.023438 C 5.667969 14.925781 10.730469 11.535156 12.066406 9.058594 C 12.550781 8.160156 12.558594 7.402344 11.84375 7.019531 C 10.992188 6.601562 10.578125 7.296875 10.117188 7.929688 C 8.574219 9.976562 6.625 12.039062 4.238281 10.753906 C 4.144531 10.707031 4.039062 10.609375 3.914062 10.542969 C 2.542969 9.601562 2.527344 7.996094 5.113281 3.195312 C 5.679688 2.140625 6.378906 0.917969 7.210938 -0.472656 C 8.75 0.078125 13.898438 2.691406 16.195312 0.210938 Z M 15.21875 -7.550781 C 16.183594 -6.671875 16.078125 -4.25 15.242188 -2.699219 C 14.742188 -1.769531 13.984375 -1.179688 13.046875 -1.367188 C 11.964844 -1.585938 11.15625 -1.863281 10.566406 -2.179688 C 9.515625 -2.75 9.171875 -3.375 9.421875 -3.835938 L 9.503906 -3.992188 C 10.023438 -4.953125 12.710938 -8.980469 14.785156 -7.863281 C 14.941406 -7.777344 15.078125 -7.664062 15.21875 -7.550781 Z M 15.21875 -7.550781 "/></g></g></g><g fill="#000000" fill-opacity="1"><g transform="translate(265.566567, 85.977344)"><g><path d="M 14.726562 -5.003906 C 14.617188 -4.910156 14.519531 -4.761719 14.4375 -4.648438 C 14.28125 -4.414062 14.152344 -4.160156 14.050781 -4.015625 C 13.992188 -3.929688 13.945312 -3.917969 13.945312 -3.917969 L 13.914062 -3.941406 C 13.714844 -5.523438 12.867188 -6.90625 11.648438 -7.738281 C 9.609375 -9.125 6.554688 -8.945312 3.789062 -5.507812 C 3.335938 -4.964844 2.890625 -4.375 2.496094 -3.792969 C 1.605469 -2.484375 0.90625 -1.085938 0.523438 0.484375 C -0.0273438 2.789062 0.875 4.339844 2.1875 5.230469 C 3.058594 5.824219 4.082031 6.136719 4.949219 6.175781 C 5.464844 6.230469 5.992188 6.203125 6.65625 6.230469 C 5.578125 7.625 0.433594 15.0625 -2.023438 13.859375 C -2.21875 13.769531 -2.363281 13.671875 -2.507812 13.570312 C -5.621094 11.453125 -0.335938 7.8125 -2.082031 6.625 L -2.257812 6.507812 C -2.675781 6.308594 -3.066406 6.382812 -3.359375 6.691406 L -3.65625 7.128906 C -6.25 10.941406 -5.292969 14.101562 -3.550781 15.289062 L -3.460938 15.347656 C 3.015625 19.714844 10.117188 12.03125 14.609375 5.425781 C 17.300781 1.46875 19.03125 -2.078125 19.121094 -2.398438 C 19.304688 -3.167969 18.6875 -4.011719 17.816406 -4.605469 C 16.796875 -5.296875 15.441406 -5.625 14.726562 -5.003906 Z M 4.746094 4.035156 L 4.65625 3.976562 C 3.289062 3.046875 4.027344 0.273438 5.613281 -2.054688 C 7.273438 -4.5 9.847656 -6.40625 11.800781 -5.207031 L 11.914062 -5.128906 C 12.699219 -4.59375 13.207031 -3.398438 12.710938 -2.671875 L 12.691406 -2.644531 C 11.464844 -0.839844 10.277344 1.03125 9.03125 2.867188 C 8.257812 4 6.433594 5.058594 4.746094 4.035156 Z M 4.746094 4.035156 "/></g></g></g><g fill="#000000" fill-opacity="1"><g transform="translate(278.67253, 95.042102)"><g><path d="M 8.070312 -7.457031 C 8.023438 -7.402344 7.929688 -7.34375 7.863281 -7.261719 C 6.664062 -5.832031 5.421875 -4.351562 4.246094 -2.898438 C 0.398438 1.859375 -2.910156 6.335938 -3.3125 7.730469 C -3.34375 8.609375 -2.902344 9.464844 -2.273438 9.972656 C -1.644531 10.480469 -0.804688 10.617188 -0.09375 10.015625 C 2.703125 8.070312 8.246094 2.28125 11.101562 -1.246094 C 11.789062 -2.09375 12.335938 -2.828125 12.636719 -3.3125 C 13.363281 -4.488281 12.554688 -5.953125 11.351562 -6.929688 C 10.230469 -7.835938 8.761719 -8.253906 8.070312 -7.457031 Z M 16.832031 -13.3125 C 16.722656 -13.398438 16.664062 -13.492188 16.554688 -13.582031 C 15.296875 -14.601562 13.320312 -14.839844 12.054688 -13.78125 C 11.960938 -13.722656 11.871094 -13.613281 11.804688 -13.53125 C 10.964844 -12.492188 11.460938 -10.640625 12.96875 -9.375 L 13.21875 -9.175781 C 15.160156 -7.605469 16.789062 -7.328125 18.082031 -8.816406 L 18.105469 -8.84375 C 19.234375 -10.238281 18.035156 -12.113281 16.832031 -13.3125 Z M 16.832031 -13.3125 "/></g></g></g><g fill="#000000" fill-opacity="1"><g transform="translate(285.769725, 100.356333)"><g><path d="M 8.992188 -7.289062 C 8.222656 -6.8125 5.996094 -4.710938 3.570312 -2.257812 C 0.601562 0.742188 -2.6875 4.320312 -3.921875 5.96875 C -4.738281 7.09375 -4.257812 8.558594 -3.28125 9.523438 C -2.355469 10.4375 -1.011719 10.878906 0.00390625 10.152344 C 3.5 7.667969 7.265625 4.613281 10.382812 1.660156 C 10.605469 1.433594 10.828125 1.160156 11.078125 0.910156 C 11.421875 0.558594 11.820312 0.257812 12.316406 0.105469 C 13.734375 -0.273438 15.550781 0.140625 16.527344 1.105469 C 17.050781 1.625 17.304688 2.320312 17.136719 3.089844 C 16.796875 4.886719 15.5625 6.582031 13.976562 8.183594 C 11.28125 10.910156 7.585938 13.34375 5.78125 15.171875 C 5.011719 15.945312 4.570312 16.597656 4.644531 17.167969 C 4.722656 17.589844 4.898438 17.960938 5.199219 18.257812 C 5.5 18.554688 5.898438 18.753906 6.347656 18.898438 C 7.917969 19.613281 12.53125 17 16.121094 13.375 C 19.363281 10.097656 21.753906 5.976562 20.144531 2.851562 C 19.742188 1.859375 19.140625 1.066406 18.464844 0.398438 C 16.789062 -1.261719 14.695312 -1.945312 14.121094 -2.265625 C 14.242188 -2.339844 14.34375 -2.441406 14.441406 -2.542969 C 15.507812 -3.617188 15.070312 -5.679688 13.796875 -6.941406 C 12.671875 -8.054688 10.925781 -8.542969 8.992188 -7.289062 Z M 8.992188 -7.289062 "/></g></g></g><g fill="#000000" fill-opacity="1"><g transform="translate(300.67484, 115.022084)"><g><path d="M 9.917969 -5.972656 C 9.089844 -5.605469 6.589844 -3.832031 3.847656 -1.742188 C 0.492188 0.820312 -3.261719 3.90625 -4.714844 5.367188 C -5.675781 6.367188 -5.402344 7.882812 -4.570312 8.976562 C -3.78125 10.011719 -2.507812 10.632812 -1.402344 10.054688 C 2.402344 8.082031 6.554688 5.574219 10.054688 3.085938 C 10.304688 2.890625 10.5625 2.652344 10.84375 2.4375 C 11.234375 2.136719 11.667969 1.894531 12.183594 1.8125 C 13.636719 1.632812 15.382812 2.292969 16.214844 3.386719 C 16.664062 3.972656 16.816406 4.695312 16.539062 5.4375 C 15.957031 7.167969 14.5 8.679688 12.707031 10.042969 C 9.660156 12.371094 5.664062 14.269531 3.621094 15.824219 C 2.753906 16.488281 2.222656 17.070312 2.222656 17.644531 C 2.238281 18.074219 2.363281 18.46875 2.617188 18.804688 C 2.875 19.140625 3.242188 19.390625 3.664062 19.597656 C 5.125 20.523438 10.054688 18.574219 14.109375 15.480469 C 17.777344 12.683594 20.714844 8.9375 19.554688 5.617188 C 19.292969 4.578125 18.808594 3.710938 18.230469 2.953125 C 16.800781 1.078125 14.820312 0.109375 14.296875 -0.285156 C 14.429688 -0.34375 14.542969 -0.429688 14.65625 -0.515625 C 15.859375 -1.433594 15.714844 -3.535156 14.625 -4.960938 C 13.664062 -6.222656 12.003906 -6.945312 9.917969 -5.972656 Z M 9.917969 -5.972656 "/></g></g></g><g fill="#000000" fill-opacity="1"><g transform="translate(313.260167, 131.967491)"><g><path d="M 10.089844 -4.351562 C 10.027344 -4.316406 9.921875 -4.289062 9.832031 -4.234375 C 8.222656 -3.289062 6.558594 -2.300781 4.96875 -1.324219 C -0.242188 1.886719 -4.847656 5.011719 -5.691406 6.191406 C -6.015625 7.007812 -5.882812 7.960938 -5.457031 8.652344 C -5.035156 9.339844 -4.285156 9.746094 -3.414062 9.417969 C -0.132812 8.511719 7.019531 4.890625 10.886719 2.511719 C 11.816406 1.941406 12.574219 1.429688 13.015625 1.074219 C 14.09375 0.207031 13.820312 -1.445312 13.007812 -2.761719 C 12.253906 -3.992188 11.003906 -4.875 10.089844 -4.351562 Z M 20.300781 -6.964844 C 20.226562 -7.082031 20.199219 -7.191406 20.125 -7.3125 C 19.277344 -8.6875 17.492188 -9.574219 15.949219 -8.996094 C 15.839844 -8.96875 15.722656 -8.894531 15.632812 -8.839844 C 14.492188 -8.140625 14.34375 -6.230469 15.347656 -4.535156 L 15.515625 -4.265625 C 16.824219 -2.136719 18.269531 -1.332031 19.984375 -2.304688 L 20.015625 -2.324219 C 21.542969 -3.265625 21.035156 -5.433594 20.300781 -6.964844 Z M 20.300781 -6.964844 "/></g></g></g><g fill="#000000" fill-opacity="1"><g transform="translate(318.188667, 139.339097)"><g><path d="M 10.902344 -3.886719 C 10.019531 -3.695312 7.21875 -2.449219 4.117188 -0.945312 C 0.320312 0.902344 -3.96875 3.179688 -5.683594 4.324219 C -6.824219 5.113281 -6.859375 6.65625 -6.257812 7.890625 C -5.691406 9.0625 -4.566406 9.925781 -3.367188 9.578125 C 0.753906 8.394531 5.320312 6.765625 9.242188 5.015625 C 9.527344 4.878906 9.828125 4.691406 10.144531 4.539062 C 10.589844 4.324219 11.0625 4.171875 11.582031 4.191406 C 13.042969 4.304688 14.621094 5.296875 15.222656 6.53125 C 15.542969 7.195312 15.550781 7.9375 15.132812 8.609375 C 14.21875 10.1875 12.492188 11.378906 10.464844 12.363281 C 7.015625 14.039062 2.722656 15.105469 0.410156 16.230469 C -0.570312 16.707031 -1.203125 17.171875 -1.320312 17.734375 C -1.386719 18.160156 -1.347656 18.570312 -1.160156 18.949219 C -0.976562 19.328125 -0.664062 19.648438 -0.292969 19.933594 C 0.953125 21.128906 6.171875 20.199219 10.761719 17.96875 C 14.910156 15.953125 18.53125 12.863281 18.054688 9.382812 C 18.003906 8.3125 17.699219 7.363281 17.285156 6.507812 C 16.253906 4.386719 14.507812 3.046875 14.070312 2.554688 C 14.214844 2.523438 14.339844 2.460938 14.464844 2.402344 C 15.828125 1.738281 16.101562 -0.351562 15.320312 -1.964844 C 14.628906 -3.390625 13.144531 -4.429688 10.902344 -3.886719 Z M 10.902344 -3.886719 "/></g></g></g><g fill="#000000" fill-opacity="1"><g transform="translate(327.256685, 158.267513)"><g><path d="M 14.785156 4.828125 C 14.640625 4.84375 14.472656 4.898438 14.339844 4.945312 C 14.074219 5.035156 13.816406 5.160156 13.652344 5.21875 C 13.550781 5.25 13.507812 5.230469 13.507812 5.230469 L 13.496094 5.195312 C 14.285156 3.808594 14.4375 2.195312 13.960938 0.796875 C 13.164062 -1.53125 10.609375 -3.226562 6.335938 -2.132812 C 5.648438 -1.972656 4.9375 -1.765625 4.269531 -1.539062 C 2.773438 -1.023438 1.378906 -0.324219 0.128906 0.699219 C -1.695312 2.21875 -1.902344 4 -1.390625 5.496094 C -1.046875 6.496094 -0.417969 7.359375 0.253906 7.910156 C 0.636719 8.261719 1.070312 8.558594 1.585938 8.976562 C -0.109375 9.449219 -8.6875 12.3125 -9.933594 9.875 C -10.035156 9.6875 -10.09375 9.519531 -10.148438 9.351562 C -11.367188 5.789062 -4.957031 6.050781 -5.640625 4.050781 L -5.710938 3.851562 C -5.925781 3.441406 -6.28125 3.269531 -6.703125 3.335938 L -7.203125 3.507812 C -11.566406 5.003906 -12.695312 8.105469 -12.011719 10.101562 L -11.976562 10.203125 C -9.414062 17.582031 0.875 15.695312 8.429688 13.105469 C 12.957031 11.554688 16.472656 9.757812 16.738281 9.554688 C 17.34375 9.046875 17.359375 8.003906 17.015625 7.003906 C 16.617188 5.839844 15.730469 4.765625 14.785156 4.828125 Z M 1.375 6.074219 L 1.339844 5.976562 C 0.804688 4.410156 3.058594 2.632812 5.722656 1.722656 C 8.519531 0.765625 11.722656 0.78125 12.566406 2.910156 L 12.609375 3.046875 C 12.917969 3.945312 12.605469 5.203125 11.773438 5.488281 L 11.738281 5.5 C 9.675781 6.207031 7.601562 6.992188 5.503906 7.710938 C 4.207031 8.15625 2.113281 7.90625 1.375 6.074219 Z M 1.375 6.074219 "/></g></g></g><g fill="#000000" fill-opacity="1"><g transform="translate(332.492413, 173.135648)"><g><path d="M 0.289062 19.417969 C 5.828125 18.214844 3.21875 6.035156 9.089844 3.894531 C 9.460938 3.777344 9.9375 3.640625 10.484375 3.519531 C 12.894531 3 16.4375 2.914062 17.238281 5.761719 L 17.273438 5.933594 C 17.773438 8.238281 15.347656 9.488281 12.628906 10.078125 C 11.632812 10.292969 10.578125 10.414062 9.621094 10.476562 C 9.515625 10.5 9.40625 10.488281 9.304688 10.511719 C 8.203125 10.75 7.78125 11.957031 8.035156 13.125 C 8.289062 14.296875 9.183594 15.433594 10.710938 15.675781 C 12 15.972656 13.230469 15.996094 14.363281 15.75 C 18.078125 14.941406 20.65625 11.394531 19.703125 6.667969 L 19.636719 6.359375 C 18.433594 0.824219 14.195312 -1.785156 9.875 -0.957031 L 9.632812 -0.902344 C 1.039062 0.964844 2.640625 13.648438 -1.144531 14.46875 C -1.382812 14.523438 -1.632812 14.539062 -1.929688 14.496094 C -3.015625 14.300781 -4.007812 13.21875 -4.359375 11.605469 L -4.378906 11.5 C -4.875 9.230469 -4.066406 6.644531 -2.132812 4.929688 C -1.503906 4.359375 -1.3125 3.742188 -1.429688 3.191406 C -1.671875 2.089844 -3.105469 1.285156 -4.480469 1.585938 C -4.824219 1.660156 -5.1875 1.808594 -5.527344 2.0625 C -7.332031 3.714844 -8.832031 7.246094 -7.800781 12.171875 L -7.777344 12.273438 C -6.808594 16.746094 -3.59375 20.261719 0.289062 19.417969 Z M 0.289062 19.417969 "/></g></g></g></svg>