<svg width="92" height="92" viewBox="0 0 92 92" fill="none" xmlns="http://www.w3.org/2000/svg">
<path d="M45.9958 92C71.405 92 92 71.405 92 46C92 20.595 71.405 0 46 0C20.595 0 0 20.595 0 46C0 71.405 20.5908 92 45.9958 92Z" fill="url(#paint0_linear_178_661)"/>
<path d="M45.9958 92C71.405 92 92 71.405 92 46C92 20.595 71.405 0 46 0C20.595 0 0 20.595 0 46C0 71.405 20.5908 92 45.9958 92Z" fill="url(#paint1_radial_178_661)"/>
<g filter="url(#filter0_f_178_661)">
<path d="M46.1046 90.5233C70.7525 90.5233 90.7327 70.5431 90.7327 45.8952C90.7327 21.2473 70.7525 1.26709 46.1046 1.26709C21.4566 1.26709 1.47644 21.2431 1.47644 45.8952C1.47644 70.5431 21.4566 90.5233 46.1046 90.5233Z" fill="#DDCEF5"/>
<path d="M46.1046 90.5233C70.7525 90.5233 90.7327 70.5431 90.7327 45.8952C90.7327 21.2473 70.7525 1.26709 46.1046 1.26709C21.4566 1.26709 1.47644 21.2431 1.47644 45.8952C1.47644 70.5431 21.4566 90.5233 46.1046 90.5233Z" fill="url(#paint2_radial_178_661)"/>
</g>
<g filter="url(#filter1_f_178_661)">
<path d="M42.0432 1.38941C55.4358 -0.438382 72.4547 5.34613 80.7906 19.4833C70.0121 9.12718 58.556 2.74456 42.0432 1.38941Z" fill="url(#paint3_radial_178_661)"/>
</g>
<path d="M45.9959 77.6497C50.1521 77.65 54.2678 76.8316 58.1078 75.2414C61.9478 73.6511 65.437 71.32 68.3761 68.3813C71.3152 65.4425 73.6468 61.9537 75.2375 58.1139C76.8283 54.2741 77.6472 50.1585 77.6475 46.0023C77.6478 41.846 76.8294 37.7303 75.2391 33.8903C73.6489 30.0503 71.3178 26.5611 68.3791 23.622C65.4403 20.6829 61.9514 18.3514 58.1116 16.7606C54.2719 15.1698 50.1563 14.3509 46 14.3506C37.6061 14.3506 29.5559 17.6851 23.6204 23.6205C17.685 29.556 14.3505 37.6062 14.3505 46.0002C14.3505 54.3942 17.685 62.4443 23.6204 68.3798C29.5559 74.3152 37.6019 77.6497 45.9959 77.6497Z" fill="#D8CBF0"/>
<path d="M45.9959 77.6497C50.1521 77.65 54.2678 76.8316 58.1078 75.2414C61.9478 73.6511 65.437 71.32 68.3761 68.3813C71.3152 65.4425 73.6468 61.9537 75.2375 58.1139C76.8283 54.2741 77.6472 50.1585 77.6475 46.0023C77.6478 41.846 76.8294 37.7303 75.2391 33.8903C73.6489 30.0503 71.3178 26.5611 68.3791 23.622C65.4403 20.6829 61.9514 18.3514 58.1116 16.7606C54.2719 15.1698 50.1563 14.3509 46 14.3506C37.6061 14.3506 29.5559 17.6851 23.6204 23.6205C17.685 29.556 14.3505 37.6062 14.3505 46.0002C14.3505 54.3942 17.685 62.4443 23.6204 68.3798C29.5559 74.3152 37.6019 77.6497 45.9959 77.6497Z" fill="url(#paint4_radial_178_661)"/>
<path d="M45.9959 77.6497C50.1521 77.65 54.2678 76.8316 58.1078 75.2414C61.9478 73.6511 65.437 71.32 68.3761 68.3813C71.3152 65.4425 73.6468 61.9537 75.2375 58.1139C76.8283 54.2741 77.6472 50.1585 77.6475 46.0023C77.6478 41.846 76.8294 37.7303 75.2391 33.8903C73.6489 30.0503 71.3178 26.5611 68.3791 23.622C65.4403 20.6829 61.9514 18.3514 58.1116 16.7606C54.2719 15.1698 50.1563 14.3509 46 14.3506C37.6061 14.3506 29.5559 17.6851 23.6204 23.6205C17.685 29.556 14.3505 37.6062 14.3505 46.0002C14.3505 54.3942 17.685 62.4443 23.6204 68.3798C29.5559 74.3152 37.6019 77.6497 45.9959 77.6497Z" fill="url(#paint5_radial_178_661)"/>
<path d="M45.9959 77.6497C50.1521 77.65 54.2678 76.8316 58.1078 75.2414C61.9478 73.6511 65.437 71.32 68.3761 68.3813C71.3152 65.4425 73.6467 61.9537 75.2375 58.1139C76.8283 54.2741 77.6472 50.1585 77.6475 46.0023C77.6478 41.846 76.8294 37.7303 75.2391 33.8903C73.6489 30.0503 71.3178 26.5611 68.3791 23.622C65.4403 20.6829 61.9514 18.3514 58.1116 16.7606C54.2718 15.1698 50.1563 14.3509 46 14.3506C37.6061 14.3506 29.5559 17.6851 23.6204 23.6205C17.685 29.556 14.3505 37.6062 14.3505 46.0002C14.3505 54.3942 17.685 62.4443 23.6204 68.3798C29.5559 74.3152 37.6019 77.6497 45.9959 77.6497Z" fill="url(#paint6_radial_178_661)"/>
<g filter="url(#filter2_d_178_661)">
<path d="M24.5 52L24 55L23.5 58.5V61L24 63L22.5 62.5L20 61L19 62.5L17 65.5L15 67L13 68L14 68.5L13 69.5L13.5 72.5L17 73.5L21.5 74.5L26 75.5L30.5 76.5L35.5 77.5L38 75.5L41.5 73.5L44 72.5H46.5L48.5 73.5L52 75.5L56 77.5L61 76L69 73.5L78 70.5V67L77 66L78 65.5H80V61.5L79 61L79.5 60L78.5 59L77 57.5L75.5 56.5L74.5 55L73 53.5L72.5 52L71 53.5L69 55V53.5L68 50L67 46.5L65.5 43.5L64 40.5L62.5 38L61 35.5L59 33L57.5 31L55.5 30L54.5 28.5H55.5H57H59L61 28V26.5L60.5 25.5L59 26L56 26.5H54V25.5L56 23.5L58 21L59.5 19L60.5 16.5L61 14.5V12.5V11.5L60.5 10.5L60 11L59 12L57 13L55.5 13.5H54L52 13L50.5 12L48.5 11L46.5 10L45 10.5L42.5 11.5L40 13L39 13.5L37 13L35.5 12.5L34.5 12L33.5 11.5L32.5 10.5L32 11L31.5 12.5V14.5L32.5 17L33.5 19L34.5 21L35.5 22.5L37 24.5L38 25.5L37.5 26.5H36.5L34.5 27L32.5 28L31 29V30L31.5 31H32.5L33.5 30L35 29L36.5 28.5H38V29.5L37 30L35 32L32.5 35L30.5 37.5L29 40.5L27.5 43.5L26 47L24.5 52Z" fill="#D9D9D9"/>
</g>
<g clip-path="url(#clip0_178_661)">
<path d="M70.2188 59.8313C70.2188 72.6875 59.6531 72.6875 46.5 72.6875C33.3469 72.6875 22.7812 72.6875 22.7812 59.8313C22.7812 46.975 33.4547 25.9375 46.5 25.9375C59.5453 25.9375 70.2188 46.8688 70.2188 59.8313Z" fill="#DBB471"/>
<path opacity="0.5" d="M70.2188 59.8313C70.2188 55.475 69.0328 50.1625 66.8766 45.0625C67.3078 48.3562 66.4453 54.2 56.2031 56.4313C41.6485 59.5125 49.1953 63.55 43.4813 64.0813C38.6297 64.5063 25.6922 62.5938 23.1047 55.3688C22.8891 56.9625 22.6735 58.45 22.6735 59.9375C22.7813 72.6875 33.4547 72.6875 46.5 72.6875C59.5453 72.6875 70.2188 72.6875 70.2188 59.8313Z" fill="#89664C"/>
<path d="M52.8609 53.6686C52.4297 51.5436 50.5969 50.9062 48.6562 50.7999V47.8249C49.1953 48.0374 49.8422 48.3562 50.2734 48.6749C51.1359 49.2062 51.9984 47.8249 51.1359 47.2936C50.3812 46.8686 49.5187 46.4437 48.6562 46.1249V42.6187C48.6562 41.5562 47.039 41.5562 47.039 42.6187V45.6999C46.1765 45.5936 45.314 45.5936 44.4515 45.6999C44.3437 44.9561 44.1281 44.2124 43.9125 43.4687C43.6969 42.4062 42.0797 42.8312 42.4031 43.8937C42.6187 44.6374 42.7265 45.3812 42.9422 46.1249C42.8344 46.1249 42.8344 46.1249 42.7265 46.2311C40.5703 47.0811 39.1687 49.2062 40.7859 51.2249C41.5406 52.1812 42.5109 52.4999 43.589 52.7124C43.6969 54.0937 43.6969 55.4749 43.6969 56.8561C42.9422 56.4311 42.2953 55.7936 41.7562 55.2624C41.0015 54.5186 39.9234 55.6874 40.5703 56.4312C41.5406 57.4937 42.6187 58.2374 43.6969 58.7687C43.6969 59.9374 43.8047 61.1062 43.9125 62.2749C44.0203 63.3374 45.6375 63.3374 45.5297 62.2749C45.4219 61.2124 45.314 60.2562 45.314 59.1937C45.9609 59.2999 46.6078 59.2999 47.2547 59.2999C47.3625 60.3624 47.4703 61.4249 47.5781 62.5937C47.6859 63.6562 49.3031 63.6562 49.1953 62.5937C49.0875 61.4249 48.9797 60.2561 48.8719 58.9811C51.2437 58.1311 53.4 56.3249 52.8609 53.6686ZM47.039 47.2936V50.7999C46.5 50.7999 46.0687 50.9062 45.6375 50.9062H45.0984L44.775 47.0812C45.5297 47.0812 46.2844 47.1874 47.039 47.2936ZM43.1578 50.6937C42.7265 50.5874 42.2953 50.2686 41.864 49.9499C40.8937 48.9936 42.2953 48.1437 43.1578 47.7187C43.2656 48.7812 43.3734 49.7374 43.4812 50.7999C43.3734 50.7999 43.2656 50.7999 43.1578 50.6937ZM46.7156 57.4937C46.1765 57.5999 45.7453 57.4936 45.314 57.3874C45.2062 55.7936 45.2062 54.1999 45.2062 52.4999C45.8531 52.4999 46.5 52.3937 47.1469 52.3937C47.1469 54.0937 47.2547 55.6874 47.2547 57.3874C47.039 57.4936 46.9312 57.4937 46.7156 57.4937ZM50.2734 56.3249C49.8422 56.6436 49.3031 56.8562 48.8719 57.0687C48.764 55.4749 48.764 53.9874 48.764 52.3937H49.3031C51.3515 52.8187 51.8906 55.0499 50.2734 56.3249Z" fill="#89664C"/>
<path d="M48.6562 68.4375H46.1765V72.6875L56.2031 78L78.8437 71.0938V67.375L70.5421 62.5938L48.6562 68.4375Z" fill="#699635"/>
<path d="M46.5 65.9938C46.5 65.9938 49.0875 70.1375 56.4188 73.75C56.4188 73.75 67.8469 73.2188 78.8438 65.9938C78.8438 65.9938 72.4828 62.9125 70.65 58.875C70.65 58.875 66.3375 64.825 46.5 65.9938Z" fill="#83BF4F"/>
<path d="M41.6484 68.3314L44.0203 68.2251L44.3437 72.1563L34.964 78.0001L12.4312 73.2188L12.1078 69.7126L19.7625 64.5063L41.6484 68.3314Z" fill="#699635"/>
<path d="M43.4813 65.8875C43.4813 65.8875 41.2172 70.0313 34.425 73.9625C34.425 73.9625 23.3203 74.2812 12 68.4375C12 68.4375 18.0375 65.0375 19.4391 61C19.4391 61 24.1828 66.3125 43.4813 65.8875Z" fill="#83BF4F"/>
<path d="M38.0907 67.0562C38.0907 67.0562 37.7672 67.9062 39.2766 68.0124L35.2876 71.3062C35.2876 71.3062 32.9157 71.0937 32.3766 72.6874C32.3766 72.6874 22.6735 71.6249 16.4204 68.8624C16.4204 68.8624 17.7141 67.9062 16.0969 67.2687C16.0969 67.2687 17.9297 65.9937 18.361 64.8249C18.361 64.8249 20.086 65.0374 20.625 63.7624C20.8407 63.6562 27.3094 67.4812 38.0907 67.0562Z" stroke="#699635" stroke-miterlimit="10"/>
<path d="M21.4875 68.5437C22.6188 68.5437 23.536 67.9253 23.536 67.1625C23.536 66.3997 22.6188 65.7812 21.4875 65.7812C20.3562 65.7812 19.4391 66.3997 19.4391 67.1625C19.4391 67.9253 20.3562 68.5437 21.4875 68.5437Z" fill="#699635"/>
<path d="M32.4844 65.4623C32.4844 65.4623 30.0047 68.6498 24.6141 73.0061L24.9375 75.8748L21.1641 75.0248L20.9485 71.9436C20.9485 71.9436 26.4469 66.9498 27.6329 64.5061C27.525 64.5061 29.4657 65.1436 32.4844 65.4623ZM57.3891 64.7186C57.3891 64.7186 58.3594 67.2686 65.6907 71.9436V75.0248L69.8954 73.7498V70.5623C69.8954 70.5623 64.8282 67.0561 61.8094 63.5498L57.3891 64.7186Z" fill="#F9F3D9"/>
<path d="M51.2438 61.3189L48.8719 61.2127L48.6562 65.5689L58.2516 71.6252L80.7844 65.5689L80.8922 61.7439L73.0219 56.3252L51.2438 61.3189Z" fill="#699635"/>
<path d="M49.3031 58.6625C49.3031 58.6625 51.675 63.125 58.6828 67.1625C58.6828 67.1625 69.8953 67.1625 81 60.3625C81 60.3625 74.8547 56.8562 73.3453 52.5C73.3453 52.5 68.7094 58.45 49.3031 58.6625Z" fill="#83BF4F"/>
<path d="M54.1547 59.8314C54.1547 59.8314 54.6938 60.6814 52.9688 61.0002L57.4969 64.5064C57.4969 64.5064 60.0844 63.8689 60.9469 65.3564C60.9469 65.3564 71.7281 63.4439 76.6875 60.8939C76.6875 60.8939 75.0703 60.1502 76.6875 59.1939C76.6875 59.1939 74.7469 57.6002 73.9922 56.5377C73.9922 56.5377 72.1594 57.0689 71.1891 55.7939C71.1891 55.9002 67.3078 59.3002 54.1547 59.8314Z" stroke="#699635" stroke-miterlimit="10"/>
<path d="M62.4562 62.4877C62.025 63.0189 60.6234 63.2314 59.4375 62.9127C58.2515 62.5939 57.7125 61.8502 58.1437 61.3189C58.575 60.7877 59.9765 60.5752 61.1625 60.8939C62.3484 61.2127 62.8875 61.8502 62.4562 62.4877Z" fill="#699635"/>
<path d="M60.3 57.8123C60.3 57.8123 62.8875 61.2123 68.386 65.7811L68.2782 68.9686L72.0516 67.9061L72.1594 64.5061C72.1594 64.5061 66.5532 59.1936 65.1516 56.6436C65.2594 56.6436 63.4266 57.3873 60.3 57.8123Z" fill="#F9F3D9"/>
<path d="M61.5938 12.125C61.5938 18.6062 53.0766 29.125 46.5 29.125C39.9234 29.125 31.4062 19.6687 31.4062 13.1875C31.4062 6.70625 32.3766 13.1875 38.9531 13.1875C39.9234 13.1875 44.4516 10 46.5 10C47.9016 10 51.8906 13.1875 54.0469 13.1875C59.7609 13.1875 61.5938 7.2375 61.5938 12.125Z" fill="#DBB471"/>
<path d="M44.5594 24.1313C43.9125 24.5563 40.7859 24.2375 39.8156 24.9813C38.5219 25.9375 40.3547 28.1688 39.0609 29.55C36.4734 32.1 34.425 34.9688 35.0719 36.5625C36.15 39.325 38.1984 31.4625 40.0313 34.4375C41.8641 37.4125 41.5406 32.4188 44.3438 34.9688C47.1469 37.5188 44.775 30.4 47.4703 33.4813C50.1656 36.5625 50.2734 40.0688 52.2141 40.0688C54.4781 40.0688 49.8422 31.675 52.8609 33.6938C55.8797 35.7125 59.2219 34.9688 56.2031 31.8875C55.2328 30.9313 53.9391 29.2313 52.4297 27.7438C51.8906 27.2125 52.3219 24.45 51.7828 24.025C51.1359 23.4938 49.5188 25.1938 48.8719 24.875C47.5781 24.2375 48.0094 25.4063 46.0688 25.725C44.775 26.15 45.8531 23.2813 44.5594 24.1313Z" fill="#89664C"/>
<path d="M32.161 30.4001C36.3657 26.4689 44.0204 28.7001 48.5485 30.6126C52.9688 32.5251 55.6641 26.4689 52.861 23.3876C51.2438 21.5814 48.6563 23.7064 47.686 24.9814C46.6079 26.2564 45.7454 27.6376 44.5594 28.9126C42.8344 30.8251 38.6297 29.2314 39.9235 26.5751C41.325 23.8126 47.2547 27.0001 49.1954 27.5314C52.9688 28.5939 56.9579 29.0189 60.7313 27.6376C62.025 27.2126 61.486 25.0876 60.1922 25.6189C55.9875 27.1064 51.7829 26.1501 47.7938 24.8751C45.7454 24.2376 42.511 22.5376 40.3547 23.4939C34.2094 26.3626 39.9235 34.5439 45.0985 31.3564C46.2844 30.6126 47.0391 29.4439 47.9016 28.3814C48.4407 27.7439 51.136 23.7064 51.7829 25.7251C52.1063 26.7876 51.7829 28.7001 50.5969 29.0189C49.8422 29.3376 48.3329 28.2751 47.5782 28.0626C46.1766 27.5314 44.775 27.1064 43.2657 26.7876C39.2766 25.9376 33.886 26.1501 30.7594 29.0189C29.6813 29.8689 31.1907 31.3564 32.161 30.4001Z" fill="#E8E8E8"/>
<path d="M60.3 10.5312C59.2219 11.3813 57.2812 13.1875 54.0469 13.1875C51.8906 13.1875 47.9016 10 46.5 10C44.4516 10 39.9234 13.1875 38.9531 13.1875C35.3953 13.1875 33.4547 11.3813 32.4844 10.6375C32.4844 10.6375 33.6703 15.4188 37.3359 17.8625C40.0312 19.5625 39.7078 17.5438 41.1094 15.6313C42.5109 13.7188 43.4813 12.7625 45.9609 17.5437C47.2547 20.2 49.7344 10.3187 51.675 13.5062C55.2328 19.35 56.5266 16.1625 60.3 10.5312Z" fill="#89664C"/>
<path d="M68.4937 65.6749L68.3859 68.8624L72.1594 67.7999L72.2672 64.3999C72.2672 64.5062 70.0031 65.3562 68.4937 65.6749ZM65.6906 72.0499V75.1312L69.8953 73.8561V70.6686C69.7875 70.5624 68.7094 71.1999 65.6906 72.0499ZM24.614 72.8999L24.9375 75.8749L21.164 75.0249L20.9484 71.9437C20.8406 71.9437 22.35 72.4749 24.614 72.8999Z" fill="#DBB471"/>
</g>
<defs>
<filter id="filter0_f_178_661" x="0.97644" y="0.76709" width="90.2562" height="90.2563" filterUnits="userSpaceOnUse" color-interpolation-filters="sRGB">
<feFlood flood-opacity="0" result="BackgroundImageFix"/>
<feBlend mode="normal" in="SourceGraphic" in2="BackgroundImageFix" result="shape"/>
<feGaussianBlur stdDeviation="0.25" result="effect1_foregroundBlur_178_661"/>
</filter>
<filter id="filter1_f_178_661" x="41.7432" y="0.761523" width="39.3474" height="19.0219" filterUnits="userSpaceOnUse" color-interpolation-filters="sRGB">
<feFlood flood-opacity="0" result="BackgroundImageFix"/>
<feBlend mode="normal" in="SourceGraphic" in2="BackgroundImageFix" result="shape"/>
<feGaussianBlur stdDeviation="0.15" result="effect1_foregroundBlur_178_661"/>
</filter>
<filter id="filter2_d_178_661" x="9" y="10" width="75" height="75.5" filterUnits="userSpaceOnUse" color-interpolation-filters="sRGB">
<feFlood flood-opacity="0" result="BackgroundImageFix"/>
<feColorMatrix in="SourceAlpha" type="matrix" values="0 0 0 0 0 0 0 0 0 0 0 0 0 0 0 0 0 0 127 0" result="hardAlpha"/>
<feOffset dy="4"/>
<feGaussianBlur stdDeviation="2"/>
<feComposite in2="hardAlpha" operator="out"/>
<feColorMatrix type="matrix" values="0 0 0 0 0 0 0 0 0 0 0 0 0 0 0 0 0 0 0.25 0"/>
<feBlend mode="normal" in2="BackgroundImageFix" result="effect1_dropShadow_178_661"/>
<feBlend mode="normal" in="SourceGraphic" in2="effect1_dropShadow_178_661" result="shape"/>
</filter>
<linearGradient id="paint0_linear_178_661" x1="40.755" y1="1.4245e-07" x2="46" y2="92" gradientUnits="userSpaceOnUse">
<stop offset="0.115" stop-color="#BCBBC4"/>
<stop offset="0.228" stop-color="#8F8D9B"/>
<stop offset="0.689" stop-color="#A8A0BC"/>
<stop offset="0.766" stop-color="#BFA1E2"/>
</linearGradient>
<radialGradient id="paint1_radial_178_661" cx="0" cy="0" r="1" gradientUnits="userSpaceOnUse" gradientTransform="translate(68.2961 7.83347) rotate(115.805) scale(25.5358 40.6193)">
<stop stop-color="#DADAE0"/>
<stop offset="1" stop-color="#D7D6DE" stop-opacity="0"/>
</radialGradient>
<radialGradient id="paint2_radial_178_661" cx="0" cy="0" r="1" gradientUnits="userSpaceOnUse" gradientTransform="translate(13.004 70.2686) rotate(-42.333) scale(67.542 67.5415)">
<stop stop-color="#EAE0FD"/>
<stop offset="1" stop-color="#E7DDF9" stop-opacity="0"/>
</radialGradient>
<radialGradient id="paint3_radial_178_661" cx="0" cy="0" r="1" gradientUnits="userSpaceOnUse" gradientTransform="translate(64.4409 6.89368) rotate(114.444) scale(15.1004 28.2672)">
<stop stop-color="#E5E3EF"/>
<stop offset="1" stop-color="#E5E3EF" stop-opacity="0"/>
</radialGradient>
<radialGradient id="paint4_radial_178_661" cx="0" cy="0" r="1" gradientUnits="userSpaceOnUse" gradientTransform="translate(40.7551 52.044) rotate(82.997) scale(43.0158 49.2608)">
<stop offset="0.596" stop-color="#DACEF3"/>
<stop offset="0.754" stop-color="#CCB9EB"/>
<stop offset="0.962" stop-color="#BCA7DC"/>
</radialGradient>
<radialGradient id="paint5_radial_178_661" cx="0" cy="0" r="1" gradientUnits="userSpaceOnUse" gradientTransform="translate(61.9734 23.7498) rotate(142.239) scale(77.9716 74.4202)">
<stop offset="0.477" stop-color="#DACEF3" stop-opacity="0"/>
<stop offset="0.694" stop-color="#E9E2FD"/>
<stop offset="0.816" stop-color="#EBE8FB"/>
<stop offset="0.962" stop-color="#EAE7F9"/>
</radialGradient>
<radialGradient id="paint6_radial_178_661" cx="0" cy="0" r="1" gradientUnits="userSpaceOnUse" gradientTransform="translate(27.6176 27.0322) rotate(56.149) scale(74.8322 85.6969)">
<stop offset="0.537" stop-color="#DACEF3" stop-opacity="0"/>
<stop offset="0.754" stop-color="#B9B5CA"/>
<stop offset="0.962" stop-color="#B2AEC4"/>
</radialGradient>
<clipPath id="clip0_178_661">
<rect width="69" height="68" fill="white" transform="translate(12 10)"/>
</clipPath>
</defs>
</svg>
