<svg xmlns="http://www.w3.org/2000/svg" width="86" height="85" viewBox="0 0 86 85" fill="none">
  <path d="M18.8326 74.5885C18.8326 74.5885 18.984 74.4946 19.2726 74.3167C19.563 74.1413 19.9871 73.8731 20.5449 73.5463C21.6756 72.9266 23.3198 72.0128 25.4758 71.1469C26.4888 70.7307 27.6106 70.3146 28.8298 69.9232C31.0274 69.3326 33.3791 68.8466 35.8299 68.4933C38.8625 68.0559 41.8056 67.8611 44.5433 67.8611C45.048 67.8611 45.5447 67.8673 46.0343 67.8806C47.6847 67.9186 49.2475 68.0222 50.7022 68.1674C50.7669 68.1772 50.8315 68.1878 50.8962 68.1975C51.2946 68.2604 51.6895 68.3215 52.08 68.3835C52.4678 68.4561 52.8503 68.5358 53.2283 68.611C56.2529 69.222 58.9039 70.0693 61.0607 70.9264C61.3308 71.0326 61.5946 71.1362 61.8514 71.2381C62.1055 71.3461 62.3499 71.4585 62.589 71.5639C62.8271 71.6701 63.0582 71.7737 63.2831 71.8747C63.508 71.9738 63.7258 72.0704 63.9295 72.1766C64.752 72.591 65.4648 72.9345 66.0217 73.2639C66.3033 73.4224 66.553 73.5632 66.7699 73.6854C66.8779 73.7464 66.9771 73.8031 67.0683 73.8545C67.1577 73.9094 67.2383 73.9598 67.3109 74.005C67.5978 74.1856 67.7492 74.2812 67.7492 74.2812C67.7492 74.2812 67.588 74.2051 67.2817 74.0599C67.2046 74.0236 67.1196 73.9829 67.0249 73.9386C66.9284 73.897 66.823 73.8527 66.7088 73.804C66.4813 73.7057 66.2183 73.5933 65.9226 73.4667C65.3382 73.1993 64.5971 72.9301 63.7497 72.5963C63.5399 72.5104 63.3159 72.4351 63.0857 72.3563C62.8555 72.2767 62.6182 72.1952 62.3747 72.1111C62.1303 72.027 61.8815 71.9375 61.623 71.8517C61.3627 71.772 61.0953 71.6905 60.8208 71.6073C58.6356 70.9317 55.99 70.2747 53.0123 69.8099C52.6404 69.7523 52.2632 69.693 51.8825 69.6346C51.4991 69.5885 51.1122 69.5425 50.7208 69.4964C50.6376 69.4858 50.5544 69.4761 50.4712 69.4655C50.2728 69.4265 50.0701 69.3867 49.8629 69.3468C49.4892 69.2901 49.1023 69.2317 48.7047 69.1715C48.5055 69.1423 48.3028 69.1131 48.0982 69.0838C47.9955 69.0697 47.8919 69.0529 47.7883 69.0405C47.6839 69.0307 47.5785 69.0201 47.4731 69.0095C46.6258 68.9307 45.7359 68.8288 44.8089 68.8067C44.5778 68.7979 44.3441 68.789 44.1085 68.7793C43.9908 68.7757 43.8721 68.7713 43.7535 68.7678L43.5746 68.7616L43.3958 68.7633C42.9168 68.7686 42.4316 68.7757 41.9393 68.7855C41.694 68.7925 41.4488 68.7934 41.207 68.8067C40.9644 68.8235 40.7245 68.8404 40.4854 68.8581C40.0073 68.8935 39.5371 68.9307 39.0758 68.9696C38.6154 69.0236 38.1647 69.0865 37.7229 69.1458C37.282 69.2096 36.849 69.2565 36.432 69.3442C35.5917 69.4938 34.8002 69.6611 34.0644 69.8373C33.8776 69.8666 33.6934 69.8975 33.5101 69.9285C30.5386 70.4297 27.9036 71.1238 25.7255 71.8242C23.5394 72.5086 21.8341 73.2506 20.6468 73.7473C19.4789 74.2883 18.8326 74.5885 18.8326 74.5885Z" fill="white"/>
  <path d="M28.1569 71.7939C28.1569 71.7939 28.2472 71.7532 28.4181 71.6753C28.5031 71.6346 28.6111 71.593 28.7386 71.5425C28.867 71.4929 29.0148 71.4353 29.1804 71.3707C29.5133 71.2423 29.9224 71.0865 30.3988 70.9085C30.8786 70.743 31.432 70.5738 32.0439 70.3808C32.6557 70.1967 33.3321 70.0125 34.0644 69.8372C36.8889 69.3856 39.9976 69.1085 43.2559 69.0846C43.3648 69.0828 43.4728 69.0801 43.5808 69.0784C43.6889 69.0801 43.7969 69.0819 43.9049 69.0837C44.1209 69.0872 44.3361 69.0917 44.5504 69.0952C44.9789 69.104 45.4048 69.1032 45.8271 69.1191C46.2495 69.1403 46.6683 69.1616 47.0844 69.1828C47.2925 69.1935 47.4997 69.2032 47.706 69.213C47.9123 69.2227 48.1168 69.2466 48.3205 69.2625C48.7286 69.2971 49.1333 69.3316 49.5335 69.3652C49.6335 69.3741 49.7336 69.3821 49.8336 69.39C49.9337 69.398 50.032 69.4131 50.1311 69.4246C50.2445 69.4378 50.3578 69.452 50.4711 69.4653C50.9847 69.568 51.4681 69.6681 51.9206 69.7637C52.543 69.9204 53.1035 70.0665 53.594 70.1975C53.7171 70.2312 53.8366 70.2586 53.9491 70.2949C54.0615 70.3303 54.1704 70.364 54.274 70.3968C54.4812 70.4623 54.6707 70.5225 54.8416 70.5774C55.1798 70.6881 55.4436 70.7739 55.6225 70.8324C55.8014 70.8899 55.8926 70.928 55.8926 70.928C55.8926 70.928 55.796 70.9121 55.6083 70.8926C55.4215 70.8713 55.1461 70.8386 54.7929 70.7978C54.6167 70.7757 54.4201 70.7509 54.2058 70.7244C54.0987 70.7102 53.9871 70.696 53.8711 70.6819C53.7552 70.6659 53.633 70.658 53.5072 70.6456C53.0052 70.5986 52.435 70.5428 51.8072 70.4764C51.1751 70.4357 50.4853 70.3844 49.7469 70.3268C49.3768 70.31 48.9934 70.2932 48.5994 70.2755C48.4028 70.2657 48.2027 70.2551 48.0008 70.2445C47.899 70.24 47.7981 70.2321 47.6954 70.2294C47.5927 70.2276 47.4891 70.2259 47.3855 70.2241C46.6913 70.2161 45.9706 70.1834 45.2268 70.1834C45.0781 70.1834 44.9284 70.1843 44.7779 70.1878C44.5521 70.1878 44.3246 70.1878 44.0944 70.1878C43.9802 70.1869 43.8642 70.1869 43.7491 70.186L43.5746 70.1843L43.4002 70.1905C42.9345 70.2064 42.4617 70.2188 41.9827 70.2285C41.7436 70.2347 41.5054 70.2347 41.269 70.2445C41.0335 70.2569 40.7989 70.2701 40.566 70.2825C40.1011 70.3073 39.6425 70.3277 39.1909 70.3463C38.7411 70.3808 38.2984 70.4145 37.8655 70.4481C37.4325 70.4835 37.0057 70.4986 36.594 70.5517C34.9401 70.7102 33.4508 70.8952 32.2015 71.0847C31.579 71.1874 31.0115 71.268 30.5139 71.3503C30.0207 71.446 29.5939 71.5248 29.2433 71.5876C29.068 71.6186 28.9121 71.647 28.7776 71.6709C28.6421 71.6939 28.527 71.7134 28.4358 71.7346C28.2534 71.7736 28.1569 71.7939 28.1569 71.7939Z" fill="white"/>
  <path d="M34.0644 69.8373C34.8002 69.6611 35.5917 69.4937 36.432 69.3441C36.849 69.2564 37.282 69.2095 37.7229 69.1457C38.1647 69.0864 38.6154 69.0236 39.0758 68.9695C39.5371 68.9306 40.0073 68.8934 40.4854 68.858C40.7245 68.8403 40.9644 68.8235 41.207 68.8066C41.4487 68.7933 41.694 68.7925 41.9393 68.7854C42.4316 68.7756 42.9168 68.7686 43.3958 68.7632L43.5746 68.7615L43.7535 68.7677C43.8721 68.7712 43.9908 68.7756 44.1085 68.7792C44.3441 68.7889 44.5778 68.7978 44.8089 68.8066C45.7359 68.8288 46.6258 68.9306 47.4731 69.0094C47.5785 69.02 47.6839 69.0306 47.7883 69.0404C47.8919 69.0528 47.9955 69.0696 48.0982 69.0838C48.3028 69.113 48.5055 69.1422 48.7047 69.1714C49.1023 69.2316 49.4892 69.2901 49.8629 69.3467C50.07 69.3866 50.2728 69.4264 50.4711 69.4654C50.3578 69.4521 50.2445 69.4379 50.1311 69.4247C50.032 69.4131 49.9337 69.3981 49.8336 69.3901C49.7336 69.3822 49.6335 69.3742 49.5335 69.3653C49.1333 69.3317 48.7286 69.2972 48.3205 69.2626C48.1168 69.2467 47.9123 69.2228 47.706 69.213C47.4997 69.2033 47.2925 69.1936 47.0844 69.1829C46.6683 69.1617 46.2495 69.1404 45.8271 69.1192C45.4048 69.1032 44.9789 69.1041 44.5504 69.0953C44.3361 69.0917 44.1209 69.0873 43.9049 69.0838C43.7969 69.082 43.6889 69.0802 43.5808 69.0785C43.4728 69.0802 43.3648 69.0829 43.2559 69.0847C39.9975 69.1086 36.8889 69.3857 34.0644 69.8373Z" fill="white"/>
  <mask id="mask0_226_484" style="mask-type:luminance" maskUnits="userSpaceOnUse" x="27" y="65" width="48" height="12">
    <path d="M27.2467 65.7979H74.442V76.4051H27.2467V65.7979Z" fill="white"/>
  </mask>
  <g mask="url(#mask0_226_484)">
    <path d="M74.442 76.3919C74.442 76.3919 73.855 76.012 72.796 75.3267C71.7123 74.6848 70.161 73.733 68.1405 72.7785C66.128 71.8098 63.6754 70.7934 60.8792 69.9133C60.7057 69.8566 60.5304 69.7999 60.3542 69.7424C60.3276 69.7344 60.3019 69.7273 60.2762 69.7194C60.1921 69.6866 60.1036 69.6547 60.0133 69.6237C59.6945 69.5095 59.3404 69.382 58.9525 69.243C58.7586 69.1748 58.5559 69.1005 58.3443 69.0279C58.1309 68.9615 57.9095 68.8933 57.6793 68.8216C57.4491 68.7507 57.2109 68.6772 56.9657 68.602C56.8426 68.5639 56.7178 68.5258 56.5911 68.4869C56.5274 68.4674 56.4628 68.4479 56.399 68.4284C56.3335 68.4107 56.268 68.3939 56.2024 68.3762C55.673 68.2381 55.1143 68.092 54.5272 67.9388C52.1667 67.3739 49.3033 66.8754 46.0883 66.6629C45.0214 66.5894 43.9155 66.5496 42.7786 66.5496C40.4952 66.5496 38.0886 66.7081 35.6245 67.0631C32.9974 67.4421 30.4891 68.0158 28.1728 68.7304C28.0117 68.7658 27.8709 68.7968 27.7505 68.8233C27.5893 68.8596 27.4689 68.895 27.3866 68.9154C27.3042 68.9367 27.2626 68.9473 27.2626 68.9473C27.2626 68.9473 27.3024 68.9313 27.3812 68.9004C27.4609 68.8703 27.5769 68.8189 27.7328 68.764C28.0462 68.6569 28.5075 68.4984 29.1016 68.2947C29.4 68.1965 29.7294 68.0734 30.0977 67.9733C30.466 67.8671 30.8662 67.752 31.2957 67.628C31.5108 67.5669 31.7331 67.5041 31.9633 67.4385C32.1961 67.3836 32.4352 67.3261 32.6822 67.2676C33.1763 67.1517 33.6978 67.0242 34.2485 66.9029C36.4568 66.4504 39.1245 66.0546 42.111 65.9112C42.9088 65.8713 43.7278 65.8501 44.5672 65.8501C46.8684 65.8501 49.3139 66.0086 51.8241 66.3743C52.0383 66.4044 52.2517 66.4345 52.4651 66.4646C52.6767 66.5035 52.8874 66.5407 53.0982 66.5788C53.5179 66.6567 53.9358 66.7329 54.3502 66.809C54.5582 66.8444 54.7619 66.894 54.9664 66.94C55.17 66.9861 55.3737 67.033 55.5756 67.0791C55.9802 67.1738 56.3831 67.2597 56.778 67.3615C57.172 67.4704 57.5616 67.5784 57.9485 67.6847C58.3345 67.7927 58.7179 67.8928 59.0898 68.0203C59.4634 68.1416 59.8335 68.262 60.1992 68.3815C60.3807 68.4417 60.5631 68.4984 60.742 68.5621C60.9208 68.6285 61.097 68.6949 61.2732 68.7596C64.0933 69.7911 66.5237 70.9979 68.4805 72.141C68.9666 72.4349 69.4306 72.7103 69.8627 72.9804C70.2868 73.2646 70.687 73.532 71.0615 73.7825C71.4387 74.0269 71.7698 74.2855 72.0806 74.513C72.3896 74.7432 72.6712 74.9531 72.9253 75.1417C73.4185 75.5392 73.7957 75.8553 74.0516 76.0669C74.3074 76.2794 74.442 76.3919 74.442 76.3919Z" fill="white"/>
  </g>
  <mask id="mask1_226_484" style="mask-type:luminance" maskUnits="userSpaceOnUse" x="11" y="67" width="51" height="12">
    <path d="M11.5668 67.1165H61.9798V78.2461H11.5668V67.1165Z" fill="white"/>
  </mask>
  <g mask="url(#mask1_226_484)">
    <path d="M11.5668 78.2471C11.5668 78.2471 11.7049 78.1214 11.9688 77.8805C12.1007 77.761 12.2645 77.6122 12.4584 77.4369C12.5558 77.3502 12.6603 77.2554 12.7719 77.1545C12.8285 77.104 12.8861 77.0527 12.9463 76.9986C12.9755 76.9721 13.0056 76.9446 13.0366 76.9172C13.0685 76.8915 13.1012 76.8649 13.134 76.8384C13.3979 76.6241 13.6909 76.3859 14.0123 76.1256C14.1735 75.9964 14.3408 75.86 14.5161 75.7192C14.6915 75.5793 14.8836 75.4483 15.0775 75.304C15.4697 75.0215 15.8841 74.7116 16.3348 74.3991C16.7943 74.0989 17.2804 73.7828 17.7904 73.4508C19.8587 72.1652 22.4459 70.8122 25.4661 69.663C26.3338 69.3309 27.2378 69.0193 28.1728 68.7306C28.4455 68.6704 28.7767 68.5978 29.1609 68.5128C29.4673 68.4473 29.8038 68.3596 30.1801 68.2977C30.5537 68.2295 30.9601 68.1542 31.3966 68.0736C31.6144 68.0338 31.8402 67.9922 32.0722 67.9488C32.3068 67.9152 32.5485 67.8797 32.7965 67.8434C33.2941 67.7726 33.8182 67.6911 34.369 67.615C36.5781 67.3449 39.2166 67.136 42.142 67.1289C42.2217 67.1289 42.3032 67.1289 42.3829 67.1289C45.2428 67.1289 48.3701 67.3308 51.6142 67.8036C51.8223 67.8319 52.0304 67.8611 52.2376 67.8895C52.4439 67.9258 52.6502 67.9621 52.8547 67.9984C53.2646 68.0692 53.6719 68.1401 54.0766 68.21C54.2793 68.2419 54.4785 68.2879 54.6778 68.3295C54.8779 68.3711 55.0762 68.4128 55.2736 68.4544C55.6694 68.5394 56.0634 68.6146 56.4504 68.7049C56.8373 68.7997 57.2198 68.8944 57.5988 68.9883C57.9777 69.0821 58.3558 69.1671 58.7223 69.2787C59.0907 69.3832 59.4555 69.4868 59.8158 69.5895C59.9699 69.6337 60.124 69.6745 60.2763 69.7196C60.487 69.8011 60.6773 69.8826 60.85 69.9516C61.0908 70.0508 61.2945 70.1349 61.4592 70.2022C61.7877 70.3385 61.9603 70.4103 61.9603 70.4103C61.9603 70.4103 61.7806 70.3589 61.4379 70.2606C61.2679 70.2119 61.0563 70.1508 60.8075 70.0782C60.5569 70.0074 60.2727 69.9153 59.9442 69.8383C59.6175 69.7559 59.2545 69.6647 58.8569 69.5647C58.6586 69.5142 58.4523 69.462 58.2371 69.408C58.0202 69.3619 57.7944 69.3132 57.5607 69.2636C57.3278 69.2132 57.087 69.1609 56.8373 69.1069C56.7133 69.0804 56.5867 69.0529 56.4583 69.0255C56.3946 69.0113 56.33 68.9971 56.2644 68.983C56.1989 68.9715 56.1334 68.9599 56.067 68.9476C55.5348 68.8528 54.9735 68.7519 54.3829 68.6465C53.2567 68.465 52.0251 68.2994 50.7022 68.1675C50.5668 68.1463 50.4304 68.1259 50.2941 68.1038C50.1931 68.0896 50.0922 68.071 49.9904 68.0595C49.8877 68.048 49.7858 68.0365 49.684 68.0249C49.2741 67.9789 48.8597 67.9329 48.4427 67.8868C48.2337 67.8656 48.0247 67.8364 47.8131 67.8222C47.6015 67.8071 47.389 67.793 47.1756 67.7779C46.7497 67.7496 46.3194 67.7213 45.8865 67.6929C45.4535 67.6717 45.0161 67.6681 44.576 67.6557C44.3556 67.6513 44.1351 67.646 43.9138 67.6416C43.8031 67.6389 43.6924 67.6371 43.5808 67.6345C43.4702 67.6371 43.3586 67.6389 43.247 67.6416C39.6815 67.6664 36.2921 68.0807 33.279 68.7324C31.6844 69.0751 30.196 69.4832 28.8298 69.9233C27.8098 70.1969 26.8226 70.4935 25.8752 70.8105C22.8842 71.8057 20.2758 72.9665 18.1508 74.0768C17.624 74.3636 17.1219 74.6372 16.6473 74.8967C16.179 75.1676 15.7451 75.4377 15.3343 75.682C15.1306 75.8069 14.9287 75.9202 14.7428 76.0424C14.5578 76.1655 14.3798 76.2841 14.2089 76.3974C13.8662 76.6241 13.5537 76.8313 13.2712 77.0172C12.1742 77.8088 11.5668 78.2471 11.5668 78.2471Z" fill="white"/>
  </g>
  <path d="M28.8298 69.9231C30.196 69.483 31.6844 69.0749 33.279 68.7322C36.2921 68.0805 39.6815 67.6662 43.247 67.6414C43.3586 67.6387 43.4702 67.6369 43.5808 67.6343C43.6924 67.6369 43.8031 67.6387 43.9138 67.6414C44.1351 67.6458 44.3556 67.6511 44.576 67.6555C45.0161 67.6679 45.4535 67.6715 45.8865 67.6927C46.3194 67.721 46.7497 67.7494 47.1756 67.7777C47.389 67.7928 47.6015 67.8069 47.8131 67.822C48.0247 67.8362 48.2337 67.8654 48.4427 67.8866C48.8597 67.9327 49.2741 67.9787 49.684 68.0247C49.7858 68.0363 49.8877 68.0478 49.9904 68.0593C50.0922 68.0708 50.1931 68.0894 50.2941 68.1035C50.4304 68.1257 50.5668 68.146 50.7022 68.1673C49.2475 68.0221 47.6847 67.9185 46.0343 67.8804C45.5447 67.8671 45.048 67.8609 44.5433 67.8609C41.8056 67.8609 38.8624 68.0557 35.8299 68.4931C33.3791 68.8464 31.0274 69.3325 28.8298 69.9231Z" fill="white"/>
  <path d="M60.2762 69.7196C60.124 69.6744 59.9699 69.6337 59.8158 69.5894C59.4555 69.4867 59.0907 69.3831 58.7223 69.2787C58.3558 69.1671 57.9777 69.0821 57.5987 68.9882C57.2198 68.8944 56.8373 68.7996 56.4504 68.7049C56.0634 68.6146 55.6694 68.5393 55.2736 68.4543C55.0762 68.4127 54.8779 68.3711 54.6778 68.3295C54.4785 68.2879 54.2793 68.2418 54.0766 68.21C53.6719 68.14 53.2646 68.0692 52.8547 67.9983C52.6502 67.962 52.4439 67.9257 52.2376 67.8894C52.0304 67.8611 51.8223 67.8319 51.6142 67.8036C48.3701 67.3307 45.2428 67.1289 42.3829 67.1289C42.3032 67.1289 42.2217 67.1289 42.142 67.1289C39.2166 67.136 36.5781 67.3449 34.369 67.615C33.8182 67.6911 33.2941 67.7726 32.7965 67.8434C32.5485 67.8797 32.3068 67.9151 32.0722 67.9488C31.8402 67.9921 31.6144 68.0338 31.3966 68.0736C30.9601 68.1542 30.5537 68.2294 30.1801 68.2976C29.8038 68.3596 29.4673 68.4473 29.1609 68.5128C28.7767 68.5978 28.4455 68.6704 28.1728 68.7306C30.4891 68.0161 32.9974 67.4423 35.6245 67.0633C38.0886 66.7083 40.4952 66.5498 42.7786 66.5498C43.9155 66.5498 45.0214 66.5896 46.0883 66.6631C49.3033 66.8756 52.1667 67.3741 54.5272 67.939C55.1143 68.0922 55.673 68.2383 56.2024 68.3764C56.268 68.3941 56.3335 68.411 56.399 68.4287C56.4628 68.4481 56.5274 68.4676 56.5911 68.4871C56.7178 68.5261 56.8426 68.5641 56.9657 68.6022C57.2109 68.6775 57.4491 68.751 57.6793 68.8218C57.9095 68.8935 58.1309 68.9617 58.3443 69.0281C58.5559 69.1007 58.7586 69.1751 58.9526 69.2432C59.3404 69.3823 59.6945 69.5098 60.0133 69.624C60.1036 69.655 60.1921 69.6868 60.2762 69.7196Z" fill="white"/>
  <path d="M44.9028 28.5618C44.5778 28.2262 43.9377 29.1931 43.8367 29.0886C43.6145 28.8575 44.692 27.3319 44.2582 27.1371C43.8279 26.9441 43.4666 28.6822 43.2718 28.5848C43.0009 28.4502 43.5773 26.3881 43.2745 26.2836C42.7724 26.1092 42.6715 28.4121 42.5121 28.4679C42.1048 28.6131 42.5245 26.9291 42.0579 26.8697C41.7188 26.8255 41.8472 28.3546 41.6852 29.1187C41.6099 29.4764 40.844 27.9508 40.6085 28.6778C40.5306 28.9186 41.0415 29.7518 41.1247 30.3751C41.1752 30.7496 41.1911 31.0941 41.1521 31.4482C41.0822 31.9432 40.8343 33.0429 39.9657 34.1682C39.7178 34.4896 39.5486 34.7925 39.4397 35.0802H39.4389C39.2485 35.3556 39.0767 35.6088 38.9138 35.8479L38.5871 35.7275C38.5871 35.7275 37.6698 37.5089 37.2138 37.9693C37.112 38.0738 36.9517 38.2199 36.7667 38.3846C36.9995 36.9971 36.9225 35.8496 35.7706 35.0944C35.2136 34.7287 34.5212 33.3944 34.0989 33.1031C33.9626 33.0083 33.8483 32.9384 33.7421 32.8826C33.7987 32.7011 33.8324 32.5276 33.8386 32.3664C33.9316 30.1909 31.4612 30.3866 31.4612 30.3866C32.205 30.7567 32.3157 31.2366 31.7278 31.4766C30.5227 31.9697 29.0086 32.5479 27.7602 34.8341C27.2573 35.7567 26.997 36.7722 27.1271 37.516C26.8004 37.4257 26.4445 37.2433 26.3506 36.875C26.3506 36.875 25.9681 38.2633 27.8071 38.4802C27.8071 38.4802 27.0855 38.8547 27.831 40.012C27.831 40.012 27.878 39.5693 28.0976 39.162C28.4083 39.7517 29.052 40.275 29.663 40.6734C30.8229 41.4287 32.0456 41.5597 32.0456 41.5597C32.398 41.6509 32.7593 41.7093 33.1196 41.7253C33.0904 41.7518 33.0621 41.7793 33.0337 41.8067C32.6318 42.013 31.5684 42.6603 30.667 44.084C30.667 44.084 29.8108 45.9035 29.4372 46.9873C29.4372 46.9873 29.5089 47.0696 29.6302 47.2016C29.5974 47.2919 29.5665 47.3787 29.5381 47.461C29.2991 47.8098 29.1246 48.2703 29.052 48.8892C28.8856 50.3014 28.2932 51.2603 27.9975 51.6632C27.7779 51.9439 27.5247 52.1794 27.2272 52.4122C26.7314 52.8001 25.7822 53.0391 25.6697 53.2658C25.3297 53.9502 26.9447 53.3933 26.7491 53.7023C26.3303 54.361 25.1686 55.3651 25.4413 55.5714C25.8176 55.8539 26.6951 54.3566 26.8854 54.7444C26.9598 54.895 25.4209 56.6127 25.9017 56.8384C26.1921 56.9748 27.2219 55.0977 27.5105 55.1907C27.7177 55.2571 26.7597 56.7526 27.2033 56.9146C27.6504 57.0784 27.9461 55.2341 28.2667 55.2243C28.4128 55.2199 28.1932 56.3585 28.6607 56.3453C28.7961 56.3417 28.8316 55.9973 28.9077 55.034C28.9759 54.1822 29.2902 54.0653 29.4044 53.0347C29.4142 52.9506 29.5594 52.7195 29.7542 52.4362C29.7931 52.3892 29.8321 52.3405 29.8728 52.2901C30.6608 51.3019 31.1859 50.3908 31.5303 49.6126C31.5675 49.5639 31.6056 49.5116 31.6463 49.4523C31.7074 49.3638 31.7667 49.2779 31.8252 49.1929C31.973 49.2823 32.1094 49.346 32.2262 49.3726C32.2262 49.3726 33.0098 47.6629 33.7616 48.3995C33.8731 48.5607 33.9732 48.7581 34.0892 48.96C34.6328 49.9118 34.6567 50.8867 34.5301 52.1404C34.4168 52.6017 34.2105 53.1764 33.8448 53.8688C33.1099 55.2597 33.2648 56.1124 33.7261 57.0182C33.4915 58.519 33.1551 60.2083 32.7664 60.8095C32.0093 61.9792 31.9881 63.5419 31.9881 63.5419C31.9881 63.5419 32.0571 63.6039 32.1802 63.6978C32.0022 64.4238 31.8942 65.1826 31.5046 65.867C31.3196 66.1911 31.046 66.4815 30.5156 67.1385C29.8223 67.9982 30.1978 68.6003 30.8423 68.6986C31.0548 68.7305 31.4072 68.8713 31.6339 69.0191C32.7017 69.7159 34.2822 70.0807 34.4708 69.6327C34.7143 69.0572 33.8882 68.5622 33.2029 67.9106C32.2147 66.972 33.3419 65.8396 34.0688 64.6062C34.3149 64.6496 34.5673 64.6593 34.817 64.6186C35.4173 64.5185 36.1424 61.5816 36.1424 61.5816L35.9477 63.2134C35.9477 63.2134 36.1123 63.2976 36.3709 63.4171C36.4975 64.2104 36.7472 65.0011 36.6631 65.8467C36.6259 66.2168 36.4931 66.5931 36.2753 67.4085C35.9902 68.4755 36.5781 68.873 37.2067 68.7021C37.4148 68.6455 37.7911 68.6605 38.0611 68.6747C39.4867 68.7517 40.9131 68.5738 40.9042 68.0877C40.8927 67.4626 39.9356 67.3439 39.0457 67.026C37.908 66.6205 38.2249 65.4057 38.4268 64.1458C38.7943 64.214 39.1077 64.2104 39.2821 64.075C39.2821 64.075 39.9072 60.6493 40.4332 58.5916C40.6368 57.7965 40.7758 57.1891 40.8591 56.7375C41.2212 56.0035 41.5683 55.273 41.8011 54.4939V54.493C42.6715 52.0244 41.7029 49.3425 40.404 46.5844C39.9869 45.699 39.7974 44.7552 39.7328 43.883C39.7328 43.883 39.7018 40.955 41.0308 39.1576C42.0198 37.8215 42.1553 36.8201 42.1553 36.8201L41.7781 36.4243C42.243 35.5539 42.7397 34.2019 42.9318 32.308C42.9389 32.2433 42.9442 32.1822 42.9495 32.1212C43.0089 31.782 43.0664 31.5155 43.1178 31.4491C43.7579 30.6319 43.6145 30.3291 44.1626 29.6721C44.7815 28.9301 44.9975 28.6583 44.9028 28.5618Z" fill="white"/>
  <path d="M63.4186 46.8183C60.9244 46.6775 61.5327 43.6157 59.7131 42.8401C59.6892 42.7285 59.6432 42.6196 59.5715 42.5205C59.4652 42.3735 59.3191 42.2708 59.1589 42.2159C59.1438 42.1229 59.1084 42.0326 59.0499 41.9511C58.9207 41.7723 58.7144 41.6837 58.509 41.6961C58.4895 41.6528 58.4682 41.612 58.4452 41.5748C57.1968 39.5455 55.1152 39.1143 53.8977 39.6464C53.3638 39.8793 52.8193 40.2892 52.2862 40.9852C52.2632 41.0135 52.1357 41.2136 52.5669 41.8112C52.3633 42.1141 52.1596 42.3921 51.9365 42.578C51.3061 43.1004 51.083 43.7822 51.1812 44.5436C50.9997 44.3807 50.8404 44.2337 50.7447 44.1346C50.3799 43.76 49.653 42.3168 49.653 42.3168L49.3883 42.4116C49.259 42.2177 49.1218 42.0122 48.9704 41.7882C48.8845 41.5554 48.7499 41.3101 48.5524 41.0489C47.8592 40.1352 47.667 39.2462 47.6148 38.8469C47.5856 38.5609 47.6006 38.2829 47.644 37.9809C47.7157 37.4789 48.1336 36.8104 48.0726 36.6156C47.8884 36.0277 47.2589 37.2531 47.2004 36.9636C47.0756 36.3465 47.1898 35.114 46.9162 35.1467C46.539 35.1919 46.8666 36.5528 46.5381 36.4332C46.4106 36.3872 46.3451 34.5287 45.9396 34.6659C45.6943 34.7483 46.1441 36.4155 45.9254 36.5227C45.7669 36.5997 45.488 35.1945 45.1392 35.3477C44.7877 35.5018 45.6465 36.7396 45.4659 36.9246C45.3835 37.0087 44.8744 36.2234 44.6097 36.4917C44.5327 36.5696 44.7053 36.79 45.1985 37.393C45.6359 37.9269 45.5181 38.1695 46.0281 38.8336C46.0697 38.8876 46.114 39.1028 46.1592 39.3772C46.1636 39.4259 46.168 39.4755 46.1724 39.5278C46.3141 41.0569 46.7046 42.1504 47.0738 42.856L46.7674 43.1721C46.7674 43.1721 46.8693 43.9814 47.6573 45.066C48.7171 46.5252 48.6711 48.8866 48.6711 48.8866C48.6127 49.5905 48.4533 50.3493 48.1106 51.0612C47.0437 53.2765 46.2716 55.1996 46.7444 56.534C46.7887 56.9111 46.8737 57.2715 46.9853 57.6204C47.1818 58.411 47.5077 59.555 47.9946 60.7902C48.6162 62.3697 48.8756 65.1809 48.8756 65.1809C49.0093 65.2872 49.2776 65.3642 49.6096 65.4209C49.7602 66.3727 49.9275 67.259 49.0616 67.56C48.3408 67.8097 47.5687 67.8983 47.5555 68.4021C47.5448 68.7943 48.6941 68.9475 49.8443 68.8961C50.0621 68.8864 50.3658 68.8767 50.5331 68.9236C51.0387 69.0661 51.5159 68.75 51.2937 67.8868C51.1237 67.228 51.0192 66.9234 50.9918 66.6242C50.959 66.2594 51.0024 65.9087 51.067 65.5625C51.6859 65.5971 52.2411 65.6121 52.4394 65.6467C52.6555 65.6847 52.8742 65.6741 53.0876 65.6334C53.6648 66.6366 54.5742 67.5618 53.7684 68.3144C53.2106 68.8342 52.5412 69.2282 52.7325 69.6948C52.8821 70.0569 54.1598 69.7736 55.0257 69.2193C55.2099 69.1016 55.495 68.99 55.6668 68.9661C56.1874 68.8917 56.4946 68.4083 55.9412 67.7097C55.518 67.1767 55.2993 66.9403 55.1523 66.6782C54.8362 66.1097 54.7583 65.4811 54.6131 64.8825C54.6733 64.8356 54.707 64.8064 54.707 64.8064C54.707 64.8064 54.6999 63.5571 54.104 62.6168C53.5072 61.6773 53.7507 58.6634 53.7507 58.6634C53.8313 58.2145 53.7711 57.7054 53.4762 57.0271C52.8104 55.4998 52.7892 54.3151 52.7892 54.2832C52.8343 53.837 52.9521 53.4261 53.1876 53.0224C53.2823 52.8595 53.3647 52.701 53.4559 52.5726C54.0677 51.9829 54.6875 53.3677 54.6875 53.3677C54.7814 53.3473 54.892 53.2969 55.0124 53.226C55.0585 53.2942 55.1054 53.3642 55.1541 53.4368C55.1869 53.4837 55.217 53.5271 55.2462 53.566C55.5189 54.1965 55.9359 54.9349 56.5655 55.738C56.5973 55.7787 56.6283 55.8177 56.6593 55.8566C56.8143 56.0868 56.9303 56.2736 56.9373 56.3409C57.0223 57.1741 57.2747 57.2697 57.3234 57.9577C57.3783 58.7351 57.4048 59.0131 57.5137 59.0175C57.8901 59.0308 57.7218 58.1118 57.8396 58.1162C58.0981 58.1259 58.3239 59.6152 58.6852 59.4868C59.0446 59.3593 58.2823 58.1463 58.4496 58.0941C58.6825 58.0215 59.5006 59.5426 59.7353 59.4346C60.1248 59.2557 58.8959 57.8594 58.957 57.7381C59.1137 57.4265 59.8105 58.6412 60.116 58.4155C60.3373 58.2517 59.4077 57.4335 59.0747 56.8987C58.9189 56.6482 60.2178 57.1086 59.9478 56.5543C59.8592 56.371 59.0951 56.1709 58.6984 55.8548C58.4594 55.6645 58.2575 55.4732 58.0822 55.2457C57.8458 54.9181 57.3747 54.1407 57.2508 53.0003C57.1968 52.5 57.0586 52.1281 56.8692 51.8448C56.847 51.7784 56.8222 51.7084 56.7966 51.6349C56.8948 51.5287 56.9533 51.4641 56.9533 51.4641C56.6602 50.5866 55.982 49.1133 55.982 49.1133C55.2657 47.9578 54.4121 47.4292 54.0898 47.2592C53.9623 47.1361 53.8322 47.014 53.6985 46.8918C54.0836 46.9422 54.4688 46.9387 54.8424 46.8873C55.2931 47.2149 55.6783 47.307 55.6783 47.307C55.8137 46.6731 56.6062 46.3393 56.8488 46.1825C57.6581 45.6593 58.1309 44.9961 58.4496 44.2461C58.4824 44.1682 58.5125 44.0823 58.5391 43.9911C58.6825 44.1665 58.9393 44.2028 59.1252 44.0682C59.2332 43.9911 59.2943 43.8725 59.3032 43.7494C59.3297 43.7353 59.3554 43.7184 59.3802 43.7007C59.4174 43.6733 59.451 43.6432 59.4829 43.6122C60.6897 44.7677 60.1868 47.5337 62.2906 47.8445C60.9421 46.8988 61.1378 45.6725 61.1378 45.6725C62.2853 47.4637 63.4186 46.8183 63.4186 46.8183Z" fill="white"/>
  <path d="M64.0738 37.8524L63.6214 37.7869L63.4186 37.377L63.2167 37.7869L62.7634 37.8524L63.091 38.1712L63.014 38.621L63.4186 38.4085L63.8232 38.621L63.7462 38.1712L64.0738 37.8524Z" fill="white"/>
  <path d="M44.7939 49.9659L44.592 49.5569L44.3892 49.9659L43.9368 50.0315L44.2644 50.3511L44.1873 50.8009L44.592 50.5884L44.9966 50.8009L44.9196 50.3511L45.2472 50.0315L44.7939 49.9659Z" fill="white"/>
  <path d="M50.4906 30.9603L50.8519 30.7708L51.214 30.9603L51.1449 30.5583L51.4371 30.2732L51.0334 30.2148L50.8519 29.8491L50.6712 30.2148L50.2666 30.2732L50.5597 30.5583L50.4906 30.9603Z" fill="white"/>
  <path d="M55.2267 34.6871L54.9815 34.1904L54.7362 34.6871L54.1881 34.7668L54.5848 35.1529L54.4909 35.6974L54.9815 35.4406L55.472 35.6974L55.3781 35.1529L55.7748 34.7668L55.2267 34.6871Z" fill="white"/>
  <path d="M43.9837 41.3259L43.5773 42.1467L42.6706 42.2778L43.3267 42.917L43.1718 43.8193L43.9837 43.3934L44.7947 43.8193L44.6398 42.917L45.2959 42.2778L44.3892 42.1467L43.9837 41.3259Z" fill="white"/>
  <path d="M62.8909 56.239L62.4854 55.4182L62.0798 56.239L61.1732 56.37L61.8293 57.0093L61.6743 57.9115L62.4854 57.4857L63.2964 57.9115L63.1415 57.0093L63.7984 56.37L62.8909 56.239Z" fill="white"/>
  <path d="M48.417 26.697L47.2057 26.0613L45.9954 26.697L46.2265 25.3503L45.2472 24.3967L46.6001 24.201L47.2057 22.9756L47.8114 24.201L49.1652 24.3967L48.1859 25.3503L48.417 26.697Z" fill="white"/>
  <mask id="mask2_226_484" style="mask-type:luminance" maskUnits="userSpaceOnUse" x="51" y="20" width="5" height="4">
    <path d="M51.9533 20.616H55.1267V23.5733H51.9533V20.616Z" fill="white"/>
  </mask>
  <g mask="url(#mask2_226_484)">
    <path d="M54.2253 22.4497L54.9815 21.713L53.9358 21.5616L53.4692 20.616L53.0008 21.5616L51.9551 21.713L52.7122 22.4497L52.5333 23.49L53.4692 22.9986L54.4042 23.49L54.2253 22.4497Z" fill="white"/>
  </g>
  <path d="M34.3362 28.8823L33.967 28.135L33.5978 28.8823L32.7717 29.0018L33.3693 29.5836L33.2285 30.4052L33.967 30.0165L34.7054 30.4052L34.5646 29.5836L35.1623 29.0018L34.3362 28.8823Z" fill="white"/>
  <path d="M5.08293 40.7059C4.68361 40.7422 4.4658 41.0291 4.39496 41.3567C4.31085 41.7462 4.44278 42.1916 4.75179 42.3076C5.25116 42.4891 5.85236 42.652 6.48366 42.7893C8.37757 43.2001 10.569 43.4055 11.2304 43.3692C11.7448 43.3666 12.006 42.8769 12.1751 42.0969C12.2778 41.6214 12.3451 41.0485 12.4195 40.404C12.4301 40.2835 12.3956 40.1782 12.2725 40.1436C11.859 40.0542 11.5668 41.4027 11.2322 42.0066C11.1604 42.1465 11.0772 42.1934 10.9444 42.1651C10.9214 42.1597 10.8992 42.1473 10.8762 42.142C10.2148 41.9171 7.84543 41.2159 6.30215 40.8812C5.74877 40.7608 5.29897 40.6882 5.08293 40.7059Z" fill="white"/>
  <path d="M7.94742 36.7972C7.59591 37.8234 8.46362 38.6353 9.51992 38.9975C10.6515 39.3853 12.0097 39.2613 12.3285 38.3325L12.3568 38.2502C12.641 37.1753 11.6856 36.1987 10.5842 35.8206C9.53585 35.4611 8.3432 35.6426 7.94742 36.7972ZM11.7414 38.1988L11.7335 38.2219C11.6095 38.584 10.7276 38.476 9.92809 38.2015C9.16575 37.9403 8.48132 37.5277 8.57695 37.1983L8.58492 37.1762C8.73987 36.7228 9.44112 36.7698 10.1424 37.0106C10.995 37.3028 11.8503 37.8827 11.7414 38.1988Z" fill="white"/>
  <path d="M9.23312 34.5735C9.39161 34.7045 10.0043 35.0295 10.7073 35.3721C11.568 35.7909 12.5747 36.2372 13.0183 36.3824C13.3193 36.4753 13.5991 36.2655 13.7346 35.9866C13.8638 35.721 13.8612 35.3996 13.631 35.2349C12.8438 34.6647 11.9142 34.0785 11.0535 33.6243C10.9889 33.5924 10.9136 33.565 10.8419 33.5296C10.741 33.4809 10.648 33.418 10.579 33.3224C10.3948 33.0461 10.3505 32.6256 10.4869 32.3458C10.5604 32.1952 10.6914 32.0908 10.8694 32.0704C11.2793 32.0128 11.7335 32.1545 12.1922 32.3785C12.974 32.7593 13.7647 33.3746 14.2888 33.6296C14.5111 33.7385 14.6829 33.7863 14.7997 33.7279C14.8847 33.681 14.952 33.6163 14.9936 33.5296C15.0353 33.4437 15.0485 33.3436 15.0476 33.2365C15.0866 32.8478 14.1897 32.0474 13.1502 31.5409C12.2108 31.0832 11.1527 30.8698 10.5993 31.4426C10.4151 31.6011 10.2885 31.788 10.1947 31.9819C9.96004 32.4618 9.96536 32.9611 9.93879 33.1081C9.91312 33.0869 9.88478 33.0727 9.85556 33.0585C9.54744 32.908 9.13661 33.1515 8.95864 33.5172C8.80103 33.8403 8.82317 34.2503 9.23312 34.5735Z" fill="white"/>
  <path d="M13.6695 31.666C14.6063 32.2876 15.6334 32.1902 16.2257 31.3101C16.2612 31.2578 16.2921 31.2109 16.3214 31.1534C16.6118 30.6088 16.3205 29.9129 16.3249 29.9058C16.5702 30.0422 16.9624 30.2582 17.1811 30.2617C17.2918 30.2688 17.414 30.1874 17.499 30.0616C17.5698 29.9563 17.6167 29.8146 17.6158 29.6597C17.6282 29.255 14.5071 26.7794 12.5752 25.4787C11.9598 25.0643 11.4587 24.766 11.2338 24.7004C10.977 24.6243 10.7176 24.7668 10.575 24.9785C10.4369 25.1839 10.4032 25.4495 10.5653 25.6647C10.9991 26.2349 12.5114 27.4452 13.6492 28.2111L13.8015 28.3129C13.4694 28.4068 13.1604 28.5653 12.8647 28.9903L12.8249 29.0505C12.2059 29.9696 12.4716 30.8603 13.643 31.6483L13.6695 31.666ZM14.3487 28.6715C14.6134 28.7928 15.1004 29.0824 15.4581 29.3232C15.5378 29.3763 15.5989 29.4277 15.6653 29.472C16.007 29.75 16.1018 30.3521 15.8654 30.7027L15.8521 30.7222C15.5271 31.1764 14.8179 31.017 14.2424 30.6292C13.6598 30.237 13.2295 29.6207 13.4588 29.1789C13.4747 29.1417 13.5013 29.1018 13.5234 29.0691C13.7731 28.6981 14.1583 28.583 14.3487 28.6715Z" fill="white"/>
  <path d="M14.9772 24.4582C14.2662 25.2772 14.7656 26.3556 15.6085 27.0888C16.5116 27.8732 17.8168 28.2681 18.4604 27.527L18.518 27.4615C19.1847 26.5717 18.6668 25.3082 17.7875 24.5441C16.9508 23.8171 15.7776 23.5374 14.9772 24.4582ZM17.9673 27.1835L17.9513 27.2012C17.6999 27.4899 16.9234 27.0587 16.2859 26.5035C15.6776 25.9758 15.1977 25.3365 15.4102 25.0674L15.4261 25.0488C15.7396 24.6875 16.3718 24.9939 16.9313 25.4808C17.6122 26.0714 18.1869 26.9303 17.9673 27.1835Z" fill="white"/>
  <path d="M17.0042 22.8819C17.1016 23.0625 17.5479 23.5938 18.0703 24.1755C18.7104 24.8865 19.4763 25.6789 19.8331 25.98C20.0766 26.1792 20.414 26.0898 20.6459 25.8817C20.8646 25.6842 20.9824 25.3859 20.831 25.1459C20.3157 24.3225 19.6746 23.43 19.0478 22.6853C18.9991 22.6322 18.9397 22.5782 18.8866 22.5189C18.8122 22.4356 18.7494 22.3418 18.7219 22.2276C18.6537 21.9017 18.7715 21.4962 19.0026 21.2881C19.1274 21.1757 19.2877 21.1279 19.4604 21.1766C19.8623 21.2766 20.2298 21.5786 20.5716 21.9584C21.1524 22.6048 21.6544 23.4734 22.044 23.9063C22.2087 24.0896 22.3504 24.1994 22.4805 24.1888C22.577 24.1773 22.6638 24.1418 22.7346 24.0781C22.8064 24.0143 22.8559 23.9267 22.8949 23.8266C23.0773 23.4804 22.5469 22.402 21.774 21.5423C21.0754 20.7658 20.1749 20.1699 19.4462 20.4922C19.216 20.571 19.0283 20.6967 18.8689 20.8401C18.4714 21.1978 18.2881 21.6627 18.2084 21.7884C18.1933 21.7592 18.1712 21.7353 18.1499 21.7114C17.9206 21.4564 17.4487 21.5272 17.1459 21.799C16.8794 22.039 16.7457 22.4277 17.0042 22.8819Z" fill="white"/>
  <path d="M26.1182 20.1256C25.3939 19.0658 23.0582 20.6515 22.1081 19.6006C22.0523 19.5324 21.9824 19.4447 21.9107 19.3394C21.5954 18.8781 21.2749 18.1405 21.8062 17.7297L21.8389 17.7075C22.2799 17.4056 22.7491 17.8102 23.1051 18.33C23.2352 18.5212 23.3503 18.732 23.4451 18.9276C23.4592 18.948 23.4663 18.9719 23.4796 18.9914C23.623 19.2021 23.9126 19.1879 24.1366 19.0357C24.3606 18.8825 24.5235 18.5974 24.4447 18.2556C24.3969 17.9599 24.2968 17.6996 24.1481 17.4826C23.662 16.7708 22.6969 16.5317 21.7858 17.1347L21.7265 17.1754C20.6666 17.8997 20.4798 19.0126 21.0226 19.8494L21.0536 19.8954C22.1789 21.5414 24.7068 20.1238 25.2017 20.8481C25.2327 20.8941 25.2575 20.9446 25.2743 21.011C25.3257 21.2563 25.1832 21.5564 24.8733 21.7681L24.8538 21.7813C24.419 22.0779 23.8063 22.1293 23.2822 21.8699C23.1086 21.7858 22.9625 21.7982 22.8572 21.8699C22.6464 22.0142 22.5995 22.3843 22.7792 22.6473C22.8244 22.7137 22.8873 22.7765 22.9696 22.827C23.4699 23.0643 24.3393 23.0794 25.2859 22.4427L25.3053 22.4286C26.1615 21.8442 26.6264 20.8702 26.1182 20.1256Z" fill="white"/>
  <path d="M27.1937 12.3286L27.1839 12.3064C27.0972 12.1001 26.6031 12.1187 26.1551 12.3082C25.707 12.4977 25.3095 12.8474 25.4264 13.3087C25.8186 14.442 26.2303 15.5408 26.6624 16.5617C27.4008 18.3104 28.2039 19.8413 29.0814 20.9339C29.3116 21.2518 29.6666 21.2323 29.9677 21.1048C30.2537 20.9835 30.4856 20.7737 30.5016 20.6887C30.5175 20.6037 30.5529 20.5629 30.5892 20.5479C30.6264 20.5319 30.6689 20.5311 30.7194 20.5275C31.0072 20.4921 31.2657 20.4266 31.5003 20.3274C32.5947 19.8643 33.087 18.7735 32.6983 17.8553C32.6425 17.7234 32.5717 17.5968 32.4796 17.4799C31.912 16.7326 30.9726 16.784 30.0491 16.9743C31.2081 16.0694 31.3595 14.4819 30.8442 13.2618C30.4493 12.3286 29.6702 11.6105 28.6528 11.5813C28.3536 11.5698 28.1101 11.6291 27.9117 11.7132C27.4566 11.9053 27.2308 12.2524 27.1937 12.3286ZM31.6606 18.329C32.0077 19.1516 31.789 19.6766 31.2081 19.9228L31.1054 19.9662C30.784 20.0671 30.3785 20.1521 30.2413 19.8466C30.0261 19.4004 29.7791 18.9586 29.5931 18.5185C29.5586 18.437 29.5356 18.3609 29.5011 18.2803L29.4984 18.2724C29.3612 17.9492 29.6923 17.7491 29.9128 17.6561C29.9641 17.634 30.019 17.6198 30.0482 17.6074C30.8841 17.332 31.4676 17.873 31.6606 18.329ZM29.3798 16.8858C29.3399 16.9363 29.2425 17.0124 29.1619 17.0469C29.0955 17.0744 29.0451 17.0788 29.03 17.0416L29.0238 17.0275C28.9185 16.8203 28.7945 16.5263 28.6519 16.1881C28.1552 15.0131 27.5089 13.3202 27.4239 12.9758C27.3761 12.7792 27.6957 12.4711 28.0118 12.3374L28.0773 12.31C28.6643 12.14 29.2089 12.6712 29.5409 13.4575C29.9818 14.5005 30.058 15.9924 29.3798 16.8858Z" fill="white"/>
  <path d="M35.557 14.0715L35.5721 14.0671C35.6721 14.0405 35.974 13.8696 35.9342 13.534C35.9324 13.4933 35.9253 13.4375 35.9067 13.3676C35.8032 12.9745 35.3994 12.2891 34.676 12.3325C34.6025 12.3352 34.5317 12.3458 34.4697 12.3626C33.9606 12.4972 33.7428 12.9833 33.5808 13.0267C33.5267 13.0409 33.4745 12.9966 33.4276 12.8523C33.2301 12.4175 32.8671 12.2909 32.528 12.3812C32.08 12.499 31.6984 12.9877 31.8515 13.5659L31.8878 13.7049C32.0304 14.245 32.8034 16.9774 33.2903 17.7894C33.3966 17.9753 33.7091 18.0328 33.9482 17.97C34.1023 17.9293 34.2271 17.8381 34.2634 17.6964C34.3776 17.3776 34.1793 15.7883 33.8641 14.222C33.7835 13.8554 34.0899 13.2047 34.4679 13.1055C34.5609 13.0807 34.6539 13.0887 34.7495 13.1383C35.1524 13.3534 35.1931 13.6314 35.3427 13.9466C35.3826 14.0352 35.472 14.0936 35.557 14.0715Z" fill="white"/>
  <path d="M36.3559 12.8051C36.3586 12.821 36.355 12.8458 36.3586 12.8689C36.4205 13.2877 36.4861 13.7215 36.556 14.1385C36.7862 15.5065 37.0501 16.7399 37.2263 17.0179C37.3706 17.1552 37.5822 17.2092 37.7628 17.1782C37.9434 17.1481 38.0931 17.0259 38.0975 16.8152C38.1869 16.0475 38.0364 14.2368 37.8655 13.2221C37.8248 12.9786 37.7823 12.775 37.746 12.6519C37.6548 12.3518 37.2847 12.2685 36.9385 12.327C36.6162 12.381 36.324 12.5678 36.3559 12.8051ZM36.6773 10.4375C36.6463 10.4428 36.6215 10.4393 36.5896 10.4446C36.2284 10.5057 35.8902 10.8049 35.8804 11.1786C35.876 11.2034 35.8813 11.2353 35.8857 11.2583C35.9362 11.5576 36.324 11.7506 36.7658 11.6851L36.8367 11.6727C37.3954 11.5788 37.6876 11.3442 37.6291 10.9006L37.6274 10.8926C37.5601 10.4915 37.0616 10.4136 36.6773 10.4375Z" fill="white"/>
  <path d="M40.283 11.9385C40.2777 11.9712 40.2803 12.0102 40.283 12.0421C40.2892 12.1058 40.3025 12.1687 40.3051 12.2085C40.3078 12.2324 40.2998 12.2413 40.2998 12.2413L40.2918 12.2422C40.0306 11.9916 39.6845 11.8685 39.3506 11.8969C38.7946 11.9429 38.2811 12.4104 38.2855 13.4109C38.2828 13.5712 38.289 13.7385 38.3023 13.8979C38.3324 14.2556 38.4095 14.6009 38.5653 14.9321C38.7981 15.4164 39.178 15.5607 39.5357 15.5306C39.7739 15.5111 39.9988 15.4199 40.1573 15.3022C40.2555 15.2384 40.345 15.1587 40.4654 15.0684C40.4751 15.4678 40.631 17.5122 40.0262 17.6503C39.9793 17.6627 39.9395 17.6662 39.8996 17.6689C39.0487 17.7406 39.4604 16.3452 38.9832 16.3859L38.9354 16.3895C38.8336 16.4143 38.7751 16.4833 38.7672 16.5798L38.7778 16.6994C38.8646 17.7397 39.4843 18.1603 39.9616 18.1205L39.9855 18.1187C41.7492 17.962 41.9024 15.5961 41.751 13.7917C41.6598 12.7115 41.4588 11.8393 41.4287 11.7703C41.3517 11.6082 41.1224 11.548 40.8842 11.5675C40.6053 11.5914 40.3211 11.7269 40.283 11.9385ZM39.8155 14.9551L39.7916 14.9569C39.4179 14.9887 39.1523 14.3946 39.0992 13.7589C39.0425 13.0913 39.224 12.3874 39.7385 12.3201L39.7703 12.3174C39.9846 12.2997 40.2449 12.4379 40.2609 12.6362L40.2617 12.6442C40.3034 13.1373 40.3609 13.6367 40.4034 14.137C40.4291 14.4469 40.2591 14.894 39.8155 14.9551Z" fill="white"/>
  <path d="M43.7087 9.15025C43.6396 8.82885 43.3333 8.65885 43.0225 8.64911C42.6798 8.63848 42.323 8.82619 42.2699 9.23171C42.2389 9.44598 42.2168 9.8763 42.1999 10.4182C42.138 12.3475 42.1557 15.7475 42.3168 16.4549C42.3806 16.7197 42.6081 16.8392 42.8233 16.8463C43.0623 16.8534 43.2899 16.725 43.3049 16.5107C43.3085 16.3992 43.4847 13.6278 43.5936 13.4791C43.7857 13.1984 44.046 13.0549 44.3648 13.0656C44.3967 13.0665 44.4285 13.0753 44.4604 13.0762C44.9208 13.1391 45.0342 13.8368 45.0085 14.6345C44.9899 15.2322 44.8969 15.883 44.7933 16.3744C44.7924 16.3983 44.7836 16.4142 44.7827 16.4381C44.7747 16.6931 45.0413 16.8374 45.329 16.8472C45.6239 16.856 45.9391 16.7223 46.0126 16.4222C46.1268 15.8591 46.2082 15.311 46.2242 14.801C46.264 13.5649 45.8957 12.6202 44.5251 12.56C44.1009 12.5857 43.6866 12.8123 43.5777 12.9921L43.583 12.8088C43.637 11.1424 43.7344 10.3243 43.7521 9.78952C43.7601 9.53452 43.7503 9.34327 43.7087 9.15025Z" fill="white"/>
  <path d="M48.3058 17.5586C49.9899 17.8331 50.5486 16.1951 50.6451 15.6045C50.6522 15.5576 50.6513 15.5169 50.6557 15.485C50.6664 15.2769 50.4512 15.1043 50.2077 15.0644C49.9554 15.0237 49.6712 15.1308 49.6127 15.493L49.6012 15.5638C49.5047 16.1535 49.07 17.1336 48.4785 17.0451L48.4705 17.0433C48.0925 16.9822 48.1482 15.949 48.3289 14.8386C48.5422 13.5318 48.9327 12.1328 48.9796 12.1408C49.3037 12.1859 50.0829 12.216 50.2396 12.1443C50.3016 12.1142 50.3326 12.0708 50.3405 12.023C50.3582 11.9132 50.2493 11.7901 50.1679 11.745C50.0625 11.6954 49.3391 11.521 49.1939 11.4723C49.1151 11.4599 49.0859 11.4386 49.0974 11.3678L49.1027 11.3368C49.2063 10.9977 49.3958 10.4797 49.4684 10.0388C49.4967 9.86525 49.5065 9.70499 49.4879 9.57307C49.4622 9.4314 49.2152 9.3101 48.9708 9.27025C48.7273 9.23041 48.4874 9.26406 48.4378 9.41812C48.366 9.51109 47.9889 11.0331 47.9163 11.2801C47.4674 11.2067 47.0308 11.3545 47.0078 11.4962L47.0069 11.5033C47.0158 11.7476 47.3762 11.8628 47.7321 11.961C47.5231 12.9943 47.3283 13.8912 47.2062 14.6394C46.9219 16.3793 47.0308 17.3506 48.266 17.5516L48.3058 17.5586Z" fill="white"/>
  <path d="M56.7436 11.4147L56.7516 11.3925C56.8313 11.1836 56.462 10.8551 56.0069 10.6815C55.5527 10.5089 55.0232 10.4859 54.7886 10.9002C54.2883 11.9902 53.8261 13.0686 53.4313 14.1046C52.7557 15.878 52.2767 17.5391 52.1545 18.9354C52.0996 19.3241 52.3705 19.5552 52.676 19.6712C52.9664 19.7818 53.279 19.7907 53.3498 19.7402C53.4197 19.6906 53.4729 19.6853 53.5101 19.6995C53.5472 19.7137 53.5791 19.7429 53.6181 19.7748C53.8509 19.9483 54.082 20.0793 54.3211 20.1705C55.4314 20.5929 56.5408 20.1458 56.8959 19.2134C56.9472 19.0797 56.9835 18.9398 56.9968 18.7911C57.1048 17.8596 56.3912 17.246 55.5917 16.7458C57.0544 16.8927 58.2621 15.8506 58.734 14.6137C59.0944 13.6672 59.028 12.6091 58.3134 11.8848C58.1063 11.6688 57.8893 11.5439 57.6874 11.4669C57.2253 11.2907 56.8233 11.3854 56.7436 11.4147ZM55.8183 18.8371C55.5005 19.6721 54.979 19.9005 54.3902 19.6756L54.2857 19.6358C53.9838 19.487 53.6322 19.2674 53.7438 18.9522C53.8979 18.4812 54.0245 17.9915 54.1945 17.5444C54.2255 17.4629 54.2618 17.3912 54.2928 17.3089L54.2954 17.3018C54.4211 16.9733 54.7983 17.0574 55.0223 17.1424C55.0737 17.1628 55.1233 17.1902 55.1534 17.2017C55.9476 17.5807 55.9945 18.3758 55.8183 18.8371ZM55.1693 16.2172C55.1065 16.2278 54.9825 16.2145 54.901 16.1835C54.8338 16.1578 54.7948 16.126 54.809 16.0888L54.8143 16.0737C54.8824 15.8524 54.9958 15.554 55.1259 15.2113C55.581 14.0187 56.2849 12.3497 56.462 12.0415C56.563 11.8662 57.0074 11.8653 57.328 11.9875L57.3944 12.0123C57.9354 12.2956 57.961 13.0562 57.6573 13.854C57.2545 14.9121 56.2779 16.0418 55.1693 16.2172Z" fill="white"/>
  <path d="M61.329 17.912C61.4095 17.8288 61.5025 17.7066 61.5857 17.5517C61.8505 17.0603 62.0099 16.2767 61.414 15.702C61.2714 15.5622 61.1218 15.4541 60.981 15.378C59.8574 14.7732 58.8436 16.066 58.1158 17.3498L58.0441 17.4835C57.5261 18.4451 57.1082 20.2132 58.1078 20.7967L58.1424 20.8162C58.9428 21.2474 60.0903 20.4789 60.3931 19.9175C60.5029 19.7139 60.5047 19.5421 60.3426 19.4553C60.1496 19.3606 60.0557 19.5182 59.9513 19.6616C59.6015 20.1256 59.1597 20.5931 58.6187 20.3018C58.5975 20.2912 58.5736 20.269 58.5452 20.254C58.2344 20.0406 58.2309 19.6767 58.817 18.5885C58.9454 18.3494 59.1039 18.0723 59.2925 17.7571C59.6414 17.8819 60.8084 18.4743 61.329 17.912ZM61.1076 16.1527C61.3263 16.3519 61.3024 16.9009 61.1129 17.2524C60.9996 17.4631 60.8278 17.5968 60.6153 17.5543C60.3701 17.5048 60.1868 17.4419 60.0531 17.3702C59.8149 17.2409 59.737 17.0992 59.7937 16.9948L59.8123 16.9593C59.93 16.7415 60.5392 15.8287 61.0093 16.0819C61.0448 16.1014 61.0757 16.127 61.1076 16.1527Z" fill="white"/>
  <path d="M64.0331 18.354C64.0083 18.3752 63.9862 18.4089 63.9676 18.4346C63.9322 18.4877 63.903 18.5452 63.8799 18.578C63.8666 18.5975 63.856 18.6001 63.856 18.6001L63.8489 18.5948C63.8038 18.2362 63.6116 17.9228 63.3354 17.7342C62.8732 17.4199 62.1808 17.4606 61.5539 18.2398C61.4512 18.3628 61.3503 18.4965 61.2609 18.6285C61.059 18.9251 60.9005 19.2421 60.8137 19.598C60.6889 20.1204 60.8934 20.4719 61.1909 20.6738C61.3884 20.8084 61.6203 20.8792 61.8169 20.8881C61.9338 20.9004 62.0533 20.8942 62.2038 20.9004C61.9595 21.2165 60.7934 22.9024 60.2364 22.6297C60.1922 22.6093 60.1594 22.5872 60.1266 22.5641C59.421 22.0842 60.6189 21.259 60.2232 20.9899L60.1833 20.9633C60.0886 20.9182 60 20.935 59.9336 21.0049L59.8663 21.1041C59.2784 21.9683 59.4953 22.6846 59.8902 22.9537L59.9106 22.967C61.3786 23.9569 62.9883 22.2153 64.0065 20.7181C64.6166 19.8211 65.0088 19.0172 65.0292 18.9446C65.0708 18.7701 64.9309 18.5789 64.7335 18.4443C64.5024 18.2876 64.1951 18.2132 64.0331 18.354ZM61.7709 20.4028L61.7505 20.3896C61.4406 20.1788 61.608 19.5502 61.9674 19.0225C62.3437 18.4682 62.9272 18.0361 63.3699 18.3079L63.3956 18.3257C63.5736 18.447 63.6887 18.7179 63.5762 18.8826L63.5718 18.8888C63.2938 19.2978 63.0246 19.722 62.7422 20.1381C62.5669 20.3949 62.1534 20.6348 61.7709 20.4028Z" fill="white"/>
  <path d="M65.495 19.8527C65.4844 19.8651 65.4632 19.8784 65.4481 19.8969C65.1763 20.221 64.8947 20.5566 64.6282 20.886C63.7561 21.9644 63.0061 22.9791 62.9149 23.2952C62.9079 23.4944 63.0079 23.6883 63.1505 23.8034C63.293 23.9185 63.4834 23.9495 63.6445 23.8131C64.2785 23.3722 65.5349 22.06 66.1821 21.2605C66.338 21.0684 66.4619 20.9019 66.5301 20.7921C66.6948 20.5256 66.5115 20.1936 66.2388 19.9722C65.9847 19.7668 65.6518 19.6721 65.495 19.8527ZM67.481 18.5254C67.4562 18.506 67.443 18.4847 67.4182 18.4643C67.1331 18.2332 66.685 18.1792 66.3982 18.4192C66.3769 18.4325 66.3566 18.4573 66.3415 18.4759C66.1511 18.7114 66.2636 19.1311 66.6054 19.4179L66.662 19.4631C67.1021 19.819 67.4713 19.8819 67.7644 19.5446L67.7697 19.5384C68.0256 19.2223 67.7537 18.7973 67.481 18.5254Z" fill="white"/>
  <path d="M67.3127 21.0952C67.1383 21.2032 66.6336 21.6795 66.0837 22.2356C65.4108 22.9156 64.6653 23.7266 64.3855 24.1003C64.2005 24.3553 64.3094 24.6873 64.5307 24.906C64.7406 25.1132 65.0451 25.2132 65.2754 25.0486C66.0678 24.4854 66.9213 23.793 67.6279 23.1237C67.6784 23.0723 67.7288 23.0103 67.7855 22.9537C67.8634 22.874 67.9537 22.8058 68.0662 22.7713C68.3876 22.6854 68.7993 22.7792 69.0207 22.9979C69.1393 23.1157 69.1969 23.2733 69.1588 23.4477C69.0818 23.855 68.802 24.2393 68.4425 24.6023C67.8316 25.2203 66.9939 25.7719 66.5849 26.1863C66.4105 26.3616 66.3104 26.5095 66.3272 26.6388C66.3449 26.7344 66.3848 26.8185 66.453 26.8858C66.5211 26.9531 66.6114 26.9982 66.7133 27.031C67.0692 27.193 68.1149 26.6007 68.9286 25.779C69.6635 25.0362 70.2054 24.102 69.8406 23.3937C69.7494 23.1688 69.613 22.9891 69.4598 22.8377C69.08 22.4614 68.6054 22.3064 68.4753 22.2338C68.5027 22.217 68.5257 22.194 68.5479 22.1709C68.7896 21.9275 68.6904 21.46 68.4018 21.174C68.1468 20.9216 67.751 20.8109 67.3127 21.0952Z" fill="white"/>
  <path d="M70.901 24.7179C70.7133 24.8011 70.1467 25.2031 69.5251 25.6768C68.7645 26.2577 67.9136 26.9571 67.5843 27.2883C67.3664 27.5149 67.4284 27.8585 67.617 28.1064C67.7959 28.341 68.0845 28.4818 68.3351 28.3508C69.1975 27.9036 70.1387 27.3352 70.932 26.7712C70.9887 26.7269 71.0471 26.6729 71.1109 26.6242C71.1994 26.556 71.2977 26.5011 71.4146 26.4826C71.7439 26.4418 72.1397 26.5915 72.3283 26.8394C72.4301 26.9722 72.4647 27.136 72.4018 27.3042C72.2699 27.6965 71.9396 28.0391 71.5332 28.3481C70.8426 28.8758 69.9368 29.3061 69.4737 29.6585C69.2772 29.8091 69.1568 29.941 69.1568 30.0711C69.1603 30.1685 69.1886 30.258 69.2462 30.3341C69.3046 30.4103 69.3879 30.4669 69.4835 30.5139C69.8146 30.7237 70.932 30.2819 71.8511 29.5806C72.6825 28.9467 73.3483 28.0976 73.0854 27.3449C73.026 27.1094 72.9162 26.9129 72.7852 26.7411C72.4611 26.3161 72.0122 26.0965 71.8936 26.0071C71.9237 25.9938 71.9494 25.9743 71.975 25.9548C72.2478 25.7468 72.215 25.2704 71.968 24.9472C71.7501 24.6613 71.3738 24.4974 70.901 24.7179Z" fill="white"/>
  <path d="M73.7927 28.9262C73.7785 28.9342 73.7546 28.9404 73.7342 28.9528C73.3694 29.167 72.9922 29.3911 72.6319 29.6124C71.4507 30.3402 70.4068 31.0486 70.2156 31.3159C70.1421 31.501 70.1722 31.717 70.2687 31.8738C70.3643 32.0296 70.5343 32.1217 70.7318 32.0473C71.4755 31.8419 73.0967 31.0211 73.9733 30.4819C74.184 30.3526 74.3558 30.2366 74.4558 30.1561C74.7002 29.9595 74.6382 29.585 74.4541 29.2866C74.2832 29.0077 73.9998 28.8076 73.7927 28.9262ZM76.1071 28.3339C76.0903 28.3073 76.0841 28.2825 76.0673 28.2551C75.8752 27.9434 75.4705 27.7424 75.1208 27.8734C75.096 27.8796 75.0694 27.8965 75.0491 27.9089C74.7905 28.0674 74.7569 28.5003 74.9844 28.8846L75.0225 28.9457C75.3191 29.4282 75.6467 29.6106 76.0354 29.3902L76.0425 29.3857C76.3887 29.1724 76.2736 28.6809 76.1071 28.3339Z" fill="white"/>
  <path d="M75.094 30.7026C74.8939 30.746 74.259 31.0285 73.556 31.3694C72.6954 31.7882 71.7232 32.3044 71.3345 32.5638C71.0759 32.7426 71.068 33.0924 71.2043 33.3722C71.3327 33.6378 71.5877 33.8335 71.8595 33.7547C72.7937 33.4864 73.8287 33.1172 74.7177 32.7205C74.7823 32.6895 74.8505 32.647 74.9222 32.6125C75.0231 32.5638 75.1303 32.5293 75.248 32.5337C75.5792 32.5594 75.9369 32.7843 76.0732 33.064C76.1458 33.2146 76.1476 33.3828 76.0529 33.5351C75.8457 33.8928 75.4543 34.1628 74.9948 34.386C74.213 34.7658 73.2399 35.0075 72.7157 35.2625C72.4935 35.3706 72.3501 35.4759 72.3235 35.6034C72.3084 35.6999 72.3173 35.7929 72.3598 35.8788C72.4014 35.9647 72.4722 36.0373 72.5564 36.1019C72.8388 36.3728 74.0217 36.1621 75.0621 35.6565C76.0024 35.1997 76.8232 34.4993 76.7152 33.7104C76.7037 33.4678 76.6346 33.2526 76.5407 33.0587C76.307 32.5779 75.9112 32.2743 75.812 32.1627C75.8448 32.1556 75.8731 32.1414 75.9015 32.1282C76.2105 31.9776 76.2725 31.5039 76.0954 31.1383C75.9387 30.8151 75.6022 30.5796 75.094 30.7026Z" fill="white"/>
  <path d="M78.0295 36.9684C77.9967 36.9719 77.9587 36.9843 77.9285 36.9949C77.8683 37.0153 77.8099 37.0436 77.7727 37.0569C77.7497 37.064 77.74 37.0596 77.74 37.0596L77.7373 37.0516C77.9162 36.7373 77.9507 36.3716 77.8427 36.0546C77.662 35.5269 77.083 35.1427 76.1143 35.3906C75.9585 35.4269 75.7974 35.4738 75.6459 35.5252C75.3068 35.642 74.9907 35.8005 74.7074 36.0325C74.2939 36.3769 74.247 36.7807 74.363 37.1198C74.4409 37.3465 74.5834 37.5421 74.7357 37.667C74.8225 37.7467 74.9208 37.814 75.0377 37.9087C74.6534 38.0158 72.709 38.6648 72.4266 38.1123C72.4035 38.0698 72.3903 38.0318 72.3779 37.9937C72.1016 37.1862 73.5546 37.2455 73.3996 36.7922L73.3837 36.747C73.335 36.6541 73.2544 36.6151 73.1588 36.6302L73.0455 36.6691C72.0565 37.0082 71.8006 37.7113 71.9555 38.1637L71.9635 38.1867C72.5443 39.8593 74.8765 39.4316 76.5889 38.8446C77.6151 38.4931 78.412 38.0858 78.4722 38.0397C78.6094 37.9246 78.613 37.6882 78.5351 37.4616C78.4447 37.1977 78.2438 36.9542 78.0295 36.9684ZM74.9899 37.2508L74.9819 37.2287C74.8606 36.8736 75.3715 36.4708 75.9753 36.2645C76.6093 36.0476 77.3353 36.0511 77.5266 36.5336L77.5363 36.5646C77.6063 36.7683 77.5354 37.0534 77.3468 37.118L77.3389 37.1207C76.8714 37.2809 76.4012 37.4589 75.9257 37.6218C75.6318 37.7228 75.1572 37.6661 74.9899 37.2508Z" fill="white"/>
  <path d="M75.9305 43.6454C77.186 43.3727 76.5945 40.6119 77.9253 40.1267C78.0094 40.1002 78.1174 40.0692 78.2414 40.0417C78.7877 39.924 79.5908 39.9045 79.7723 40.55L79.7803 40.5889C79.8936 41.1113 79.3437 41.3946 78.7275 41.5283C78.5017 41.577 78.2626 41.6045 78.0457 41.6187C78.0218 41.624 77.997 41.6213 77.974 41.6266C77.7243 41.6806 77.6287 41.9542 77.6862 42.219C77.7438 42.4846 77.9466 42.7422 78.2928 42.7971C78.5849 42.8644 78.8638 42.8697 79.1206 42.814C79.9627 42.6307 80.547 41.8267 80.331 40.7554L80.3159 40.6854C80.0432 39.4308 79.0825 38.8393 78.1033 39.027L78.0484 39.0394C76.1005 39.4627 76.4635 42.3376 75.6055 42.5236C75.5515 42.5359 75.4948 42.5395 75.4275 42.5297C75.1814 42.4855 74.9565 42.2402 74.8768 41.8745L74.8724 41.8506C74.7599 41.3362 74.9432 40.7501 75.3815 40.3614C75.5241 40.2321 75.5674 40.0922 75.5409 39.9674C75.486 39.7177 75.161 39.5353 74.8494 39.6034C74.7715 39.6203 74.6891 39.6539 74.6121 39.7115C74.203 40.086 73.863 40.8864 74.0968 42.0029L74.1021 42.0259C74.3217 43.0397 75.0504 43.8366 75.9305 43.6454Z" fill="white"/>
</svg>